G04 #@! TF.GenerationSoftware,KiCad,Pcbnew,(5.1.2-1)-1*
G04 #@! TF.CreationDate,2019-08-29T14:36:41+09:00*
G04 #@! TF.ProjectId,NervesAddonBoard,4e657276-6573-4416-9464-6f6e426f6172,rev?*
G04 #@! TF.SameCoordinates,Original*
G04 #@! TF.FileFunction,Legend,Top*
G04 #@! TF.FilePolarity,Positive*
%FSLAX46Y46*%
G04 Gerber Fmt 4.6, Leading zero omitted, Abs format (unit mm)*
G04 Created by KiCad (PCBNEW (5.1.2-1)-1) date 2019-08-29 14:36:41*
%MOMM*%
%LPD*%
G04 APERTURE LIST*
%ADD10C,0.150000*%
%ADD11C,0.120000*%
G04 APERTURE END LIST*
D10*
X54452380Y-23759642D02*
X54452380Y-23140595D01*
X54833333Y-23473928D01*
X54833333Y-23331071D01*
X54880952Y-23235833D01*
X54928571Y-23188214D01*
X55023809Y-23140595D01*
X55261904Y-23140595D01*
X55357142Y-23188214D01*
X55404761Y-23235833D01*
X55452380Y-23331071D01*
X55452380Y-23616785D01*
X55404761Y-23712023D01*
X55357142Y-23759642D01*
X54452380Y-22854880D02*
X55452380Y-22521547D01*
X54452380Y-22188214D01*
X54452380Y-21950119D02*
X54452380Y-21331071D01*
X54833333Y-21664404D01*
X54833333Y-21521547D01*
X54880952Y-21426309D01*
X54928571Y-21378690D01*
X55023809Y-21331071D01*
X55261904Y-21331071D01*
X55357142Y-21378690D01*
X55404761Y-21426309D01*
X55452380Y-21521547D01*
X55452380Y-21807261D01*
X55404761Y-21902500D01*
X55357142Y-21950119D01*
X20785714Y-21642857D02*
X20785714Y-20442857D01*
X21471428Y-21642857D01*
X21471428Y-20442857D01*
X22500000Y-21585714D02*
X22385714Y-21642857D01*
X22157142Y-21642857D01*
X22042857Y-21585714D01*
X21985714Y-21471428D01*
X21985714Y-21014285D01*
X22042857Y-20900000D01*
X22157142Y-20842857D01*
X22385714Y-20842857D01*
X22500000Y-20900000D01*
X22557142Y-21014285D01*
X22557142Y-21128571D01*
X21985714Y-21242857D01*
X23071428Y-21642857D02*
X23071428Y-20842857D01*
X23071428Y-21071428D02*
X23128571Y-20957142D01*
X23185714Y-20900000D01*
X23300000Y-20842857D01*
X23414285Y-20842857D01*
X23700000Y-20842857D02*
X23985714Y-21642857D01*
X24271428Y-20842857D01*
X25185714Y-21585714D02*
X25071428Y-21642857D01*
X24842857Y-21642857D01*
X24728571Y-21585714D01*
X24671428Y-21471428D01*
X24671428Y-21014285D01*
X24728571Y-20900000D01*
X24842857Y-20842857D01*
X25071428Y-20842857D01*
X25185714Y-20900000D01*
X25242857Y-21014285D01*
X25242857Y-21128571D01*
X24671428Y-21242857D01*
X25700000Y-21585714D02*
X25814285Y-21642857D01*
X26042857Y-21642857D01*
X26157142Y-21585714D01*
X26214285Y-21471428D01*
X26214285Y-21414285D01*
X26157142Y-21300000D01*
X26042857Y-21242857D01*
X25871428Y-21242857D01*
X25757142Y-21185714D01*
X25700000Y-21071428D01*
X25700000Y-21014285D01*
X25757142Y-20900000D01*
X25871428Y-20842857D01*
X26042857Y-20842857D01*
X26157142Y-20900000D01*
X26728571Y-21185714D02*
X27642857Y-21185714D01*
X28157142Y-21300000D02*
X28728571Y-21300000D01*
X28042857Y-21642857D02*
X28442857Y-20442857D01*
X28842857Y-21642857D01*
X29757142Y-21642857D02*
X29757142Y-20442857D01*
X29757142Y-21585714D02*
X29642857Y-21642857D01*
X29414285Y-21642857D01*
X29300000Y-21585714D01*
X29242857Y-21528571D01*
X29185714Y-21414285D01*
X29185714Y-21071428D01*
X29242857Y-20957142D01*
X29300000Y-20900000D01*
X29414285Y-20842857D01*
X29642857Y-20842857D01*
X29757142Y-20900000D01*
X30842857Y-21642857D02*
X30842857Y-20442857D01*
X30842857Y-21585714D02*
X30728571Y-21642857D01*
X30500000Y-21642857D01*
X30385714Y-21585714D01*
X30328571Y-21528571D01*
X30271428Y-21414285D01*
X30271428Y-21071428D01*
X30328571Y-20957142D01*
X30385714Y-20900000D01*
X30500000Y-20842857D01*
X30728571Y-20842857D01*
X30842857Y-20900000D01*
X31585714Y-21642857D02*
X31471428Y-21585714D01*
X31414285Y-21528571D01*
X31357142Y-21414285D01*
X31357142Y-21071428D01*
X31414285Y-20957142D01*
X31471428Y-20900000D01*
X31585714Y-20842857D01*
X31757142Y-20842857D01*
X31871428Y-20900000D01*
X31928571Y-20957142D01*
X31985714Y-21071428D01*
X31985714Y-21414285D01*
X31928571Y-21528571D01*
X31871428Y-21585714D01*
X31757142Y-21642857D01*
X31585714Y-21642857D01*
X32500000Y-20842857D02*
X32500000Y-21642857D01*
X32500000Y-20957142D02*
X32557142Y-20900000D01*
X32671428Y-20842857D01*
X32842857Y-20842857D01*
X32957142Y-20900000D01*
X33014285Y-21014285D01*
X33014285Y-21642857D01*
X32200000Y-24140595D02*
X32152380Y-24235833D01*
X32152380Y-24378690D01*
X32200000Y-24521547D01*
X32295238Y-24616785D01*
X32390476Y-24664404D01*
X32580952Y-24712023D01*
X32723809Y-24712023D01*
X32914285Y-24664404D01*
X33009523Y-24616785D01*
X33104761Y-24521547D01*
X33152380Y-24378690D01*
X33152380Y-24283452D01*
X33104761Y-24140595D01*
X33057142Y-24092976D01*
X32723809Y-24092976D01*
X32723809Y-24283452D01*
X33152380Y-23664404D02*
X32152380Y-23664404D01*
X33152380Y-23092976D01*
X32152380Y-23092976D01*
X33152380Y-22616785D02*
X32152380Y-22616785D01*
X32152380Y-22378690D01*
X32200000Y-22235833D01*
X32295238Y-22140595D01*
X32390476Y-22092976D01*
X32580952Y-22045357D01*
X32723809Y-22045357D01*
X32914285Y-22092976D01*
X33009523Y-22140595D01*
X33104761Y-22235833D01*
X33152380Y-22378690D01*
X33152380Y-22616785D01*
X81500000Y-23140595D02*
X81452380Y-23235833D01*
X81452380Y-23378690D01*
X81500000Y-23521547D01*
X81595238Y-23616785D01*
X81690476Y-23664404D01*
X81880952Y-23712023D01*
X82023809Y-23712023D01*
X82214285Y-23664404D01*
X82309523Y-23616785D01*
X82404761Y-23521547D01*
X82452380Y-23378690D01*
X82452380Y-23283452D01*
X82404761Y-23140595D01*
X82357142Y-23092976D01*
X82023809Y-23092976D01*
X82023809Y-23283452D01*
X82452380Y-22664404D02*
X81452380Y-22664404D01*
X82452380Y-22092976D01*
X81452380Y-22092976D01*
X82452380Y-21616785D02*
X81452380Y-21616785D01*
X81452380Y-21378690D01*
X81500000Y-21235833D01*
X81595238Y-21140595D01*
X81690476Y-21092976D01*
X81880952Y-21045357D01*
X82023809Y-21045357D01*
X82214285Y-21092976D01*
X82309523Y-21140595D01*
X82404761Y-21235833D01*
X82452380Y-21378690D01*
X82452380Y-21616785D01*
X63952380Y-23664404D02*
X62952380Y-23664404D01*
X62952380Y-22997738D02*
X62952380Y-22807261D01*
X63000000Y-22712023D01*
X63095238Y-22616785D01*
X63285714Y-22569166D01*
X63619047Y-22569166D01*
X63809523Y-22616785D01*
X63904761Y-22712023D01*
X63952380Y-22807261D01*
X63952380Y-22997738D01*
X63904761Y-23092976D01*
X63809523Y-23188214D01*
X63619047Y-23235833D01*
X63285714Y-23235833D01*
X63095238Y-23188214D01*
X63000000Y-23092976D01*
X62952380Y-22997738D01*
X63952380Y-21616785D02*
X63952380Y-22188214D01*
X63952380Y-21902500D02*
X62952380Y-21902500D01*
X63095238Y-21997738D01*
X63190476Y-22092976D01*
X63238095Y-22188214D01*
X63047619Y-21235833D02*
X63000000Y-21188214D01*
X62952380Y-21092976D01*
X62952380Y-20854880D01*
X63000000Y-20759642D01*
X63047619Y-20712023D01*
X63142857Y-20664404D01*
X63238095Y-20664404D01*
X63380952Y-20712023D01*
X63952380Y-21283452D01*
X63952380Y-20664404D01*
X69000000Y-23140595D02*
X68952380Y-23235833D01*
X68952380Y-23378690D01*
X69000000Y-23521547D01*
X69095238Y-23616785D01*
X69190476Y-23664404D01*
X69380952Y-23712023D01*
X69523809Y-23712023D01*
X69714285Y-23664404D01*
X69809523Y-23616785D01*
X69904761Y-23521547D01*
X69952380Y-23378690D01*
X69952380Y-23283452D01*
X69904761Y-23140595D01*
X69857142Y-23092976D01*
X69523809Y-23092976D01*
X69523809Y-23283452D01*
X69952380Y-22664404D02*
X68952380Y-22664404D01*
X69952380Y-22092976D01*
X68952380Y-22092976D01*
X69952380Y-21616785D02*
X68952380Y-21616785D01*
X68952380Y-21378690D01*
X69000000Y-21235833D01*
X69095238Y-21140595D01*
X69190476Y-21092976D01*
X69380952Y-21045357D01*
X69523809Y-21045357D01*
X69714285Y-21092976D01*
X69809523Y-21140595D01*
X69904761Y-21235833D01*
X69952380Y-21378690D01*
X69952380Y-21616785D01*
X78452380Y-23664404D02*
X77452380Y-23664404D01*
X77452380Y-22997738D02*
X77452380Y-22807261D01*
X77500000Y-22712023D01*
X77595238Y-22616785D01*
X77785714Y-22569166D01*
X78119047Y-22569166D01*
X78309523Y-22616785D01*
X78404761Y-22712023D01*
X78452380Y-22807261D01*
X78452380Y-22997738D01*
X78404761Y-23092976D01*
X78309523Y-23188214D01*
X78119047Y-23235833D01*
X77785714Y-23235833D01*
X77595238Y-23188214D01*
X77500000Y-23092976D01*
X77452380Y-22997738D01*
X77547619Y-22188214D02*
X77500000Y-22140595D01*
X77452380Y-22045357D01*
X77452380Y-21807261D01*
X77500000Y-21712023D01*
X77547619Y-21664404D01*
X77642857Y-21616785D01*
X77738095Y-21616785D01*
X77880952Y-21664404D01*
X78452380Y-22235833D01*
X78452380Y-21616785D01*
X78452380Y-20664404D02*
X78452380Y-21235833D01*
X78452380Y-20950119D02*
X77452380Y-20950119D01*
X77595238Y-21045357D01*
X77690476Y-21140595D01*
X77738095Y-21235833D01*
X76452380Y-23664404D02*
X75452380Y-23664404D01*
X75452380Y-22997738D02*
X75452380Y-22807261D01*
X75500000Y-22712023D01*
X75595238Y-22616785D01*
X75785714Y-22569166D01*
X76119047Y-22569166D01*
X76309523Y-22616785D01*
X76404761Y-22712023D01*
X76452380Y-22807261D01*
X76452380Y-22997738D01*
X76404761Y-23092976D01*
X76309523Y-23188214D01*
X76119047Y-23235833D01*
X75785714Y-23235833D01*
X75595238Y-23188214D01*
X75500000Y-23092976D01*
X75452380Y-22997738D01*
X75547619Y-22188214D02*
X75500000Y-22140595D01*
X75452380Y-22045357D01*
X75452380Y-21807261D01*
X75500000Y-21712023D01*
X75547619Y-21664404D01*
X75642857Y-21616785D01*
X75738095Y-21616785D01*
X75880952Y-21664404D01*
X76452380Y-22235833D01*
X76452380Y-21616785D01*
X75452380Y-20997738D02*
X75452380Y-20902500D01*
X75500000Y-20807261D01*
X75547619Y-20759642D01*
X75642857Y-20712023D01*
X75833333Y-20664404D01*
X76071428Y-20664404D01*
X76261904Y-20712023D01*
X76357142Y-20759642D01*
X76404761Y-20807261D01*
X76452380Y-20902500D01*
X76452380Y-20997738D01*
X76404761Y-21092976D01*
X76357142Y-21140595D01*
X76261904Y-21188214D01*
X76071428Y-21235833D01*
X75833333Y-21235833D01*
X75642857Y-21188214D01*
X75547619Y-21140595D01*
X75500000Y-21092976D01*
X75452380Y-20997738D01*
X65952380Y-23664404D02*
X64952380Y-23664404D01*
X64952380Y-22997738D02*
X64952380Y-22807261D01*
X65000000Y-22712023D01*
X65095238Y-22616785D01*
X65285714Y-22569166D01*
X65619047Y-22569166D01*
X65809523Y-22616785D01*
X65904761Y-22712023D01*
X65952380Y-22807261D01*
X65952380Y-22997738D01*
X65904761Y-23092976D01*
X65809523Y-23188214D01*
X65619047Y-23235833D01*
X65285714Y-23235833D01*
X65095238Y-23188214D01*
X65000000Y-23092976D01*
X64952380Y-22997738D01*
X65952380Y-21616785D02*
X65952380Y-22188214D01*
X65952380Y-21902500D02*
X64952380Y-21902500D01*
X65095238Y-21997738D01*
X65190476Y-22092976D01*
X65238095Y-22188214D01*
X64952380Y-21283452D02*
X64952380Y-20664404D01*
X65333333Y-20997738D01*
X65333333Y-20854880D01*
X65380952Y-20759642D01*
X65428571Y-20712023D01*
X65523809Y-20664404D01*
X65761904Y-20664404D01*
X65857142Y-20712023D01*
X65904761Y-20759642D01*
X65952380Y-20854880D01*
X65952380Y-21140595D01*
X65904761Y-21235833D01*
X65857142Y-21283452D01*
X53452380Y-23664404D02*
X52452380Y-23664404D01*
X52452380Y-22997738D02*
X52452380Y-22807261D01*
X52500000Y-22712023D01*
X52595238Y-22616785D01*
X52785714Y-22569166D01*
X53119047Y-22569166D01*
X53309523Y-22616785D01*
X53404761Y-22712023D01*
X53452380Y-22807261D01*
X53452380Y-22997738D01*
X53404761Y-23092976D01*
X53309523Y-23188214D01*
X53119047Y-23235833D01*
X52785714Y-23235833D01*
X52595238Y-23188214D01*
X52500000Y-23092976D01*
X52452380Y-22997738D01*
X53452380Y-21616785D02*
X53452380Y-22188214D01*
X53452380Y-21902500D02*
X52452380Y-21902500D01*
X52595238Y-21997738D01*
X52690476Y-22092976D01*
X52738095Y-22188214D01*
X52452380Y-20712023D02*
X52452380Y-21188214D01*
X52928571Y-21235833D01*
X52880952Y-21188214D01*
X52833333Y-21092976D01*
X52833333Y-20854880D01*
X52880952Y-20759642D01*
X52928571Y-20712023D01*
X53023809Y-20664404D01*
X53261904Y-20664404D01*
X53357142Y-20712023D01*
X53404761Y-20759642D01*
X53452380Y-20854880D01*
X53452380Y-21092976D01*
X53404761Y-21188214D01*
X53357142Y-21235833D01*
X51452380Y-23664404D02*
X50452380Y-23664404D01*
X50452380Y-22997738D02*
X50452380Y-22807261D01*
X50500000Y-22712023D01*
X50595238Y-22616785D01*
X50785714Y-22569166D01*
X51119047Y-22569166D01*
X51309523Y-22616785D01*
X51404761Y-22712023D01*
X51452380Y-22807261D01*
X51452380Y-22997738D01*
X51404761Y-23092976D01*
X51309523Y-23188214D01*
X51119047Y-23235833D01*
X50785714Y-23235833D01*
X50595238Y-23188214D01*
X50500000Y-23092976D01*
X50452380Y-22997738D01*
X51452380Y-21616785D02*
X51452380Y-22188214D01*
X51452380Y-21902500D02*
X50452380Y-21902500D01*
X50595238Y-21997738D01*
X50690476Y-22092976D01*
X50738095Y-22188214D01*
X50785714Y-20759642D02*
X51452380Y-20759642D01*
X50404761Y-20997738D02*
X51119047Y-21235833D01*
X51119047Y-20616785D01*
X38904761Y-23712023D02*
X38952380Y-23569166D01*
X38952380Y-23331071D01*
X38904761Y-23235833D01*
X38857142Y-23188214D01*
X38761904Y-23140595D01*
X38666666Y-23140595D01*
X38571428Y-23188214D01*
X38523809Y-23235833D01*
X38476190Y-23331071D01*
X38428571Y-23521547D01*
X38380952Y-23616785D01*
X38333333Y-23664404D01*
X38238095Y-23712023D01*
X38142857Y-23712023D01*
X38047619Y-23664404D01*
X38000000Y-23616785D01*
X37952380Y-23521547D01*
X37952380Y-23283452D01*
X38000000Y-23140595D01*
X38857142Y-22140595D02*
X38904761Y-22188214D01*
X38952380Y-22331071D01*
X38952380Y-22426309D01*
X38904761Y-22569166D01*
X38809523Y-22664404D01*
X38714285Y-22712023D01*
X38523809Y-22759642D01*
X38380952Y-22759642D01*
X38190476Y-22712023D01*
X38095238Y-22664404D01*
X38000000Y-22569166D01*
X37952380Y-22426309D01*
X37952380Y-22331071D01*
X38000000Y-22188214D01*
X38047619Y-22140595D01*
X38952380Y-21235833D02*
X38952380Y-21712023D01*
X37952380Y-21712023D01*
X40904761Y-23712023D02*
X40952380Y-23569166D01*
X40952380Y-23331071D01*
X40904761Y-23235833D01*
X40857142Y-23188214D01*
X40761904Y-23140595D01*
X40666666Y-23140595D01*
X40571428Y-23188214D01*
X40523809Y-23235833D01*
X40476190Y-23331071D01*
X40428571Y-23521547D01*
X40380952Y-23616785D01*
X40333333Y-23664404D01*
X40238095Y-23712023D01*
X40142857Y-23712023D01*
X40047619Y-23664404D01*
X40000000Y-23616785D01*
X39952380Y-23521547D01*
X39952380Y-23283452D01*
X40000000Y-23140595D01*
X40952380Y-22712023D02*
X39952380Y-22712023D01*
X39952380Y-22473928D01*
X40000000Y-22331071D01*
X40095238Y-22235833D01*
X40190476Y-22188214D01*
X40380952Y-22140595D01*
X40523809Y-22140595D01*
X40714285Y-22188214D01*
X40809523Y-22235833D01*
X40904761Y-22331071D01*
X40952380Y-22473928D01*
X40952380Y-22712023D01*
X40666666Y-21759642D02*
X40666666Y-21283452D01*
X40952380Y-21854880D02*
X39952380Y-21521547D01*
X40952380Y-21188214D01*
X56500000Y-23140595D02*
X56452380Y-23235833D01*
X56452380Y-23378690D01*
X56500000Y-23521547D01*
X56595238Y-23616785D01*
X56690476Y-23664404D01*
X56880952Y-23712023D01*
X57023809Y-23712023D01*
X57214285Y-23664404D01*
X57309523Y-23616785D01*
X57404761Y-23521547D01*
X57452380Y-23378690D01*
X57452380Y-23283452D01*
X57404761Y-23140595D01*
X57357142Y-23092976D01*
X57023809Y-23092976D01*
X57023809Y-23283452D01*
X57452380Y-22664404D02*
X56452380Y-22664404D01*
X57452380Y-22092976D01*
X56452380Y-22092976D01*
X57452380Y-21616785D02*
X56452380Y-21616785D01*
X56452380Y-21378690D01*
X56500000Y-21235833D01*
X56595238Y-21140595D01*
X56690476Y-21092976D01*
X56880952Y-21045357D01*
X57023809Y-21045357D01*
X57214285Y-21092976D01*
X57309523Y-21140595D01*
X57404761Y-21235833D01*
X57452380Y-21378690D01*
X57452380Y-21616785D01*
X44000000Y-23140595D02*
X43952380Y-23235833D01*
X43952380Y-23378690D01*
X44000000Y-23521547D01*
X44095238Y-23616785D01*
X44190476Y-23664404D01*
X44380952Y-23712023D01*
X44523809Y-23712023D01*
X44714285Y-23664404D01*
X44809523Y-23616785D01*
X44904761Y-23521547D01*
X44952380Y-23378690D01*
X44952380Y-23283452D01*
X44904761Y-23140595D01*
X44857142Y-23092976D01*
X44523809Y-23092976D01*
X44523809Y-23283452D01*
X44952380Y-22664404D02*
X43952380Y-22664404D01*
X44952380Y-22092976D01*
X43952380Y-22092976D01*
X44952380Y-21616785D02*
X43952380Y-21616785D01*
X43952380Y-21378690D01*
X44000000Y-21235833D01*
X44095238Y-21140595D01*
X44190476Y-21092976D01*
X44380952Y-21045357D01*
X44523809Y-21045357D01*
X44714285Y-21092976D01*
X44809523Y-21140595D01*
X44904761Y-21235833D01*
X44952380Y-21378690D01*
X44952380Y-21616785D01*
X79452380Y-23759642D02*
X79452380Y-23140595D01*
X79833333Y-23473928D01*
X79833333Y-23331071D01*
X79880952Y-23235833D01*
X79928571Y-23188214D01*
X80023809Y-23140595D01*
X80261904Y-23140595D01*
X80357142Y-23188214D01*
X80404761Y-23235833D01*
X80452380Y-23331071D01*
X80452380Y-23616785D01*
X80404761Y-23712023D01*
X80357142Y-23759642D01*
X79452380Y-22854880D02*
X80452380Y-22521547D01*
X79452380Y-22188214D01*
X79452380Y-21950119D02*
X79452380Y-21331071D01*
X79833333Y-21664404D01*
X79833333Y-21521547D01*
X79880952Y-21426309D01*
X79928571Y-21378690D01*
X80023809Y-21331071D01*
X80261904Y-21331071D01*
X80357142Y-21378690D01*
X80404761Y-21426309D01*
X80452380Y-21521547D01*
X80452380Y-21807261D01*
X80404761Y-21902500D01*
X80357142Y-21950119D01*
X66952380Y-23759642D02*
X66952380Y-23140595D01*
X67333333Y-23473928D01*
X67333333Y-23331071D01*
X67380952Y-23235833D01*
X67428571Y-23188214D01*
X67523809Y-23140595D01*
X67761904Y-23140595D01*
X67857142Y-23188214D01*
X67904761Y-23235833D01*
X67952380Y-23331071D01*
X67952380Y-23616785D01*
X67904761Y-23712023D01*
X67857142Y-23759642D01*
X66952380Y-22854880D02*
X67952380Y-22521547D01*
X66952380Y-22188214D01*
X66952380Y-21950119D02*
X66952380Y-21331071D01*
X67333333Y-21664404D01*
X67333333Y-21521547D01*
X67380952Y-21426309D01*
X67428571Y-21378690D01*
X67523809Y-21331071D01*
X67761904Y-21331071D01*
X67857142Y-21378690D01*
X67904761Y-21426309D01*
X67952380Y-21521547D01*
X67952380Y-21807261D01*
X67904761Y-21902500D01*
X67857142Y-21950119D01*
X41952380Y-23759642D02*
X41952380Y-23140595D01*
X42333333Y-23473928D01*
X42333333Y-23331071D01*
X42380952Y-23235833D01*
X42428571Y-23188214D01*
X42523809Y-23140595D01*
X42761904Y-23140595D01*
X42857142Y-23188214D01*
X42904761Y-23235833D01*
X42952380Y-23331071D01*
X42952380Y-23616785D01*
X42904761Y-23712023D01*
X42857142Y-23759642D01*
X41952380Y-22854880D02*
X42952380Y-22521547D01*
X41952380Y-22188214D01*
X41952380Y-21950119D02*
X41952380Y-21331071D01*
X42333333Y-21664404D01*
X42333333Y-21521547D01*
X42380952Y-21426309D01*
X42428571Y-21378690D01*
X42523809Y-21331071D01*
X42761904Y-21331071D01*
X42857142Y-21378690D01*
X42904761Y-21426309D01*
X42952380Y-21521547D01*
X42952380Y-21807261D01*
X42904761Y-21902500D01*
X42857142Y-21950119D01*
X28024761Y-24712023D02*
X28072380Y-24569166D01*
X28072380Y-24331071D01*
X28024761Y-24235833D01*
X27977142Y-24188214D01*
X27881904Y-24140595D01*
X27786666Y-24140595D01*
X27691428Y-24188214D01*
X27643809Y-24235833D01*
X27596190Y-24331071D01*
X27548571Y-24521547D01*
X27500952Y-24616785D01*
X27453333Y-24664404D01*
X27358095Y-24712023D01*
X27262857Y-24712023D01*
X27167619Y-24664404D01*
X27120000Y-24616785D01*
X27072380Y-24521547D01*
X27072380Y-24283452D01*
X27120000Y-24140595D01*
X27977142Y-23140595D02*
X28024761Y-23188214D01*
X28072380Y-23331071D01*
X28072380Y-23426309D01*
X28024761Y-23569166D01*
X27929523Y-23664404D01*
X27834285Y-23712023D01*
X27643809Y-23759642D01*
X27500952Y-23759642D01*
X27310476Y-23712023D01*
X27215238Y-23664404D01*
X27120000Y-23569166D01*
X27072380Y-23426309D01*
X27072380Y-23331071D01*
X27120000Y-23188214D01*
X27167619Y-23140595D01*
X28072380Y-22235833D02*
X28072380Y-22712023D01*
X27072380Y-22712023D01*
X25484761Y-24712023D02*
X25532380Y-24569166D01*
X25532380Y-24331071D01*
X25484761Y-24235833D01*
X25437142Y-24188214D01*
X25341904Y-24140595D01*
X25246666Y-24140595D01*
X25151428Y-24188214D01*
X25103809Y-24235833D01*
X25056190Y-24331071D01*
X25008571Y-24521547D01*
X24960952Y-24616785D01*
X24913333Y-24664404D01*
X24818095Y-24712023D01*
X24722857Y-24712023D01*
X24627619Y-24664404D01*
X24580000Y-24616785D01*
X24532380Y-24521547D01*
X24532380Y-24283452D01*
X24580000Y-24140595D01*
X25532380Y-23712023D02*
X24532380Y-23712023D01*
X24532380Y-23473928D01*
X24580000Y-23331071D01*
X24675238Y-23235833D01*
X24770476Y-23188214D01*
X24960952Y-23140595D01*
X25103809Y-23140595D01*
X25294285Y-23188214D01*
X25389523Y-23235833D01*
X25484761Y-23331071D01*
X25532380Y-23473928D01*
X25532380Y-23712023D01*
X25246666Y-22759642D02*
X25246666Y-22283452D01*
X25532380Y-22854880D02*
X24532380Y-22521547D01*
X25532380Y-22188214D01*
X21992380Y-24759642D02*
X21992380Y-24140595D01*
X22373333Y-24473928D01*
X22373333Y-24331071D01*
X22420952Y-24235833D01*
X22468571Y-24188214D01*
X22563809Y-24140595D01*
X22801904Y-24140595D01*
X22897142Y-24188214D01*
X22944761Y-24235833D01*
X22992380Y-24331071D01*
X22992380Y-24616785D01*
X22944761Y-24712023D01*
X22897142Y-24759642D01*
X21992380Y-23854880D02*
X22992380Y-23521547D01*
X21992380Y-23188214D01*
X21992380Y-22950119D02*
X21992380Y-22331071D01*
X22373333Y-22664404D01*
X22373333Y-22521547D01*
X22420952Y-22426309D01*
X22468571Y-22378690D01*
X22563809Y-22331071D01*
X22801904Y-22331071D01*
X22897142Y-22378690D01*
X22944761Y-22426309D01*
X22992380Y-22521547D01*
X22992380Y-22807261D01*
X22944761Y-22902500D01*
X22897142Y-22950119D01*
D11*
X68500000Y-30300000D02*
X69100000Y-30300000D01*
X63900000Y-30300000D02*
X64500000Y-30300000D01*
X61000000Y-24450000D02*
X72050000Y-24450000D01*
X61000000Y-30300000D02*
X61000000Y-24450000D01*
X64750000Y-30300000D02*
X68250000Y-30300000D01*
X72050000Y-30300000D02*
X72050000Y-24450000D01*
X61000000Y-30300000D02*
X63650000Y-30300000D01*
X69400000Y-30300000D02*
X72050000Y-30300000D01*
X56000000Y-30300000D02*
X56600000Y-30300000D01*
X51400000Y-30300000D02*
X52000000Y-30300000D01*
X48500000Y-24450000D02*
X59550000Y-24450000D01*
X48500000Y-30300000D02*
X48500000Y-24450000D01*
X52250000Y-30300000D02*
X55750000Y-30300000D01*
X59550000Y-30300000D02*
X59550000Y-24450000D01*
X48500000Y-30300000D02*
X51150000Y-30300000D01*
X56900000Y-30300000D02*
X59550000Y-30300000D01*
X43500000Y-30300000D02*
X44100000Y-30300000D01*
X38900000Y-30300000D02*
X39500000Y-30300000D01*
X36000000Y-24450000D02*
X47050000Y-24450000D01*
X36000000Y-30300000D02*
X36000000Y-24450000D01*
X39750000Y-30300000D02*
X43250000Y-30300000D01*
X47050000Y-30300000D02*
X47050000Y-24450000D01*
X36000000Y-30300000D02*
X38650000Y-30300000D01*
X44400000Y-30300000D02*
X47050000Y-30300000D01*
X81000000Y-30300000D02*
X81600000Y-30300000D01*
X76400000Y-30300000D02*
X77000000Y-30300000D01*
X73500000Y-24450000D02*
X84550000Y-24450000D01*
X73500000Y-30300000D02*
X73500000Y-24450000D01*
X77250000Y-30300000D02*
X80750000Y-30300000D01*
X84550000Y-30300000D02*
X84550000Y-24450000D01*
X73500000Y-30300000D02*
X76150000Y-30300000D01*
X81900000Y-30300000D02*
X84550000Y-30300000D01*
X21210000Y-25140000D02*
X21210000Y-26410000D01*
X22540000Y-25140000D02*
X21210000Y-25140000D01*
X23810000Y-27740000D02*
X23810000Y-25140000D01*
X21210000Y-27740000D02*
X23810000Y-27740000D01*
X21210000Y-30340000D02*
X21210000Y-27740000D01*
X34030000Y-30340000D02*
X21210000Y-30340000D01*
X34030000Y-25140000D02*
X34030000Y-30340000D01*
X23810000Y-25140000D02*
X34030000Y-25140000D01*
D10*
X71212023Y-22952380D02*
X71212023Y-23666666D01*
X71164404Y-23809523D01*
X71069166Y-23904761D01*
X70926309Y-23952380D01*
X70831071Y-23952380D01*
X72164404Y-22952380D02*
X71688214Y-22952380D01*
X71640595Y-23428571D01*
X71688214Y-23380952D01*
X71783452Y-23333333D01*
X72021547Y-23333333D01*
X72116785Y-23380952D01*
X72164404Y-23428571D01*
X72212023Y-23523809D01*
X72212023Y-23761904D01*
X72164404Y-23857142D01*
X72116785Y-23904761D01*
X72021547Y-23952380D01*
X71783452Y-23952380D01*
X71688214Y-23904761D01*
X71640595Y-23857142D01*
D11*
X70278571Y-28371428D02*
X70278571Y-29228571D01*
X70278571Y-28800000D02*
X68778571Y-28800000D01*
X68992857Y-28942857D01*
X69135714Y-29085714D01*
X69207142Y-29228571D01*
D10*
X58712023Y-22952380D02*
X58712023Y-23666666D01*
X58664404Y-23809523D01*
X58569166Y-23904761D01*
X58426309Y-23952380D01*
X58331071Y-23952380D01*
X59616785Y-23285714D02*
X59616785Y-23952380D01*
X59378690Y-22904761D02*
X59140595Y-23619047D01*
X59759642Y-23619047D01*
D11*
X57778571Y-28371428D02*
X57778571Y-29228571D01*
X57778571Y-28800000D02*
X56278571Y-28800000D01*
X56492857Y-28942857D01*
X56635714Y-29085714D01*
X56707142Y-29228571D01*
D10*
X46212023Y-22952380D02*
X46212023Y-23666666D01*
X46164404Y-23809523D01*
X46069166Y-23904761D01*
X45926309Y-23952380D01*
X45831071Y-23952380D01*
X46592976Y-22952380D02*
X47212023Y-22952380D01*
X46878690Y-23333333D01*
X47021547Y-23333333D01*
X47116785Y-23380952D01*
X47164404Y-23428571D01*
X47212023Y-23523809D01*
X47212023Y-23761904D01*
X47164404Y-23857142D01*
X47116785Y-23904761D01*
X47021547Y-23952380D01*
X46735833Y-23952380D01*
X46640595Y-23904761D01*
X46592976Y-23857142D01*
D11*
X45278571Y-28371428D02*
X45278571Y-29228571D01*
X45278571Y-28800000D02*
X43778571Y-28800000D01*
X43992857Y-28942857D01*
X44135714Y-29085714D01*
X44207142Y-29228571D01*
D10*
X83712023Y-22952380D02*
X83712023Y-23666666D01*
X83664404Y-23809523D01*
X83569166Y-23904761D01*
X83426309Y-23952380D01*
X83331071Y-23952380D01*
X84616785Y-22952380D02*
X84426309Y-22952380D01*
X84331071Y-23000000D01*
X84283452Y-23047619D01*
X84188214Y-23190476D01*
X84140595Y-23380952D01*
X84140595Y-23761904D01*
X84188214Y-23857142D01*
X84235833Y-23904761D01*
X84331071Y-23952380D01*
X84521547Y-23952380D01*
X84616785Y-23904761D01*
X84664404Y-23857142D01*
X84712023Y-23761904D01*
X84712023Y-23523809D01*
X84664404Y-23428571D01*
X84616785Y-23380952D01*
X84521547Y-23333333D01*
X84331071Y-23333333D01*
X84235833Y-23380952D01*
X84188214Y-23428571D01*
X84140595Y-23523809D01*
D11*
X82778571Y-28371428D02*
X82778571Y-29228571D01*
X82778571Y-28800000D02*
X81278571Y-28800000D01*
X81492857Y-28942857D01*
X81635714Y-29085714D01*
X81707142Y-29228571D01*
D10*
X32916666Y-30702380D02*
X32916666Y-31416666D01*
X32869047Y-31559523D01*
X32773809Y-31654761D01*
X32630952Y-31702380D01*
X32535714Y-31702380D01*
X33345238Y-30797619D02*
X33392857Y-30750000D01*
X33488095Y-30702380D01*
X33726190Y-30702380D01*
X33821428Y-30750000D01*
X33869047Y-30797619D01*
X33916666Y-30892857D01*
X33916666Y-30988095D01*
X33869047Y-31130952D01*
X33297619Y-31702380D01*
X33916666Y-31702380D01*
M02*
