G04 #@! TF.GenerationSoftware,KiCad,Pcbnew,(5.1.2-1)-1*
G04 #@! TF.CreationDate,2019-06-27T20:10:21+09:00*
G04 #@! TF.ProjectId,NervesAddonBoard,4e657276-6573-4416-9464-6f6e426f6172,rev?*
G04 #@! TF.SameCoordinates,Original*
G04 #@! TF.FileFunction,Copper,L2,Bot*
G04 #@! TF.FilePolarity,Positive*
%FSLAX46Y46*%
G04 Gerber Fmt 4.6, Leading zero omitted, Abs format (unit mm)*
G04 Created by KiCad (PCBNEW (5.1.2-1)-1) date 2019-06-27 20:10:21*
%MOMM*%
%LPD*%
G04 APERTURE LIST*
%ADD10C,1.524000*%
%ADD11C,5.400000*%
%ADD12R,1.524000X1.524000*%
%ADD13O,1.700000X1.700000*%
%ADD14R,1.700000X1.700000*%
%ADD15C,0.800000*%
%ADD16C,0.250000*%
%ADD17C,0.200000*%
%ADD18C,0.254000*%
G04 APERTURE END LIST*
D10*
X57000000Y-27000000D03*
X55000000Y-27000000D03*
X53000000Y-27000000D03*
X51000000Y-27000000D03*
X44500000Y-27000000D03*
X42500000Y-27000000D03*
X40500000Y-27000000D03*
X38500000Y-27000000D03*
D11*
X81500000Y-34760000D03*
X23500000Y-34760000D03*
D12*
X28370000Y-36630000D03*
D10*
X28370000Y-34090000D03*
X30910000Y-36630000D03*
X30910000Y-34090000D03*
X33450000Y-36630000D03*
X33450000Y-34090000D03*
X35990000Y-36630000D03*
X35990000Y-34090000D03*
X38530000Y-36630000D03*
X38530000Y-34090000D03*
X41070000Y-36630000D03*
X41070000Y-34090000D03*
X43610000Y-36630000D03*
X43610000Y-34090000D03*
X46150000Y-36630000D03*
X46150000Y-34090000D03*
X48690000Y-36630000D03*
X48690000Y-34090000D03*
X51230000Y-36630000D03*
X51230000Y-34090000D03*
X53770000Y-36630000D03*
X53770000Y-34090000D03*
X56310000Y-36630000D03*
X56310000Y-34090000D03*
X58850000Y-36630000D03*
X58850000Y-34090000D03*
X61390000Y-36630000D03*
X61390000Y-34090000D03*
X63930000Y-36630000D03*
X63930000Y-34090000D03*
X66470000Y-36630000D03*
X66470000Y-34090000D03*
X69010000Y-36630000D03*
X69010000Y-34090000D03*
X71550000Y-36630000D03*
X71550000Y-34090000D03*
X74090000Y-36630000D03*
X74090000Y-34090000D03*
X76630000Y-36630000D03*
X76630000Y-34090000D03*
X63500000Y-27000000D03*
X65500000Y-27000000D03*
X67500000Y-27000000D03*
X69500000Y-27000000D03*
D13*
X32700000Y-29010000D03*
X32700000Y-26470000D03*
X30160000Y-29010000D03*
X30160000Y-26470000D03*
X27620000Y-29010000D03*
X27620000Y-26470000D03*
X25080000Y-29010000D03*
X25080000Y-26470000D03*
X22540000Y-29010000D03*
D14*
X22540000Y-26470000D03*
D10*
X76000000Y-27000000D03*
X78000000Y-27000000D03*
X80000000Y-27000000D03*
X82000000Y-27000000D03*
D15*
X30140000Y-24480000D03*
X35220000Y-25000000D03*
X47750000Y-25000000D03*
X47750000Y-27540000D03*
X47750000Y-30080000D03*
X60250000Y-25000000D03*
X60250000Y-27540000D03*
X60250000Y-30080000D03*
X72750000Y-25000000D03*
X72750000Y-27540000D03*
X72750000Y-30080000D03*
X35220000Y-27540000D03*
D16*
X22540000Y-26470000D02*
X22540000Y-21790000D01*
X22540000Y-21790000D02*
X23460000Y-20870000D01*
X23460000Y-20870000D02*
X39700000Y-20870000D01*
X40500000Y-21670000D02*
X40500000Y-27000000D01*
X39700000Y-20870000D02*
X40500000Y-21670000D01*
X39700000Y-20870000D02*
X52110000Y-20870000D01*
X52110000Y-20870000D02*
X53010000Y-21770000D01*
X53000000Y-21780000D02*
X53000000Y-27000000D01*
X53010000Y-21770000D02*
X53000000Y-21780000D01*
X52110000Y-20870000D02*
X64710000Y-20870000D01*
X64710000Y-20870000D02*
X65500000Y-21660000D01*
X65500000Y-21660000D02*
X65500000Y-27000000D01*
X78000000Y-21720000D02*
X78000000Y-27000000D01*
X64710000Y-20870000D02*
X77150000Y-20870000D01*
X77150000Y-20870000D02*
X78000000Y-21720000D01*
D17*
X55000000Y-28550000D02*
X55000000Y-27000000D01*
X39210000Y-28940000D02*
X54610000Y-28940000D01*
X38530000Y-29620000D02*
X39210000Y-28940000D01*
X54610000Y-28940000D02*
X55000000Y-28550000D01*
X38530000Y-34090000D02*
X38530000Y-29620000D01*
X74090000Y-33012370D02*
X74080000Y-33002370D01*
X74090000Y-34090000D02*
X74090000Y-33012370D01*
X74080000Y-33002370D02*
X74080000Y-30280000D01*
X74080000Y-30280000D02*
X74690000Y-29670000D01*
X74690000Y-29670000D02*
X81630000Y-29670000D01*
X82000000Y-29300000D02*
X82000000Y-27000000D01*
X81630000Y-29670000D02*
X82000000Y-29300000D01*
X66470000Y-31760000D02*
X66470000Y-34090000D01*
X66860000Y-31370000D02*
X66470000Y-31760000D01*
X68950000Y-31370000D02*
X66860000Y-31370000D01*
X69500000Y-27000000D02*
X69500000Y-30820000D01*
X69500000Y-30820000D02*
X68950000Y-31370000D01*
D18*
G36*
X22028998Y-21226201D02*
G01*
X22000000Y-21249999D01*
X21976202Y-21278997D01*
X21976201Y-21278998D01*
X21905026Y-21365724D01*
X21834454Y-21497754D01*
X21810857Y-21575546D01*
X21790998Y-21641014D01*
X21780986Y-21742667D01*
X21776324Y-21790000D01*
X21780001Y-21827332D01*
X21780000Y-24981928D01*
X21690000Y-24981928D01*
X21565518Y-24994188D01*
X21445820Y-25030498D01*
X21335506Y-25089463D01*
X21238815Y-25168815D01*
X21159463Y-25265506D01*
X21100498Y-25375820D01*
X21064188Y-25495518D01*
X21051928Y-25620000D01*
X21051928Y-27320000D01*
X21064188Y-27444482D01*
X21100498Y-27564180D01*
X21159463Y-27674494D01*
X21238815Y-27771185D01*
X21335506Y-27850537D01*
X21445820Y-27909502D01*
X21514687Y-27930393D01*
X21484866Y-27954866D01*
X21299294Y-28180986D01*
X21161401Y-28438966D01*
X21076487Y-28718889D01*
X21047815Y-29010000D01*
X21076487Y-29301111D01*
X21161401Y-29581034D01*
X21299294Y-29839014D01*
X21484866Y-30065134D01*
X21710986Y-30250706D01*
X21968966Y-30388599D01*
X22248889Y-30473513D01*
X22467050Y-30495000D01*
X22612950Y-30495000D01*
X22831111Y-30473513D01*
X23111034Y-30388599D01*
X23369014Y-30250706D01*
X23595134Y-30065134D01*
X23780706Y-29839014D01*
X23810000Y-29784209D01*
X23839294Y-29839014D01*
X24024866Y-30065134D01*
X24250986Y-30250706D01*
X24508966Y-30388599D01*
X24788889Y-30473513D01*
X25007050Y-30495000D01*
X25152950Y-30495000D01*
X25371111Y-30473513D01*
X25651034Y-30388599D01*
X25909014Y-30250706D01*
X26135134Y-30065134D01*
X26320706Y-29839014D01*
X26350000Y-29784209D01*
X26379294Y-29839014D01*
X26564866Y-30065134D01*
X26790986Y-30250706D01*
X27048966Y-30388599D01*
X27328889Y-30473513D01*
X27547050Y-30495000D01*
X27692950Y-30495000D01*
X27911111Y-30473513D01*
X28191034Y-30388599D01*
X28449014Y-30250706D01*
X28675134Y-30065134D01*
X28860706Y-29839014D01*
X28890000Y-29784209D01*
X28919294Y-29839014D01*
X29104866Y-30065134D01*
X29330986Y-30250706D01*
X29588966Y-30388599D01*
X29868889Y-30473513D01*
X30087050Y-30495000D01*
X30232950Y-30495000D01*
X30451111Y-30473513D01*
X30731034Y-30388599D01*
X30989014Y-30250706D01*
X31215134Y-30065134D01*
X31400706Y-29839014D01*
X31430000Y-29784209D01*
X31459294Y-29839014D01*
X31644866Y-30065134D01*
X31870986Y-30250706D01*
X32128966Y-30388599D01*
X32408889Y-30473513D01*
X32627050Y-30495000D01*
X32772950Y-30495000D01*
X32991111Y-30473513D01*
X33271034Y-30388599D01*
X33529014Y-30250706D01*
X33755134Y-30065134D01*
X33940706Y-29839014D01*
X34078599Y-29581034D01*
X34163513Y-29301111D01*
X34192185Y-29010000D01*
X34163513Y-28718889D01*
X34078599Y-28438966D01*
X33940706Y-28180986D01*
X33755134Y-27954866D01*
X33529014Y-27769294D01*
X33471244Y-27738416D01*
X33700269Y-27567588D01*
X33895178Y-27351355D01*
X34044157Y-27101252D01*
X34054527Y-27072017D01*
X37098090Y-27072017D01*
X37139078Y-27344133D01*
X37232364Y-27603023D01*
X37294344Y-27718980D01*
X37534435Y-27785960D01*
X38320395Y-27000000D01*
X37534435Y-26214040D01*
X37294344Y-26281020D01*
X37177244Y-26530048D01*
X37110977Y-26797135D01*
X37098090Y-27072017D01*
X34054527Y-27072017D01*
X34141481Y-26826891D01*
X34020814Y-26597000D01*
X32827000Y-26597000D01*
X32827000Y-26617000D01*
X32573000Y-26617000D01*
X32573000Y-26597000D01*
X32553000Y-26597000D01*
X32553000Y-26343000D01*
X32573000Y-26343000D01*
X32573000Y-25149845D01*
X32827000Y-25149845D01*
X32827000Y-26343000D01*
X34020814Y-26343000D01*
X34141481Y-26113109D01*
X34113573Y-26034435D01*
X37714040Y-26034435D01*
X38500000Y-26820395D01*
X39285960Y-26034435D01*
X39218980Y-25794344D01*
X38969952Y-25677244D01*
X38702865Y-25610977D01*
X38427983Y-25598090D01*
X38155867Y-25639078D01*
X37896977Y-25732364D01*
X37781020Y-25794344D01*
X37714040Y-26034435D01*
X34113573Y-26034435D01*
X34044157Y-25838748D01*
X33895178Y-25588645D01*
X33700269Y-25372412D01*
X33466920Y-25198359D01*
X33204099Y-25073175D01*
X33056890Y-25028524D01*
X32827000Y-25149845D01*
X32573000Y-25149845D01*
X32343110Y-25028524D01*
X32195901Y-25073175D01*
X31933080Y-25198359D01*
X31699731Y-25372412D01*
X31504822Y-25588645D01*
X31435201Y-25705523D01*
X31400706Y-25640986D01*
X31215134Y-25414866D01*
X30989014Y-25229294D01*
X30731034Y-25091401D01*
X30451111Y-25006487D01*
X30232950Y-24985000D01*
X30087050Y-24985000D01*
X29868889Y-25006487D01*
X29588966Y-25091401D01*
X29330986Y-25229294D01*
X29104866Y-25414866D01*
X28919294Y-25640986D01*
X28890000Y-25695791D01*
X28860706Y-25640986D01*
X28675134Y-25414866D01*
X28449014Y-25229294D01*
X28191034Y-25091401D01*
X27911111Y-25006487D01*
X27692950Y-24985000D01*
X27547050Y-24985000D01*
X27328889Y-25006487D01*
X27048966Y-25091401D01*
X26790986Y-25229294D01*
X26564866Y-25414866D01*
X26379294Y-25640986D01*
X26350000Y-25695791D01*
X26320706Y-25640986D01*
X26135134Y-25414866D01*
X25909014Y-25229294D01*
X25651034Y-25091401D01*
X25371111Y-25006487D01*
X25152950Y-24985000D01*
X25007050Y-24985000D01*
X24788889Y-25006487D01*
X24508966Y-25091401D01*
X24250986Y-25229294D01*
X24024866Y-25414866D01*
X24000393Y-25444687D01*
X23979502Y-25375820D01*
X23920537Y-25265506D01*
X23841185Y-25168815D01*
X23744494Y-25089463D01*
X23634180Y-25030498D01*
X23514482Y-24994188D01*
X23390000Y-24981928D01*
X23300000Y-24981928D01*
X23300000Y-22104802D01*
X23774802Y-21630000D01*
X39385199Y-21630000D01*
X39740000Y-21984802D01*
X39740001Y-25827659D01*
X39609465Y-25914880D01*
X39414880Y-26109465D01*
X39261995Y-26338273D01*
X39205895Y-26473710D01*
X38679605Y-27000000D01*
X39205895Y-27526290D01*
X39261995Y-27661727D01*
X39414880Y-27890535D01*
X39609465Y-28085120D01*
X39788878Y-28205000D01*
X39246094Y-28205000D01*
X39219883Y-28202418D01*
X39285960Y-27965565D01*
X38500000Y-27179605D01*
X37714040Y-27965565D01*
X37781020Y-28205656D01*
X38030048Y-28322756D01*
X38297135Y-28389023D01*
X38572017Y-28401910D01*
X38737439Y-28376993D01*
X38687762Y-28417762D01*
X38664746Y-28445807D01*
X38035808Y-29074746D01*
X38007763Y-29097762D01*
X37915914Y-29209680D01*
X37889188Y-29259681D01*
X37847664Y-29337367D01*
X37805635Y-29475915D01*
X37791444Y-29620000D01*
X37795001Y-29656115D01*
X37795000Y-32900954D01*
X37639465Y-33004880D01*
X37444880Y-33199465D01*
X37291995Y-33428273D01*
X37260000Y-33505515D01*
X37228005Y-33428273D01*
X37075120Y-33199465D01*
X36880535Y-33004880D01*
X36651727Y-32851995D01*
X36397490Y-32746686D01*
X36127592Y-32693000D01*
X35852408Y-32693000D01*
X35582510Y-32746686D01*
X35328273Y-32851995D01*
X35099465Y-33004880D01*
X34904880Y-33199465D01*
X34751995Y-33428273D01*
X34722308Y-33499943D01*
X34717636Y-33486977D01*
X34655656Y-33371020D01*
X34415565Y-33304040D01*
X33629605Y-34090000D01*
X34415565Y-34875960D01*
X34655656Y-34808980D01*
X34719485Y-34673240D01*
X34751995Y-34751727D01*
X34904880Y-34980535D01*
X35099465Y-35175120D01*
X35328273Y-35328005D01*
X35405515Y-35360000D01*
X35328273Y-35391995D01*
X35099465Y-35544880D01*
X34904880Y-35739465D01*
X34751995Y-35968273D01*
X34720000Y-36045515D01*
X34688005Y-35968273D01*
X34535120Y-35739465D01*
X34340535Y-35544880D01*
X34111727Y-35391995D01*
X34040057Y-35362308D01*
X34053023Y-35357636D01*
X34168980Y-35295656D01*
X34235960Y-35055565D01*
X33450000Y-34269605D01*
X32664040Y-35055565D01*
X32731020Y-35295656D01*
X32866760Y-35359485D01*
X32788273Y-35391995D01*
X32559465Y-35544880D01*
X32364880Y-35739465D01*
X32211995Y-35968273D01*
X32180000Y-36045515D01*
X32148005Y-35968273D01*
X31995120Y-35739465D01*
X31800535Y-35544880D01*
X31571727Y-35391995D01*
X31494485Y-35360000D01*
X31571727Y-35328005D01*
X31800535Y-35175120D01*
X31995120Y-34980535D01*
X32148005Y-34751727D01*
X32177692Y-34680057D01*
X32182364Y-34693023D01*
X32244344Y-34808980D01*
X32484435Y-34875960D01*
X33270395Y-34090000D01*
X32484435Y-33304040D01*
X32244344Y-33371020D01*
X32180515Y-33506760D01*
X32148005Y-33428273D01*
X31995120Y-33199465D01*
X31920090Y-33124435D01*
X32664040Y-33124435D01*
X33450000Y-33910395D01*
X34235960Y-33124435D01*
X34168980Y-32884344D01*
X33919952Y-32767244D01*
X33652865Y-32700977D01*
X33377983Y-32688090D01*
X33105867Y-32729078D01*
X32846977Y-32822364D01*
X32731020Y-32884344D01*
X32664040Y-33124435D01*
X31920090Y-33124435D01*
X31800535Y-33004880D01*
X31571727Y-32851995D01*
X31317490Y-32746686D01*
X31047592Y-32693000D01*
X30772408Y-32693000D01*
X30502510Y-32746686D01*
X30248273Y-32851995D01*
X30019465Y-33004880D01*
X29824880Y-33199465D01*
X29671995Y-33428273D01*
X29640000Y-33505515D01*
X29608005Y-33428273D01*
X29455120Y-33199465D01*
X29260535Y-33004880D01*
X29031727Y-32851995D01*
X28777490Y-32746686D01*
X28507592Y-32693000D01*
X28232408Y-32693000D01*
X27962510Y-32746686D01*
X27708273Y-32851995D01*
X27479465Y-33004880D01*
X27284880Y-33199465D01*
X27131995Y-33428273D01*
X27026686Y-33682510D01*
X26973000Y-33952408D01*
X26973000Y-34227592D01*
X27026686Y-34497490D01*
X27131995Y-34751727D01*
X27284880Y-34980535D01*
X27479465Y-35175120D01*
X27567465Y-35233920D01*
X27483518Y-35242188D01*
X27363820Y-35278498D01*
X27253506Y-35337463D01*
X27156815Y-35416815D01*
X27077463Y-35513506D01*
X27018498Y-35623820D01*
X26982188Y-35743518D01*
X26969928Y-35868000D01*
X26969928Y-37392000D01*
X26982188Y-37516482D01*
X27018498Y-37636180D01*
X27077463Y-37746494D01*
X27156815Y-37843185D01*
X27253506Y-37922537D01*
X27363820Y-37981502D01*
X27483518Y-38017812D01*
X27608000Y-38030072D01*
X29132000Y-38030072D01*
X29256482Y-38017812D01*
X29376180Y-37981502D01*
X29486494Y-37922537D01*
X29583185Y-37843185D01*
X29662537Y-37746494D01*
X29721502Y-37636180D01*
X29757812Y-37516482D01*
X29766080Y-37432535D01*
X29824880Y-37520535D01*
X30019465Y-37715120D01*
X30248273Y-37868005D01*
X30502510Y-37973314D01*
X30772408Y-38027000D01*
X31047592Y-38027000D01*
X31317490Y-37973314D01*
X31571727Y-37868005D01*
X31800535Y-37715120D01*
X31995120Y-37520535D01*
X32148005Y-37291727D01*
X32180000Y-37214485D01*
X32211995Y-37291727D01*
X32364880Y-37520535D01*
X32559465Y-37715120D01*
X32788273Y-37868005D01*
X33042510Y-37973314D01*
X33312408Y-38027000D01*
X33587592Y-38027000D01*
X33857490Y-37973314D01*
X34111727Y-37868005D01*
X34340535Y-37715120D01*
X34535120Y-37520535D01*
X34688005Y-37291727D01*
X34720000Y-37214485D01*
X34751995Y-37291727D01*
X34904880Y-37520535D01*
X35099465Y-37715120D01*
X35328273Y-37868005D01*
X35582510Y-37973314D01*
X35852408Y-38027000D01*
X36127592Y-38027000D01*
X36397490Y-37973314D01*
X36651727Y-37868005D01*
X36880535Y-37715120D01*
X37000090Y-37595565D01*
X37744040Y-37595565D01*
X37811020Y-37835656D01*
X38060048Y-37952756D01*
X38327135Y-38019023D01*
X38602017Y-38031910D01*
X38874133Y-37990922D01*
X39133023Y-37897636D01*
X39248980Y-37835656D01*
X39315960Y-37595565D01*
X38530000Y-36809605D01*
X37744040Y-37595565D01*
X37000090Y-37595565D01*
X37075120Y-37520535D01*
X37228005Y-37291727D01*
X37257692Y-37220057D01*
X37262364Y-37233023D01*
X37324344Y-37348980D01*
X37564435Y-37415960D01*
X38350395Y-36630000D01*
X37564435Y-35844040D01*
X37324344Y-35911020D01*
X37260515Y-36046760D01*
X37228005Y-35968273D01*
X37075120Y-35739465D01*
X36880535Y-35544880D01*
X36651727Y-35391995D01*
X36574485Y-35360000D01*
X36651727Y-35328005D01*
X36880535Y-35175120D01*
X37075120Y-34980535D01*
X37228005Y-34751727D01*
X37260000Y-34674485D01*
X37291995Y-34751727D01*
X37444880Y-34980535D01*
X37639465Y-35175120D01*
X37868273Y-35328005D01*
X37939943Y-35357692D01*
X37926977Y-35362364D01*
X37811020Y-35424344D01*
X37744040Y-35664435D01*
X38530000Y-36450395D01*
X39315960Y-35664435D01*
X39248980Y-35424344D01*
X39113240Y-35360515D01*
X39191727Y-35328005D01*
X39420535Y-35175120D01*
X39615120Y-34980535D01*
X39768005Y-34751727D01*
X39800000Y-34674485D01*
X39831995Y-34751727D01*
X39984880Y-34980535D01*
X40179465Y-35175120D01*
X40408273Y-35328005D01*
X40485515Y-35360000D01*
X40408273Y-35391995D01*
X40179465Y-35544880D01*
X39984880Y-35739465D01*
X39831995Y-35968273D01*
X39802308Y-36039943D01*
X39797636Y-36026977D01*
X39735656Y-35911020D01*
X39495565Y-35844040D01*
X38709605Y-36630000D01*
X39495565Y-37415960D01*
X39735656Y-37348980D01*
X39799485Y-37213240D01*
X39831995Y-37291727D01*
X39984880Y-37520535D01*
X40179465Y-37715120D01*
X40408273Y-37868005D01*
X40662510Y-37973314D01*
X40932408Y-38027000D01*
X41207592Y-38027000D01*
X41477490Y-37973314D01*
X41731727Y-37868005D01*
X41960535Y-37715120D01*
X42155120Y-37520535D01*
X42308005Y-37291727D01*
X42340000Y-37214485D01*
X42371995Y-37291727D01*
X42524880Y-37520535D01*
X42719465Y-37715120D01*
X42948273Y-37868005D01*
X43202510Y-37973314D01*
X43472408Y-38027000D01*
X43747592Y-38027000D01*
X44017490Y-37973314D01*
X44271727Y-37868005D01*
X44500535Y-37715120D01*
X44695120Y-37520535D01*
X44848005Y-37291727D01*
X44880000Y-37214485D01*
X44911995Y-37291727D01*
X45064880Y-37520535D01*
X45259465Y-37715120D01*
X45488273Y-37868005D01*
X45742510Y-37973314D01*
X46012408Y-38027000D01*
X46287592Y-38027000D01*
X46557490Y-37973314D01*
X46811727Y-37868005D01*
X47040535Y-37715120D01*
X47235120Y-37520535D01*
X47388005Y-37291727D01*
X47420000Y-37214485D01*
X47451995Y-37291727D01*
X47604880Y-37520535D01*
X47799465Y-37715120D01*
X48028273Y-37868005D01*
X48282510Y-37973314D01*
X48552408Y-38027000D01*
X48827592Y-38027000D01*
X49097490Y-37973314D01*
X49351727Y-37868005D01*
X49580535Y-37715120D01*
X49775120Y-37520535D01*
X49928005Y-37291727D01*
X49960000Y-37214485D01*
X49991995Y-37291727D01*
X50144880Y-37520535D01*
X50339465Y-37715120D01*
X50568273Y-37868005D01*
X50822510Y-37973314D01*
X51092408Y-38027000D01*
X51367592Y-38027000D01*
X51637490Y-37973314D01*
X51891727Y-37868005D01*
X52120535Y-37715120D01*
X52315120Y-37520535D01*
X52468005Y-37291727D01*
X52500000Y-37214485D01*
X52531995Y-37291727D01*
X52684880Y-37520535D01*
X52879465Y-37715120D01*
X53108273Y-37868005D01*
X53362510Y-37973314D01*
X53632408Y-38027000D01*
X53907592Y-38027000D01*
X54177490Y-37973314D01*
X54431727Y-37868005D01*
X54660535Y-37715120D01*
X54855120Y-37520535D01*
X55008005Y-37291727D01*
X55040000Y-37214485D01*
X55071995Y-37291727D01*
X55224880Y-37520535D01*
X55419465Y-37715120D01*
X55648273Y-37868005D01*
X55902510Y-37973314D01*
X56172408Y-38027000D01*
X56447592Y-38027000D01*
X56717490Y-37973314D01*
X56971727Y-37868005D01*
X57200535Y-37715120D01*
X57320090Y-37595565D01*
X58064040Y-37595565D01*
X58131020Y-37835656D01*
X58380048Y-37952756D01*
X58647135Y-38019023D01*
X58922017Y-38031910D01*
X59194133Y-37990922D01*
X59453023Y-37897636D01*
X59568980Y-37835656D01*
X59635960Y-37595565D01*
X58850000Y-36809605D01*
X58064040Y-37595565D01*
X57320090Y-37595565D01*
X57395120Y-37520535D01*
X57548005Y-37291727D01*
X57577692Y-37220057D01*
X57582364Y-37233023D01*
X57644344Y-37348980D01*
X57884435Y-37415960D01*
X58670395Y-36630000D01*
X57884435Y-35844040D01*
X57644344Y-35911020D01*
X57580515Y-36046760D01*
X57548005Y-35968273D01*
X57395120Y-35739465D01*
X57200535Y-35544880D01*
X56971727Y-35391995D01*
X56894485Y-35360000D01*
X56971727Y-35328005D01*
X57200535Y-35175120D01*
X57395120Y-34980535D01*
X57548005Y-34751727D01*
X57580000Y-34674485D01*
X57611995Y-34751727D01*
X57764880Y-34980535D01*
X57959465Y-35175120D01*
X58188273Y-35328005D01*
X58259943Y-35357692D01*
X58246977Y-35362364D01*
X58131020Y-35424344D01*
X58064040Y-35664435D01*
X58850000Y-36450395D01*
X59635960Y-35664435D01*
X59568980Y-35424344D01*
X59433240Y-35360515D01*
X59511727Y-35328005D01*
X59740535Y-35175120D01*
X59935120Y-34980535D01*
X60088005Y-34751727D01*
X60120000Y-34674485D01*
X60151995Y-34751727D01*
X60304880Y-34980535D01*
X60499465Y-35175120D01*
X60728273Y-35328005D01*
X60805515Y-35360000D01*
X60728273Y-35391995D01*
X60499465Y-35544880D01*
X60304880Y-35739465D01*
X60151995Y-35968273D01*
X60122308Y-36039943D01*
X60117636Y-36026977D01*
X60055656Y-35911020D01*
X59815565Y-35844040D01*
X59029605Y-36630000D01*
X59815565Y-37415960D01*
X60055656Y-37348980D01*
X60119485Y-37213240D01*
X60151995Y-37291727D01*
X60304880Y-37520535D01*
X60499465Y-37715120D01*
X60728273Y-37868005D01*
X60982510Y-37973314D01*
X61252408Y-38027000D01*
X61527592Y-38027000D01*
X61797490Y-37973314D01*
X62051727Y-37868005D01*
X62280535Y-37715120D01*
X62475120Y-37520535D01*
X62628005Y-37291727D01*
X62660000Y-37214485D01*
X62691995Y-37291727D01*
X62844880Y-37520535D01*
X63039465Y-37715120D01*
X63268273Y-37868005D01*
X63522510Y-37973314D01*
X63792408Y-38027000D01*
X64067592Y-38027000D01*
X64337490Y-37973314D01*
X64591727Y-37868005D01*
X64820535Y-37715120D01*
X65015120Y-37520535D01*
X65168005Y-37291727D01*
X65200000Y-37214485D01*
X65231995Y-37291727D01*
X65384880Y-37520535D01*
X65579465Y-37715120D01*
X65808273Y-37868005D01*
X66062510Y-37973314D01*
X66332408Y-38027000D01*
X66607592Y-38027000D01*
X66877490Y-37973314D01*
X67131727Y-37868005D01*
X67360535Y-37715120D01*
X67555120Y-37520535D01*
X67708005Y-37291727D01*
X67740000Y-37214485D01*
X67771995Y-37291727D01*
X67924880Y-37520535D01*
X68119465Y-37715120D01*
X68348273Y-37868005D01*
X68602510Y-37973314D01*
X68872408Y-38027000D01*
X69147592Y-38027000D01*
X69417490Y-37973314D01*
X69671727Y-37868005D01*
X69900535Y-37715120D01*
X70095120Y-37520535D01*
X70248005Y-37291727D01*
X70280000Y-37214485D01*
X70311995Y-37291727D01*
X70464880Y-37520535D01*
X70659465Y-37715120D01*
X70888273Y-37868005D01*
X71142510Y-37973314D01*
X71412408Y-38027000D01*
X71687592Y-38027000D01*
X71957490Y-37973314D01*
X72211727Y-37868005D01*
X72440535Y-37715120D01*
X72635120Y-37520535D01*
X72788005Y-37291727D01*
X72820000Y-37214485D01*
X72851995Y-37291727D01*
X73004880Y-37520535D01*
X73199465Y-37715120D01*
X73428273Y-37868005D01*
X73682510Y-37973314D01*
X73952408Y-38027000D01*
X74227592Y-38027000D01*
X74497490Y-37973314D01*
X74751727Y-37868005D01*
X74980535Y-37715120D01*
X75100090Y-37595565D01*
X75844040Y-37595565D01*
X75911020Y-37835656D01*
X76160048Y-37952756D01*
X76427135Y-38019023D01*
X76702017Y-38031910D01*
X76974133Y-37990922D01*
X77233023Y-37897636D01*
X77348980Y-37835656D01*
X77415960Y-37595565D01*
X76630000Y-36809605D01*
X75844040Y-37595565D01*
X75100090Y-37595565D01*
X75175120Y-37520535D01*
X75328005Y-37291727D01*
X75357692Y-37220057D01*
X75362364Y-37233023D01*
X75424344Y-37348980D01*
X75664435Y-37415960D01*
X76450395Y-36630000D01*
X76809605Y-36630000D01*
X77595565Y-37415960D01*
X77835656Y-37348980D01*
X77952756Y-37099952D01*
X78019023Y-36832865D01*
X78031910Y-36557983D01*
X77990922Y-36285867D01*
X77897636Y-36026977D01*
X77835656Y-35911020D01*
X77595565Y-35844040D01*
X76809605Y-36630000D01*
X76450395Y-36630000D01*
X75664435Y-35844040D01*
X75424344Y-35911020D01*
X75360515Y-36046760D01*
X75328005Y-35968273D01*
X75175120Y-35739465D01*
X74980535Y-35544880D01*
X74751727Y-35391995D01*
X74674485Y-35360000D01*
X74751727Y-35328005D01*
X74980535Y-35175120D01*
X75175120Y-34980535D01*
X75328005Y-34751727D01*
X75360000Y-34674485D01*
X75391995Y-34751727D01*
X75544880Y-34980535D01*
X75739465Y-35175120D01*
X75968273Y-35328005D01*
X76039943Y-35357692D01*
X76026977Y-35362364D01*
X75911020Y-35424344D01*
X75844040Y-35664435D01*
X76630000Y-36450395D01*
X77415960Y-35664435D01*
X77348980Y-35424344D01*
X77213240Y-35360515D01*
X77291727Y-35328005D01*
X77520535Y-35175120D01*
X77715120Y-34980535D01*
X77868005Y-34751727D01*
X77973314Y-34497490D01*
X78027000Y-34227592D01*
X78027000Y-33952408D01*
X77973314Y-33682510D01*
X77868005Y-33428273D01*
X77715120Y-33199465D01*
X77520535Y-33004880D01*
X77291727Y-32851995D01*
X77037490Y-32746686D01*
X76767592Y-32693000D01*
X76492408Y-32693000D01*
X76222510Y-32746686D01*
X75968273Y-32851995D01*
X75739465Y-33004880D01*
X75544880Y-33199465D01*
X75391995Y-33428273D01*
X75360000Y-33505515D01*
X75328005Y-33428273D01*
X75175120Y-33199465D01*
X74980535Y-33004880D01*
X74817060Y-32895649D01*
X74815000Y-32874732D01*
X74815000Y-30584446D01*
X74994447Y-30405000D01*
X81593895Y-30405000D01*
X81630000Y-30408556D01*
X81666105Y-30405000D01*
X81774085Y-30394365D01*
X81912633Y-30352337D01*
X82040320Y-30284087D01*
X82152238Y-30192238D01*
X82175259Y-30164187D01*
X82494192Y-29845254D01*
X82522237Y-29822238D01*
X82614087Y-29710320D01*
X82682337Y-29582633D01*
X82711877Y-29485253D01*
X82724365Y-29444086D01*
X82738556Y-29300001D01*
X82735000Y-29263896D01*
X82735000Y-28189045D01*
X82890535Y-28085120D01*
X83085120Y-27890535D01*
X83238005Y-27661727D01*
X83343314Y-27407490D01*
X83397000Y-27137592D01*
X83397000Y-26862408D01*
X83343314Y-26592510D01*
X83238005Y-26338273D01*
X83085120Y-26109465D01*
X82890535Y-25914880D01*
X82661727Y-25761995D01*
X82407490Y-25656686D01*
X82137592Y-25603000D01*
X81862408Y-25603000D01*
X81592510Y-25656686D01*
X81338273Y-25761995D01*
X81109465Y-25914880D01*
X81000000Y-26024345D01*
X80890535Y-25914880D01*
X80661727Y-25761995D01*
X80407490Y-25656686D01*
X80137592Y-25603000D01*
X79862408Y-25603000D01*
X79592510Y-25656686D01*
X79338273Y-25761995D01*
X79109465Y-25914880D01*
X79000000Y-26024345D01*
X78890535Y-25914880D01*
X78760000Y-25827659D01*
X78760000Y-21757333D01*
X78763677Y-21720000D01*
X78749003Y-21571014D01*
X78705546Y-21427753D01*
X78634974Y-21295724D01*
X78563799Y-21208997D01*
X78540001Y-21179999D01*
X78511004Y-21156202D01*
X78014801Y-20660000D01*
X84340001Y-20660000D01*
X84340000Y-33007519D01*
X84090464Y-32634061D01*
X83625939Y-32169536D01*
X83079715Y-31804561D01*
X82472784Y-31553162D01*
X81828469Y-31425000D01*
X81171531Y-31425000D01*
X80527216Y-31553162D01*
X79920285Y-31804561D01*
X79374061Y-32169536D01*
X78909536Y-32634061D01*
X78544561Y-33180285D01*
X78293162Y-33787216D01*
X78165000Y-34431531D01*
X78165000Y-35088469D01*
X78293162Y-35732784D01*
X78544561Y-36339715D01*
X78909536Y-36885939D01*
X79374061Y-37350464D01*
X79920285Y-37715439D01*
X80527216Y-37966838D01*
X81171531Y-38095000D01*
X81828469Y-38095000D01*
X82472784Y-37966838D01*
X83079715Y-37715439D01*
X83625939Y-37350464D01*
X84090464Y-36885939D01*
X84340000Y-36512482D01*
X84340000Y-38340000D01*
X20660000Y-38340000D01*
X20660000Y-36512482D01*
X20909536Y-36885939D01*
X21374061Y-37350464D01*
X21920285Y-37715439D01*
X22527216Y-37966838D01*
X23171531Y-38095000D01*
X23828469Y-38095000D01*
X24472784Y-37966838D01*
X25079715Y-37715439D01*
X25625939Y-37350464D01*
X26090464Y-36885939D01*
X26455439Y-36339715D01*
X26706838Y-35732784D01*
X26835000Y-35088469D01*
X26835000Y-34431531D01*
X26706838Y-33787216D01*
X26455439Y-33180285D01*
X26090464Y-32634061D01*
X25625939Y-32169536D01*
X25079715Y-31804561D01*
X24472784Y-31553162D01*
X23828469Y-31425000D01*
X23171531Y-31425000D01*
X22527216Y-31553162D01*
X21920285Y-31804561D01*
X21374061Y-32169536D01*
X20909536Y-32634061D01*
X20660000Y-33007518D01*
X20660000Y-20660000D01*
X22595198Y-20660000D01*
X22028998Y-21226201D01*
X22028998Y-21226201D01*
G37*
X22028998Y-21226201D02*
X22000000Y-21249999D01*
X21976202Y-21278997D01*
X21976201Y-21278998D01*
X21905026Y-21365724D01*
X21834454Y-21497754D01*
X21810857Y-21575546D01*
X21790998Y-21641014D01*
X21780986Y-21742667D01*
X21776324Y-21790000D01*
X21780001Y-21827332D01*
X21780000Y-24981928D01*
X21690000Y-24981928D01*
X21565518Y-24994188D01*
X21445820Y-25030498D01*
X21335506Y-25089463D01*
X21238815Y-25168815D01*
X21159463Y-25265506D01*
X21100498Y-25375820D01*
X21064188Y-25495518D01*
X21051928Y-25620000D01*
X21051928Y-27320000D01*
X21064188Y-27444482D01*
X21100498Y-27564180D01*
X21159463Y-27674494D01*
X21238815Y-27771185D01*
X21335506Y-27850537D01*
X21445820Y-27909502D01*
X21514687Y-27930393D01*
X21484866Y-27954866D01*
X21299294Y-28180986D01*
X21161401Y-28438966D01*
X21076487Y-28718889D01*
X21047815Y-29010000D01*
X21076487Y-29301111D01*
X21161401Y-29581034D01*
X21299294Y-29839014D01*
X21484866Y-30065134D01*
X21710986Y-30250706D01*
X21968966Y-30388599D01*
X22248889Y-30473513D01*
X22467050Y-30495000D01*
X22612950Y-30495000D01*
X22831111Y-30473513D01*
X23111034Y-30388599D01*
X23369014Y-30250706D01*
X23595134Y-30065134D01*
X23780706Y-29839014D01*
X23810000Y-29784209D01*
X23839294Y-29839014D01*
X24024866Y-30065134D01*
X24250986Y-30250706D01*
X24508966Y-30388599D01*
X24788889Y-30473513D01*
X25007050Y-30495000D01*
X25152950Y-30495000D01*
X25371111Y-30473513D01*
X25651034Y-30388599D01*
X25909014Y-30250706D01*
X26135134Y-30065134D01*
X26320706Y-29839014D01*
X26350000Y-29784209D01*
X26379294Y-29839014D01*
X26564866Y-30065134D01*
X26790986Y-30250706D01*
X27048966Y-30388599D01*
X27328889Y-30473513D01*
X27547050Y-30495000D01*
X27692950Y-30495000D01*
X27911111Y-30473513D01*
X28191034Y-30388599D01*
X28449014Y-30250706D01*
X28675134Y-30065134D01*
X28860706Y-29839014D01*
X28890000Y-29784209D01*
X28919294Y-29839014D01*
X29104866Y-30065134D01*
X29330986Y-30250706D01*
X29588966Y-30388599D01*
X29868889Y-30473513D01*
X30087050Y-30495000D01*
X30232950Y-30495000D01*
X30451111Y-30473513D01*
X30731034Y-30388599D01*
X30989014Y-30250706D01*
X31215134Y-30065134D01*
X31400706Y-29839014D01*
X31430000Y-29784209D01*
X31459294Y-29839014D01*
X31644866Y-30065134D01*
X31870986Y-30250706D01*
X32128966Y-30388599D01*
X32408889Y-30473513D01*
X32627050Y-30495000D01*
X32772950Y-30495000D01*
X32991111Y-30473513D01*
X33271034Y-30388599D01*
X33529014Y-30250706D01*
X33755134Y-30065134D01*
X33940706Y-29839014D01*
X34078599Y-29581034D01*
X34163513Y-29301111D01*
X34192185Y-29010000D01*
X34163513Y-28718889D01*
X34078599Y-28438966D01*
X33940706Y-28180986D01*
X33755134Y-27954866D01*
X33529014Y-27769294D01*
X33471244Y-27738416D01*
X33700269Y-27567588D01*
X33895178Y-27351355D01*
X34044157Y-27101252D01*
X34054527Y-27072017D01*
X37098090Y-27072017D01*
X37139078Y-27344133D01*
X37232364Y-27603023D01*
X37294344Y-27718980D01*
X37534435Y-27785960D01*
X38320395Y-27000000D01*
X37534435Y-26214040D01*
X37294344Y-26281020D01*
X37177244Y-26530048D01*
X37110977Y-26797135D01*
X37098090Y-27072017D01*
X34054527Y-27072017D01*
X34141481Y-26826891D01*
X34020814Y-26597000D01*
X32827000Y-26597000D01*
X32827000Y-26617000D01*
X32573000Y-26617000D01*
X32573000Y-26597000D01*
X32553000Y-26597000D01*
X32553000Y-26343000D01*
X32573000Y-26343000D01*
X32573000Y-25149845D01*
X32827000Y-25149845D01*
X32827000Y-26343000D01*
X34020814Y-26343000D01*
X34141481Y-26113109D01*
X34113573Y-26034435D01*
X37714040Y-26034435D01*
X38500000Y-26820395D01*
X39285960Y-26034435D01*
X39218980Y-25794344D01*
X38969952Y-25677244D01*
X38702865Y-25610977D01*
X38427983Y-25598090D01*
X38155867Y-25639078D01*
X37896977Y-25732364D01*
X37781020Y-25794344D01*
X37714040Y-26034435D01*
X34113573Y-26034435D01*
X34044157Y-25838748D01*
X33895178Y-25588645D01*
X33700269Y-25372412D01*
X33466920Y-25198359D01*
X33204099Y-25073175D01*
X33056890Y-25028524D01*
X32827000Y-25149845D01*
X32573000Y-25149845D01*
X32343110Y-25028524D01*
X32195901Y-25073175D01*
X31933080Y-25198359D01*
X31699731Y-25372412D01*
X31504822Y-25588645D01*
X31435201Y-25705523D01*
X31400706Y-25640986D01*
X31215134Y-25414866D01*
X30989014Y-25229294D01*
X30731034Y-25091401D01*
X30451111Y-25006487D01*
X30232950Y-24985000D01*
X30087050Y-24985000D01*
X29868889Y-25006487D01*
X29588966Y-25091401D01*
X29330986Y-25229294D01*
X29104866Y-25414866D01*
X28919294Y-25640986D01*
X28890000Y-25695791D01*
X28860706Y-25640986D01*
X28675134Y-25414866D01*
X28449014Y-25229294D01*
X28191034Y-25091401D01*
X27911111Y-25006487D01*
X27692950Y-24985000D01*
X27547050Y-24985000D01*
X27328889Y-25006487D01*
X27048966Y-25091401D01*
X26790986Y-25229294D01*
X26564866Y-25414866D01*
X26379294Y-25640986D01*
X26350000Y-25695791D01*
X26320706Y-25640986D01*
X26135134Y-25414866D01*
X25909014Y-25229294D01*
X25651034Y-25091401D01*
X25371111Y-25006487D01*
X25152950Y-24985000D01*
X25007050Y-24985000D01*
X24788889Y-25006487D01*
X24508966Y-25091401D01*
X24250986Y-25229294D01*
X24024866Y-25414866D01*
X24000393Y-25444687D01*
X23979502Y-25375820D01*
X23920537Y-25265506D01*
X23841185Y-25168815D01*
X23744494Y-25089463D01*
X23634180Y-25030498D01*
X23514482Y-24994188D01*
X23390000Y-24981928D01*
X23300000Y-24981928D01*
X23300000Y-22104802D01*
X23774802Y-21630000D01*
X39385199Y-21630000D01*
X39740000Y-21984802D01*
X39740001Y-25827659D01*
X39609465Y-25914880D01*
X39414880Y-26109465D01*
X39261995Y-26338273D01*
X39205895Y-26473710D01*
X38679605Y-27000000D01*
X39205895Y-27526290D01*
X39261995Y-27661727D01*
X39414880Y-27890535D01*
X39609465Y-28085120D01*
X39788878Y-28205000D01*
X39246094Y-28205000D01*
X39219883Y-28202418D01*
X39285960Y-27965565D01*
X38500000Y-27179605D01*
X37714040Y-27965565D01*
X37781020Y-28205656D01*
X38030048Y-28322756D01*
X38297135Y-28389023D01*
X38572017Y-28401910D01*
X38737439Y-28376993D01*
X38687762Y-28417762D01*
X38664746Y-28445807D01*
X38035808Y-29074746D01*
X38007763Y-29097762D01*
X37915914Y-29209680D01*
X37889188Y-29259681D01*
X37847664Y-29337367D01*
X37805635Y-29475915D01*
X37791444Y-29620000D01*
X37795001Y-29656115D01*
X37795000Y-32900954D01*
X37639465Y-33004880D01*
X37444880Y-33199465D01*
X37291995Y-33428273D01*
X37260000Y-33505515D01*
X37228005Y-33428273D01*
X37075120Y-33199465D01*
X36880535Y-33004880D01*
X36651727Y-32851995D01*
X36397490Y-32746686D01*
X36127592Y-32693000D01*
X35852408Y-32693000D01*
X35582510Y-32746686D01*
X35328273Y-32851995D01*
X35099465Y-33004880D01*
X34904880Y-33199465D01*
X34751995Y-33428273D01*
X34722308Y-33499943D01*
X34717636Y-33486977D01*
X34655656Y-33371020D01*
X34415565Y-33304040D01*
X33629605Y-34090000D01*
X34415565Y-34875960D01*
X34655656Y-34808980D01*
X34719485Y-34673240D01*
X34751995Y-34751727D01*
X34904880Y-34980535D01*
X35099465Y-35175120D01*
X35328273Y-35328005D01*
X35405515Y-35360000D01*
X35328273Y-35391995D01*
X35099465Y-35544880D01*
X34904880Y-35739465D01*
X34751995Y-35968273D01*
X34720000Y-36045515D01*
X34688005Y-35968273D01*
X34535120Y-35739465D01*
X34340535Y-35544880D01*
X34111727Y-35391995D01*
X34040057Y-35362308D01*
X34053023Y-35357636D01*
X34168980Y-35295656D01*
X34235960Y-35055565D01*
X33450000Y-34269605D01*
X32664040Y-35055565D01*
X32731020Y-35295656D01*
X32866760Y-35359485D01*
X32788273Y-35391995D01*
X32559465Y-35544880D01*
X32364880Y-35739465D01*
X32211995Y-35968273D01*
X32180000Y-36045515D01*
X32148005Y-35968273D01*
X31995120Y-35739465D01*
X31800535Y-35544880D01*
X31571727Y-35391995D01*
X31494485Y-35360000D01*
X31571727Y-35328005D01*
X31800535Y-35175120D01*
X31995120Y-34980535D01*
X32148005Y-34751727D01*
X32177692Y-34680057D01*
X32182364Y-34693023D01*
X32244344Y-34808980D01*
X32484435Y-34875960D01*
X33270395Y-34090000D01*
X32484435Y-33304040D01*
X32244344Y-33371020D01*
X32180515Y-33506760D01*
X32148005Y-33428273D01*
X31995120Y-33199465D01*
X31920090Y-33124435D01*
X32664040Y-33124435D01*
X33450000Y-33910395D01*
X34235960Y-33124435D01*
X34168980Y-32884344D01*
X33919952Y-32767244D01*
X33652865Y-32700977D01*
X33377983Y-32688090D01*
X33105867Y-32729078D01*
X32846977Y-32822364D01*
X32731020Y-32884344D01*
X32664040Y-33124435D01*
X31920090Y-33124435D01*
X31800535Y-33004880D01*
X31571727Y-32851995D01*
X31317490Y-32746686D01*
X31047592Y-32693000D01*
X30772408Y-32693000D01*
X30502510Y-32746686D01*
X30248273Y-32851995D01*
X30019465Y-33004880D01*
X29824880Y-33199465D01*
X29671995Y-33428273D01*
X29640000Y-33505515D01*
X29608005Y-33428273D01*
X29455120Y-33199465D01*
X29260535Y-33004880D01*
X29031727Y-32851995D01*
X28777490Y-32746686D01*
X28507592Y-32693000D01*
X28232408Y-32693000D01*
X27962510Y-32746686D01*
X27708273Y-32851995D01*
X27479465Y-33004880D01*
X27284880Y-33199465D01*
X27131995Y-33428273D01*
X27026686Y-33682510D01*
X26973000Y-33952408D01*
X26973000Y-34227592D01*
X27026686Y-34497490D01*
X27131995Y-34751727D01*
X27284880Y-34980535D01*
X27479465Y-35175120D01*
X27567465Y-35233920D01*
X27483518Y-35242188D01*
X27363820Y-35278498D01*
X27253506Y-35337463D01*
X27156815Y-35416815D01*
X27077463Y-35513506D01*
X27018498Y-35623820D01*
X26982188Y-35743518D01*
X26969928Y-35868000D01*
X26969928Y-37392000D01*
X26982188Y-37516482D01*
X27018498Y-37636180D01*
X27077463Y-37746494D01*
X27156815Y-37843185D01*
X27253506Y-37922537D01*
X27363820Y-37981502D01*
X27483518Y-38017812D01*
X27608000Y-38030072D01*
X29132000Y-38030072D01*
X29256482Y-38017812D01*
X29376180Y-37981502D01*
X29486494Y-37922537D01*
X29583185Y-37843185D01*
X29662537Y-37746494D01*
X29721502Y-37636180D01*
X29757812Y-37516482D01*
X29766080Y-37432535D01*
X29824880Y-37520535D01*
X30019465Y-37715120D01*
X30248273Y-37868005D01*
X30502510Y-37973314D01*
X30772408Y-38027000D01*
X31047592Y-38027000D01*
X31317490Y-37973314D01*
X31571727Y-37868005D01*
X31800535Y-37715120D01*
X31995120Y-37520535D01*
X32148005Y-37291727D01*
X32180000Y-37214485D01*
X32211995Y-37291727D01*
X32364880Y-37520535D01*
X32559465Y-37715120D01*
X32788273Y-37868005D01*
X33042510Y-37973314D01*
X33312408Y-38027000D01*
X33587592Y-38027000D01*
X33857490Y-37973314D01*
X34111727Y-37868005D01*
X34340535Y-37715120D01*
X34535120Y-37520535D01*
X34688005Y-37291727D01*
X34720000Y-37214485D01*
X34751995Y-37291727D01*
X34904880Y-37520535D01*
X35099465Y-37715120D01*
X35328273Y-37868005D01*
X35582510Y-37973314D01*
X35852408Y-38027000D01*
X36127592Y-38027000D01*
X36397490Y-37973314D01*
X36651727Y-37868005D01*
X36880535Y-37715120D01*
X37000090Y-37595565D01*
X37744040Y-37595565D01*
X37811020Y-37835656D01*
X38060048Y-37952756D01*
X38327135Y-38019023D01*
X38602017Y-38031910D01*
X38874133Y-37990922D01*
X39133023Y-37897636D01*
X39248980Y-37835656D01*
X39315960Y-37595565D01*
X38530000Y-36809605D01*
X37744040Y-37595565D01*
X37000090Y-37595565D01*
X37075120Y-37520535D01*
X37228005Y-37291727D01*
X37257692Y-37220057D01*
X37262364Y-37233023D01*
X37324344Y-37348980D01*
X37564435Y-37415960D01*
X38350395Y-36630000D01*
X37564435Y-35844040D01*
X37324344Y-35911020D01*
X37260515Y-36046760D01*
X37228005Y-35968273D01*
X37075120Y-35739465D01*
X36880535Y-35544880D01*
X36651727Y-35391995D01*
X36574485Y-35360000D01*
X36651727Y-35328005D01*
X36880535Y-35175120D01*
X37075120Y-34980535D01*
X37228005Y-34751727D01*
X37260000Y-34674485D01*
X37291995Y-34751727D01*
X37444880Y-34980535D01*
X37639465Y-35175120D01*
X37868273Y-35328005D01*
X37939943Y-35357692D01*
X37926977Y-35362364D01*
X37811020Y-35424344D01*
X37744040Y-35664435D01*
X38530000Y-36450395D01*
X39315960Y-35664435D01*
X39248980Y-35424344D01*
X39113240Y-35360515D01*
X39191727Y-35328005D01*
X39420535Y-35175120D01*
X39615120Y-34980535D01*
X39768005Y-34751727D01*
X39800000Y-34674485D01*
X39831995Y-34751727D01*
X39984880Y-34980535D01*
X40179465Y-35175120D01*
X40408273Y-35328005D01*
X40485515Y-35360000D01*
X40408273Y-35391995D01*
X40179465Y-35544880D01*
X39984880Y-35739465D01*
X39831995Y-35968273D01*
X39802308Y-36039943D01*
X39797636Y-36026977D01*
X39735656Y-35911020D01*
X39495565Y-35844040D01*
X38709605Y-36630000D01*
X39495565Y-37415960D01*
X39735656Y-37348980D01*
X39799485Y-37213240D01*
X39831995Y-37291727D01*
X39984880Y-37520535D01*
X40179465Y-37715120D01*
X40408273Y-37868005D01*
X40662510Y-37973314D01*
X40932408Y-38027000D01*
X41207592Y-38027000D01*
X41477490Y-37973314D01*
X41731727Y-37868005D01*
X41960535Y-37715120D01*
X42155120Y-37520535D01*
X42308005Y-37291727D01*
X42340000Y-37214485D01*
X42371995Y-37291727D01*
X42524880Y-37520535D01*
X42719465Y-37715120D01*
X42948273Y-37868005D01*
X43202510Y-37973314D01*
X43472408Y-38027000D01*
X43747592Y-38027000D01*
X44017490Y-37973314D01*
X44271727Y-37868005D01*
X44500535Y-37715120D01*
X44695120Y-37520535D01*
X44848005Y-37291727D01*
X44880000Y-37214485D01*
X44911995Y-37291727D01*
X45064880Y-37520535D01*
X45259465Y-37715120D01*
X45488273Y-37868005D01*
X45742510Y-37973314D01*
X46012408Y-38027000D01*
X46287592Y-38027000D01*
X46557490Y-37973314D01*
X46811727Y-37868005D01*
X47040535Y-37715120D01*
X47235120Y-37520535D01*
X47388005Y-37291727D01*
X47420000Y-37214485D01*
X47451995Y-37291727D01*
X47604880Y-37520535D01*
X47799465Y-37715120D01*
X48028273Y-37868005D01*
X48282510Y-37973314D01*
X48552408Y-38027000D01*
X48827592Y-38027000D01*
X49097490Y-37973314D01*
X49351727Y-37868005D01*
X49580535Y-37715120D01*
X49775120Y-37520535D01*
X49928005Y-37291727D01*
X49960000Y-37214485D01*
X49991995Y-37291727D01*
X50144880Y-37520535D01*
X50339465Y-37715120D01*
X50568273Y-37868005D01*
X50822510Y-37973314D01*
X51092408Y-38027000D01*
X51367592Y-38027000D01*
X51637490Y-37973314D01*
X51891727Y-37868005D01*
X52120535Y-37715120D01*
X52315120Y-37520535D01*
X52468005Y-37291727D01*
X52500000Y-37214485D01*
X52531995Y-37291727D01*
X52684880Y-37520535D01*
X52879465Y-37715120D01*
X53108273Y-37868005D01*
X53362510Y-37973314D01*
X53632408Y-38027000D01*
X53907592Y-38027000D01*
X54177490Y-37973314D01*
X54431727Y-37868005D01*
X54660535Y-37715120D01*
X54855120Y-37520535D01*
X55008005Y-37291727D01*
X55040000Y-37214485D01*
X55071995Y-37291727D01*
X55224880Y-37520535D01*
X55419465Y-37715120D01*
X55648273Y-37868005D01*
X55902510Y-37973314D01*
X56172408Y-38027000D01*
X56447592Y-38027000D01*
X56717490Y-37973314D01*
X56971727Y-37868005D01*
X57200535Y-37715120D01*
X57320090Y-37595565D01*
X58064040Y-37595565D01*
X58131020Y-37835656D01*
X58380048Y-37952756D01*
X58647135Y-38019023D01*
X58922017Y-38031910D01*
X59194133Y-37990922D01*
X59453023Y-37897636D01*
X59568980Y-37835656D01*
X59635960Y-37595565D01*
X58850000Y-36809605D01*
X58064040Y-37595565D01*
X57320090Y-37595565D01*
X57395120Y-37520535D01*
X57548005Y-37291727D01*
X57577692Y-37220057D01*
X57582364Y-37233023D01*
X57644344Y-37348980D01*
X57884435Y-37415960D01*
X58670395Y-36630000D01*
X57884435Y-35844040D01*
X57644344Y-35911020D01*
X57580515Y-36046760D01*
X57548005Y-35968273D01*
X57395120Y-35739465D01*
X57200535Y-35544880D01*
X56971727Y-35391995D01*
X56894485Y-35360000D01*
X56971727Y-35328005D01*
X57200535Y-35175120D01*
X57395120Y-34980535D01*
X57548005Y-34751727D01*
X57580000Y-34674485D01*
X57611995Y-34751727D01*
X57764880Y-34980535D01*
X57959465Y-35175120D01*
X58188273Y-35328005D01*
X58259943Y-35357692D01*
X58246977Y-35362364D01*
X58131020Y-35424344D01*
X58064040Y-35664435D01*
X58850000Y-36450395D01*
X59635960Y-35664435D01*
X59568980Y-35424344D01*
X59433240Y-35360515D01*
X59511727Y-35328005D01*
X59740535Y-35175120D01*
X59935120Y-34980535D01*
X60088005Y-34751727D01*
X60120000Y-34674485D01*
X60151995Y-34751727D01*
X60304880Y-34980535D01*
X60499465Y-35175120D01*
X60728273Y-35328005D01*
X60805515Y-35360000D01*
X60728273Y-35391995D01*
X60499465Y-35544880D01*
X60304880Y-35739465D01*
X60151995Y-35968273D01*
X60122308Y-36039943D01*
X60117636Y-36026977D01*
X60055656Y-35911020D01*
X59815565Y-35844040D01*
X59029605Y-36630000D01*
X59815565Y-37415960D01*
X60055656Y-37348980D01*
X60119485Y-37213240D01*
X60151995Y-37291727D01*
X60304880Y-37520535D01*
X60499465Y-37715120D01*
X60728273Y-37868005D01*
X60982510Y-37973314D01*
X61252408Y-38027000D01*
X61527592Y-38027000D01*
X61797490Y-37973314D01*
X62051727Y-37868005D01*
X62280535Y-37715120D01*
X62475120Y-37520535D01*
X62628005Y-37291727D01*
X62660000Y-37214485D01*
X62691995Y-37291727D01*
X62844880Y-37520535D01*
X63039465Y-37715120D01*
X63268273Y-37868005D01*
X63522510Y-37973314D01*
X63792408Y-38027000D01*
X64067592Y-38027000D01*
X64337490Y-37973314D01*
X64591727Y-37868005D01*
X64820535Y-37715120D01*
X65015120Y-37520535D01*
X65168005Y-37291727D01*
X65200000Y-37214485D01*
X65231995Y-37291727D01*
X65384880Y-37520535D01*
X65579465Y-37715120D01*
X65808273Y-37868005D01*
X66062510Y-37973314D01*
X66332408Y-38027000D01*
X66607592Y-38027000D01*
X66877490Y-37973314D01*
X67131727Y-37868005D01*
X67360535Y-37715120D01*
X67555120Y-37520535D01*
X67708005Y-37291727D01*
X67740000Y-37214485D01*
X67771995Y-37291727D01*
X67924880Y-37520535D01*
X68119465Y-37715120D01*
X68348273Y-37868005D01*
X68602510Y-37973314D01*
X68872408Y-38027000D01*
X69147592Y-38027000D01*
X69417490Y-37973314D01*
X69671727Y-37868005D01*
X69900535Y-37715120D01*
X70095120Y-37520535D01*
X70248005Y-37291727D01*
X70280000Y-37214485D01*
X70311995Y-37291727D01*
X70464880Y-37520535D01*
X70659465Y-37715120D01*
X70888273Y-37868005D01*
X71142510Y-37973314D01*
X71412408Y-38027000D01*
X71687592Y-38027000D01*
X71957490Y-37973314D01*
X72211727Y-37868005D01*
X72440535Y-37715120D01*
X72635120Y-37520535D01*
X72788005Y-37291727D01*
X72820000Y-37214485D01*
X72851995Y-37291727D01*
X73004880Y-37520535D01*
X73199465Y-37715120D01*
X73428273Y-37868005D01*
X73682510Y-37973314D01*
X73952408Y-38027000D01*
X74227592Y-38027000D01*
X74497490Y-37973314D01*
X74751727Y-37868005D01*
X74980535Y-37715120D01*
X75100090Y-37595565D01*
X75844040Y-37595565D01*
X75911020Y-37835656D01*
X76160048Y-37952756D01*
X76427135Y-38019023D01*
X76702017Y-38031910D01*
X76974133Y-37990922D01*
X77233023Y-37897636D01*
X77348980Y-37835656D01*
X77415960Y-37595565D01*
X76630000Y-36809605D01*
X75844040Y-37595565D01*
X75100090Y-37595565D01*
X75175120Y-37520535D01*
X75328005Y-37291727D01*
X75357692Y-37220057D01*
X75362364Y-37233023D01*
X75424344Y-37348980D01*
X75664435Y-37415960D01*
X76450395Y-36630000D01*
X76809605Y-36630000D01*
X77595565Y-37415960D01*
X77835656Y-37348980D01*
X77952756Y-37099952D01*
X78019023Y-36832865D01*
X78031910Y-36557983D01*
X77990922Y-36285867D01*
X77897636Y-36026977D01*
X77835656Y-35911020D01*
X77595565Y-35844040D01*
X76809605Y-36630000D01*
X76450395Y-36630000D01*
X75664435Y-35844040D01*
X75424344Y-35911020D01*
X75360515Y-36046760D01*
X75328005Y-35968273D01*
X75175120Y-35739465D01*
X74980535Y-35544880D01*
X74751727Y-35391995D01*
X74674485Y-35360000D01*
X74751727Y-35328005D01*
X74980535Y-35175120D01*
X75175120Y-34980535D01*
X75328005Y-34751727D01*
X75360000Y-34674485D01*
X75391995Y-34751727D01*
X75544880Y-34980535D01*
X75739465Y-35175120D01*
X75968273Y-35328005D01*
X76039943Y-35357692D01*
X76026977Y-35362364D01*
X75911020Y-35424344D01*
X75844040Y-35664435D01*
X76630000Y-36450395D01*
X77415960Y-35664435D01*
X77348980Y-35424344D01*
X77213240Y-35360515D01*
X77291727Y-35328005D01*
X77520535Y-35175120D01*
X77715120Y-34980535D01*
X77868005Y-34751727D01*
X77973314Y-34497490D01*
X78027000Y-34227592D01*
X78027000Y-33952408D01*
X77973314Y-33682510D01*
X77868005Y-33428273D01*
X77715120Y-33199465D01*
X77520535Y-33004880D01*
X77291727Y-32851995D01*
X77037490Y-32746686D01*
X76767592Y-32693000D01*
X76492408Y-32693000D01*
X76222510Y-32746686D01*
X75968273Y-32851995D01*
X75739465Y-33004880D01*
X75544880Y-33199465D01*
X75391995Y-33428273D01*
X75360000Y-33505515D01*
X75328005Y-33428273D01*
X75175120Y-33199465D01*
X74980535Y-33004880D01*
X74817060Y-32895649D01*
X74815000Y-32874732D01*
X74815000Y-30584446D01*
X74994447Y-30405000D01*
X81593895Y-30405000D01*
X81630000Y-30408556D01*
X81666105Y-30405000D01*
X81774085Y-30394365D01*
X81912633Y-30352337D01*
X82040320Y-30284087D01*
X82152238Y-30192238D01*
X82175259Y-30164187D01*
X82494192Y-29845254D01*
X82522237Y-29822238D01*
X82614087Y-29710320D01*
X82682337Y-29582633D01*
X82711877Y-29485253D01*
X82724365Y-29444086D01*
X82738556Y-29300001D01*
X82735000Y-29263896D01*
X82735000Y-28189045D01*
X82890535Y-28085120D01*
X83085120Y-27890535D01*
X83238005Y-27661727D01*
X83343314Y-27407490D01*
X83397000Y-27137592D01*
X83397000Y-26862408D01*
X83343314Y-26592510D01*
X83238005Y-26338273D01*
X83085120Y-26109465D01*
X82890535Y-25914880D01*
X82661727Y-25761995D01*
X82407490Y-25656686D01*
X82137592Y-25603000D01*
X81862408Y-25603000D01*
X81592510Y-25656686D01*
X81338273Y-25761995D01*
X81109465Y-25914880D01*
X81000000Y-26024345D01*
X80890535Y-25914880D01*
X80661727Y-25761995D01*
X80407490Y-25656686D01*
X80137592Y-25603000D01*
X79862408Y-25603000D01*
X79592510Y-25656686D01*
X79338273Y-25761995D01*
X79109465Y-25914880D01*
X79000000Y-26024345D01*
X78890535Y-25914880D01*
X78760000Y-25827659D01*
X78760000Y-21757333D01*
X78763677Y-21720000D01*
X78749003Y-21571014D01*
X78705546Y-21427753D01*
X78634974Y-21295724D01*
X78563799Y-21208997D01*
X78540001Y-21179999D01*
X78511004Y-21156202D01*
X78014801Y-20660000D01*
X84340001Y-20660000D01*
X84340000Y-33007519D01*
X84090464Y-32634061D01*
X83625939Y-32169536D01*
X83079715Y-31804561D01*
X82472784Y-31553162D01*
X81828469Y-31425000D01*
X81171531Y-31425000D01*
X80527216Y-31553162D01*
X79920285Y-31804561D01*
X79374061Y-32169536D01*
X78909536Y-32634061D01*
X78544561Y-33180285D01*
X78293162Y-33787216D01*
X78165000Y-34431531D01*
X78165000Y-35088469D01*
X78293162Y-35732784D01*
X78544561Y-36339715D01*
X78909536Y-36885939D01*
X79374061Y-37350464D01*
X79920285Y-37715439D01*
X80527216Y-37966838D01*
X81171531Y-38095000D01*
X81828469Y-38095000D01*
X82472784Y-37966838D01*
X83079715Y-37715439D01*
X83625939Y-37350464D01*
X84090464Y-36885939D01*
X84340000Y-36512482D01*
X84340000Y-38340000D01*
X20660000Y-38340000D01*
X20660000Y-36512482D01*
X20909536Y-36885939D01*
X21374061Y-37350464D01*
X21920285Y-37715439D01*
X22527216Y-37966838D01*
X23171531Y-38095000D01*
X23828469Y-38095000D01*
X24472784Y-37966838D01*
X25079715Y-37715439D01*
X25625939Y-37350464D01*
X26090464Y-36885939D01*
X26455439Y-36339715D01*
X26706838Y-35732784D01*
X26835000Y-35088469D01*
X26835000Y-34431531D01*
X26706838Y-33787216D01*
X26455439Y-33180285D01*
X26090464Y-32634061D01*
X25625939Y-32169536D01*
X25079715Y-31804561D01*
X24472784Y-31553162D01*
X23828469Y-31425000D01*
X23171531Y-31425000D01*
X22527216Y-31553162D01*
X21920285Y-31804561D01*
X21374061Y-32169536D01*
X20909536Y-32634061D01*
X20660000Y-33007518D01*
X20660000Y-20660000D01*
X22595198Y-20660000D01*
X22028998Y-21226201D01*
G36*
X64740000Y-21974802D02*
G01*
X64740001Y-25827659D01*
X64609465Y-25914880D01*
X64414880Y-26109465D01*
X64261995Y-26338273D01*
X64205895Y-26473710D01*
X63679605Y-27000000D01*
X64205895Y-27526290D01*
X64261995Y-27661727D01*
X64414880Y-27890535D01*
X64609465Y-28085120D01*
X64838273Y-28238005D01*
X65092510Y-28343314D01*
X65362408Y-28397000D01*
X65637592Y-28397000D01*
X65907490Y-28343314D01*
X66161727Y-28238005D01*
X66390535Y-28085120D01*
X66500000Y-27975655D01*
X66609465Y-28085120D01*
X66838273Y-28238005D01*
X67092510Y-28343314D01*
X67362408Y-28397000D01*
X67637592Y-28397000D01*
X67907490Y-28343314D01*
X68161727Y-28238005D01*
X68390535Y-28085120D01*
X68500000Y-27975655D01*
X68609465Y-28085120D01*
X68765000Y-28189046D01*
X68765001Y-30515552D01*
X68645554Y-30635000D01*
X66896094Y-30635000D01*
X66859999Y-30631445D01*
X66823904Y-30635000D01*
X66823895Y-30635000D01*
X66715915Y-30645635D01*
X66577367Y-30687663D01*
X66449680Y-30755913D01*
X66337762Y-30847762D01*
X66314741Y-30875813D01*
X65975808Y-31214746D01*
X65947762Y-31237763D01*
X65855913Y-31349681D01*
X65787663Y-31477368D01*
X65780089Y-31502337D01*
X65745635Y-31615915D01*
X65731444Y-31760000D01*
X65735000Y-31796105D01*
X65735000Y-32900954D01*
X65579465Y-33004880D01*
X65384880Y-33199465D01*
X65231995Y-33428273D01*
X65202308Y-33499943D01*
X65197636Y-33486977D01*
X65135656Y-33371020D01*
X64895565Y-33304040D01*
X64109605Y-34090000D01*
X64895565Y-34875960D01*
X65135656Y-34808980D01*
X65199485Y-34673240D01*
X65231995Y-34751727D01*
X65384880Y-34980535D01*
X65579465Y-35175120D01*
X65808273Y-35328005D01*
X65885515Y-35360000D01*
X65808273Y-35391995D01*
X65579465Y-35544880D01*
X65384880Y-35739465D01*
X65231995Y-35968273D01*
X65200000Y-36045515D01*
X65168005Y-35968273D01*
X65015120Y-35739465D01*
X64820535Y-35544880D01*
X64591727Y-35391995D01*
X64520057Y-35362308D01*
X64533023Y-35357636D01*
X64648980Y-35295656D01*
X64715960Y-35055565D01*
X63930000Y-34269605D01*
X63144040Y-35055565D01*
X63211020Y-35295656D01*
X63346760Y-35359485D01*
X63268273Y-35391995D01*
X63039465Y-35544880D01*
X62844880Y-35739465D01*
X62691995Y-35968273D01*
X62660000Y-36045515D01*
X62628005Y-35968273D01*
X62475120Y-35739465D01*
X62280535Y-35544880D01*
X62051727Y-35391995D01*
X61974485Y-35360000D01*
X62051727Y-35328005D01*
X62280535Y-35175120D01*
X62475120Y-34980535D01*
X62628005Y-34751727D01*
X62657692Y-34680057D01*
X62662364Y-34693023D01*
X62724344Y-34808980D01*
X62964435Y-34875960D01*
X63750395Y-34090000D01*
X62964435Y-33304040D01*
X62724344Y-33371020D01*
X62660515Y-33506760D01*
X62628005Y-33428273D01*
X62475120Y-33199465D01*
X62400090Y-33124435D01*
X63144040Y-33124435D01*
X63930000Y-33910395D01*
X64715960Y-33124435D01*
X64648980Y-32884344D01*
X64399952Y-32767244D01*
X64132865Y-32700977D01*
X63857983Y-32688090D01*
X63585867Y-32729078D01*
X63326977Y-32822364D01*
X63211020Y-32884344D01*
X63144040Y-33124435D01*
X62400090Y-33124435D01*
X62280535Y-33004880D01*
X62051727Y-32851995D01*
X61797490Y-32746686D01*
X61527592Y-32693000D01*
X61252408Y-32693000D01*
X60982510Y-32746686D01*
X60728273Y-32851995D01*
X60499465Y-33004880D01*
X60304880Y-33199465D01*
X60151995Y-33428273D01*
X60120000Y-33505515D01*
X60088005Y-33428273D01*
X59935120Y-33199465D01*
X59740535Y-33004880D01*
X59511727Y-32851995D01*
X59257490Y-32746686D01*
X58987592Y-32693000D01*
X58712408Y-32693000D01*
X58442510Y-32746686D01*
X58188273Y-32851995D01*
X57959465Y-33004880D01*
X57764880Y-33199465D01*
X57611995Y-33428273D01*
X57580000Y-33505515D01*
X57548005Y-33428273D01*
X57395120Y-33199465D01*
X57200535Y-33004880D01*
X56971727Y-32851995D01*
X56717490Y-32746686D01*
X56447592Y-32693000D01*
X56172408Y-32693000D01*
X55902510Y-32746686D01*
X55648273Y-32851995D01*
X55419465Y-33004880D01*
X55224880Y-33199465D01*
X55071995Y-33428273D01*
X55040000Y-33505515D01*
X55008005Y-33428273D01*
X54855120Y-33199465D01*
X54660535Y-33004880D01*
X54431727Y-32851995D01*
X54177490Y-32746686D01*
X53907592Y-32693000D01*
X53632408Y-32693000D01*
X53362510Y-32746686D01*
X53108273Y-32851995D01*
X52879465Y-33004880D01*
X52684880Y-33199465D01*
X52531995Y-33428273D01*
X52502308Y-33499943D01*
X52497636Y-33486977D01*
X52435656Y-33371020D01*
X52195565Y-33304040D01*
X51409605Y-34090000D01*
X52195565Y-34875960D01*
X52435656Y-34808980D01*
X52499485Y-34673240D01*
X52531995Y-34751727D01*
X52684880Y-34980535D01*
X52879465Y-35175120D01*
X53108273Y-35328005D01*
X53185515Y-35360000D01*
X53108273Y-35391995D01*
X52879465Y-35544880D01*
X52684880Y-35739465D01*
X52531995Y-35968273D01*
X52500000Y-36045515D01*
X52468005Y-35968273D01*
X52315120Y-35739465D01*
X52120535Y-35544880D01*
X51891727Y-35391995D01*
X51820057Y-35362308D01*
X51833023Y-35357636D01*
X51948980Y-35295656D01*
X52015960Y-35055565D01*
X51230000Y-34269605D01*
X50444040Y-35055565D01*
X50511020Y-35295656D01*
X50646760Y-35359485D01*
X50568273Y-35391995D01*
X50339465Y-35544880D01*
X50144880Y-35739465D01*
X49991995Y-35968273D01*
X49960000Y-36045515D01*
X49928005Y-35968273D01*
X49775120Y-35739465D01*
X49580535Y-35544880D01*
X49351727Y-35391995D01*
X49274485Y-35360000D01*
X49351727Y-35328005D01*
X49580535Y-35175120D01*
X49775120Y-34980535D01*
X49928005Y-34751727D01*
X49957692Y-34680057D01*
X49962364Y-34693023D01*
X50024344Y-34808980D01*
X50264435Y-34875960D01*
X51050395Y-34090000D01*
X50264435Y-33304040D01*
X50024344Y-33371020D01*
X49960515Y-33506760D01*
X49928005Y-33428273D01*
X49775120Y-33199465D01*
X49700090Y-33124435D01*
X50444040Y-33124435D01*
X51230000Y-33910395D01*
X52015960Y-33124435D01*
X51948980Y-32884344D01*
X51699952Y-32767244D01*
X51432865Y-32700977D01*
X51157983Y-32688090D01*
X50885867Y-32729078D01*
X50626977Y-32822364D01*
X50511020Y-32884344D01*
X50444040Y-33124435D01*
X49700090Y-33124435D01*
X49580535Y-33004880D01*
X49351727Y-32851995D01*
X49097490Y-32746686D01*
X48827592Y-32693000D01*
X48552408Y-32693000D01*
X48282510Y-32746686D01*
X48028273Y-32851995D01*
X47799465Y-33004880D01*
X47604880Y-33199465D01*
X47451995Y-33428273D01*
X47420000Y-33505515D01*
X47388005Y-33428273D01*
X47235120Y-33199465D01*
X47040535Y-33004880D01*
X46811727Y-32851995D01*
X46557490Y-32746686D01*
X46287592Y-32693000D01*
X46012408Y-32693000D01*
X45742510Y-32746686D01*
X45488273Y-32851995D01*
X45259465Y-33004880D01*
X45064880Y-33199465D01*
X44911995Y-33428273D01*
X44882308Y-33499943D01*
X44877636Y-33486977D01*
X44815656Y-33371020D01*
X44575565Y-33304040D01*
X43789605Y-34090000D01*
X44575565Y-34875960D01*
X44815656Y-34808980D01*
X44879485Y-34673240D01*
X44911995Y-34751727D01*
X45064880Y-34980535D01*
X45259465Y-35175120D01*
X45488273Y-35328005D01*
X45565515Y-35360000D01*
X45488273Y-35391995D01*
X45259465Y-35544880D01*
X45064880Y-35739465D01*
X44911995Y-35968273D01*
X44880000Y-36045515D01*
X44848005Y-35968273D01*
X44695120Y-35739465D01*
X44500535Y-35544880D01*
X44271727Y-35391995D01*
X44200057Y-35362308D01*
X44213023Y-35357636D01*
X44328980Y-35295656D01*
X44395960Y-35055565D01*
X43610000Y-34269605D01*
X42824040Y-35055565D01*
X42891020Y-35295656D01*
X43026760Y-35359485D01*
X42948273Y-35391995D01*
X42719465Y-35544880D01*
X42524880Y-35739465D01*
X42371995Y-35968273D01*
X42340000Y-36045515D01*
X42308005Y-35968273D01*
X42155120Y-35739465D01*
X41960535Y-35544880D01*
X41731727Y-35391995D01*
X41654485Y-35360000D01*
X41731727Y-35328005D01*
X41960535Y-35175120D01*
X42155120Y-34980535D01*
X42308005Y-34751727D01*
X42337692Y-34680057D01*
X42342364Y-34693023D01*
X42404344Y-34808980D01*
X42644435Y-34875960D01*
X43430395Y-34090000D01*
X42644435Y-33304040D01*
X42404344Y-33371020D01*
X42340515Y-33506760D01*
X42308005Y-33428273D01*
X42155120Y-33199465D01*
X42080090Y-33124435D01*
X42824040Y-33124435D01*
X43610000Y-33910395D01*
X44395960Y-33124435D01*
X44328980Y-32884344D01*
X44079952Y-32767244D01*
X43812865Y-32700977D01*
X43537983Y-32688090D01*
X43265867Y-32729078D01*
X43006977Y-32822364D01*
X42891020Y-32884344D01*
X42824040Y-33124435D01*
X42080090Y-33124435D01*
X41960535Y-33004880D01*
X41731727Y-32851995D01*
X41477490Y-32746686D01*
X41207592Y-32693000D01*
X40932408Y-32693000D01*
X40662510Y-32746686D01*
X40408273Y-32851995D01*
X40179465Y-33004880D01*
X39984880Y-33199465D01*
X39831995Y-33428273D01*
X39800000Y-33505515D01*
X39768005Y-33428273D01*
X39615120Y-33199465D01*
X39420535Y-33004880D01*
X39265000Y-32900955D01*
X39265000Y-29924446D01*
X39514447Y-29675000D01*
X54573895Y-29675000D01*
X54610000Y-29678556D01*
X54646105Y-29675000D01*
X54754085Y-29664365D01*
X54892633Y-29622337D01*
X55020320Y-29554087D01*
X55132238Y-29462238D01*
X55155259Y-29434187D01*
X55494192Y-29095254D01*
X55522237Y-29072238D01*
X55614087Y-28960320D01*
X55682337Y-28832633D01*
X55724365Y-28694085D01*
X55735000Y-28586105D01*
X55735000Y-28586096D01*
X55738555Y-28550001D01*
X55735000Y-28513906D01*
X55735000Y-28189045D01*
X55890535Y-28085120D01*
X56000000Y-27975655D01*
X56109465Y-28085120D01*
X56338273Y-28238005D01*
X56592510Y-28343314D01*
X56862408Y-28397000D01*
X57137592Y-28397000D01*
X57407490Y-28343314D01*
X57661727Y-28238005D01*
X57890535Y-28085120D01*
X58010090Y-27965565D01*
X62714040Y-27965565D01*
X62781020Y-28205656D01*
X63030048Y-28322756D01*
X63297135Y-28389023D01*
X63572017Y-28401910D01*
X63844133Y-28360922D01*
X64103023Y-28267636D01*
X64218980Y-28205656D01*
X64285960Y-27965565D01*
X63500000Y-27179605D01*
X62714040Y-27965565D01*
X58010090Y-27965565D01*
X58085120Y-27890535D01*
X58238005Y-27661727D01*
X58343314Y-27407490D01*
X58397000Y-27137592D01*
X58397000Y-27072017D01*
X62098090Y-27072017D01*
X62139078Y-27344133D01*
X62232364Y-27603023D01*
X62294344Y-27718980D01*
X62534435Y-27785960D01*
X63320395Y-27000000D01*
X62534435Y-26214040D01*
X62294344Y-26281020D01*
X62177244Y-26530048D01*
X62110977Y-26797135D01*
X62098090Y-27072017D01*
X58397000Y-27072017D01*
X58397000Y-26862408D01*
X58343314Y-26592510D01*
X58238005Y-26338273D01*
X58085120Y-26109465D01*
X58010090Y-26034435D01*
X62714040Y-26034435D01*
X63500000Y-26820395D01*
X64285960Y-26034435D01*
X64218980Y-25794344D01*
X63969952Y-25677244D01*
X63702865Y-25610977D01*
X63427983Y-25598090D01*
X63155867Y-25639078D01*
X62896977Y-25732364D01*
X62781020Y-25794344D01*
X62714040Y-26034435D01*
X58010090Y-26034435D01*
X57890535Y-25914880D01*
X57661727Y-25761995D01*
X57407490Y-25656686D01*
X57137592Y-25603000D01*
X56862408Y-25603000D01*
X56592510Y-25656686D01*
X56338273Y-25761995D01*
X56109465Y-25914880D01*
X56000000Y-26024345D01*
X55890535Y-25914880D01*
X55661727Y-25761995D01*
X55407490Y-25656686D01*
X55137592Y-25603000D01*
X54862408Y-25603000D01*
X54592510Y-25656686D01*
X54338273Y-25761995D01*
X54109465Y-25914880D01*
X54000000Y-26024345D01*
X53890535Y-25914880D01*
X53760000Y-25827659D01*
X53760000Y-21908853D01*
X53773676Y-21770001D01*
X53768751Y-21720000D01*
X53759887Y-21630000D01*
X64395199Y-21630000D01*
X64740000Y-21974802D01*
X64740000Y-21974802D01*
G37*
X64740000Y-21974802D02*
X64740001Y-25827659D01*
X64609465Y-25914880D01*
X64414880Y-26109465D01*
X64261995Y-26338273D01*
X64205895Y-26473710D01*
X63679605Y-27000000D01*
X64205895Y-27526290D01*
X64261995Y-27661727D01*
X64414880Y-27890535D01*
X64609465Y-28085120D01*
X64838273Y-28238005D01*
X65092510Y-28343314D01*
X65362408Y-28397000D01*
X65637592Y-28397000D01*
X65907490Y-28343314D01*
X66161727Y-28238005D01*
X66390535Y-28085120D01*
X66500000Y-27975655D01*
X66609465Y-28085120D01*
X66838273Y-28238005D01*
X67092510Y-28343314D01*
X67362408Y-28397000D01*
X67637592Y-28397000D01*
X67907490Y-28343314D01*
X68161727Y-28238005D01*
X68390535Y-28085120D01*
X68500000Y-27975655D01*
X68609465Y-28085120D01*
X68765000Y-28189046D01*
X68765001Y-30515552D01*
X68645554Y-30635000D01*
X66896094Y-30635000D01*
X66859999Y-30631445D01*
X66823904Y-30635000D01*
X66823895Y-30635000D01*
X66715915Y-30645635D01*
X66577367Y-30687663D01*
X66449680Y-30755913D01*
X66337762Y-30847762D01*
X66314741Y-30875813D01*
X65975808Y-31214746D01*
X65947762Y-31237763D01*
X65855913Y-31349681D01*
X65787663Y-31477368D01*
X65780089Y-31502337D01*
X65745635Y-31615915D01*
X65731444Y-31760000D01*
X65735000Y-31796105D01*
X65735000Y-32900954D01*
X65579465Y-33004880D01*
X65384880Y-33199465D01*
X65231995Y-33428273D01*
X65202308Y-33499943D01*
X65197636Y-33486977D01*
X65135656Y-33371020D01*
X64895565Y-33304040D01*
X64109605Y-34090000D01*
X64895565Y-34875960D01*
X65135656Y-34808980D01*
X65199485Y-34673240D01*
X65231995Y-34751727D01*
X65384880Y-34980535D01*
X65579465Y-35175120D01*
X65808273Y-35328005D01*
X65885515Y-35360000D01*
X65808273Y-35391995D01*
X65579465Y-35544880D01*
X65384880Y-35739465D01*
X65231995Y-35968273D01*
X65200000Y-36045515D01*
X65168005Y-35968273D01*
X65015120Y-35739465D01*
X64820535Y-35544880D01*
X64591727Y-35391995D01*
X64520057Y-35362308D01*
X64533023Y-35357636D01*
X64648980Y-35295656D01*
X64715960Y-35055565D01*
X63930000Y-34269605D01*
X63144040Y-35055565D01*
X63211020Y-35295656D01*
X63346760Y-35359485D01*
X63268273Y-35391995D01*
X63039465Y-35544880D01*
X62844880Y-35739465D01*
X62691995Y-35968273D01*
X62660000Y-36045515D01*
X62628005Y-35968273D01*
X62475120Y-35739465D01*
X62280535Y-35544880D01*
X62051727Y-35391995D01*
X61974485Y-35360000D01*
X62051727Y-35328005D01*
X62280535Y-35175120D01*
X62475120Y-34980535D01*
X62628005Y-34751727D01*
X62657692Y-34680057D01*
X62662364Y-34693023D01*
X62724344Y-34808980D01*
X62964435Y-34875960D01*
X63750395Y-34090000D01*
X62964435Y-33304040D01*
X62724344Y-33371020D01*
X62660515Y-33506760D01*
X62628005Y-33428273D01*
X62475120Y-33199465D01*
X62400090Y-33124435D01*
X63144040Y-33124435D01*
X63930000Y-33910395D01*
X64715960Y-33124435D01*
X64648980Y-32884344D01*
X64399952Y-32767244D01*
X64132865Y-32700977D01*
X63857983Y-32688090D01*
X63585867Y-32729078D01*
X63326977Y-32822364D01*
X63211020Y-32884344D01*
X63144040Y-33124435D01*
X62400090Y-33124435D01*
X62280535Y-33004880D01*
X62051727Y-32851995D01*
X61797490Y-32746686D01*
X61527592Y-32693000D01*
X61252408Y-32693000D01*
X60982510Y-32746686D01*
X60728273Y-32851995D01*
X60499465Y-33004880D01*
X60304880Y-33199465D01*
X60151995Y-33428273D01*
X60120000Y-33505515D01*
X60088005Y-33428273D01*
X59935120Y-33199465D01*
X59740535Y-33004880D01*
X59511727Y-32851995D01*
X59257490Y-32746686D01*
X58987592Y-32693000D01*
X58712408Y-32693000D01*
X58442510Y-32746686D01*
X58188273Y-32851995D01*
X57959465Y-33004880D01*
X57764880Y-33199465D01*
X57611995Y-33428273D01*
X57580000Y-33505515D01*
X57548005Y-33428273D01*
X57395120Y-33199465D01*
X57200535Y-33004880D01*
X56971727Y-32851995D01*
X56717490Y-32746686D01*
X56447592Y-32693000D01*
X56172408Y-32693000D01*
X55902510Y-32746686D01*
X55648273Y-32851995D01*
X55419465Y-33004880D01*
X55224880Y-33199465D01*
X55071995Y-33428273D01*
X55040000Y-33505515D01*
X55008005Y-33428273D01*
X54855120Y-33199465D01*
X54660535Y-33004880D01*
X54431727Y-32851995D01*
X54177490Y-32746686D01*
X53907592Y-32693000D01*
X53632408Y-32693000D01*
X53362510Y-32746686D01*
X53108273Y-32851995D01*
X52879465Y-33004880D01*
X52684880Y-33199465D01*
X52531995Y-33428273D01*
X52502308Y-33499943D01*
X52497636Y-33486977D01*
X52435656Y-33371020D01*
X52195565Y-33304040D01*
X51409605Y-34090000D01*
X52195565Y-34875960D01*
X52435656Y-34808980D01*
X52499485Y-34673240D01*
X52531995Y-34751727D01*
X52684880Y-34980535D01*
X52879465Y-35175120D01*
X53108273Y-35328005D01*
X53185515Y-35360000D01*
X53108273Y-35391995D01*
X52879465Y-35544880D01*
X52684880Y-35739465D01*
X52531995Y-35968273D01*
X52500000Y-36045515D01*
X52468005Y-35968273D01*
X52315120Y-35739465D01*
X52120535Y-35544880D01*
X51891727Y-35391995D01*
X51820057Y-35362308D01*
X51833023Y-35357636D01*
X51948980Y-35295656D01*
X52015960Y-35055565D01*
X51230000Y-34269605D01*
X50444040Y-35055565D01*
X50511020Y-35295656D01*
X50646760Y-35359485D01*
X50568273Y-35391995D01*
X50339465Y-35544880D01*
X50144880Y-35739465D01*
X49991995Y-35968273D01*
X49960000Y-36045515D01*
X49928005Y-35968273D01*
X49775120Y-35739465D01*
X49580535Y-35544880D01*
X49351727Y-35391995D01*
X49274485Y-35360000D01*
X49351727Y-35328005D01*
X49580535Y-35175120D01*
X49775120Y-34980535D01*
X49928005Y-34751727D01*
X49957692Y-34680057D01*
X49962364Y-34693023D01*
X50024344Y-34808980D01*
X50264435Y-34875960D01*
X51050395Y-34090000D01*
X50264435Y-33304040D01*
X50024344Y-33371020D01*
X49960515Y-33506760D01*
X49928005Y-33428273D01*
X49775120Y-33199465D01*
X49700090Y-33124435D01*
X50444040Y-33124435D01*
X51230000Y-33910395D01*
X52015960Y-33124435D01*
X51948980Y-32884344D01*
X51699952Y-32767244D01*
X51432865Y-32700977D01*
X51157983Y-32688090D01*
X50885867Y-32729078D01*
X50626977Y-32822364D01*
X50511020Y-32884344D01*
X50444040Y-33124435D01*
X49700090Y-33124435D01*
X49580535Y-33004880D01*
X49351727Y-32851995D01*
X49097490Y-32746686D01*
X48827592Y-32693000D01*
X48552408Y-32693000D01*
X48282510Y-32746686D01*
X48028273Y-32851995D01*
X47799465Y-33004880D01*
X47604880Y-33199465D01*
X47451995Y-33428273D01*
X47420000Y-33505515D01*
X47388005Y-33428273D01*
X47235120Y-33199465D01*
X47040535Y-33004880D01*
X46811727Y-32851995D01*
X46557490Y-32746686D01*
X46287592Y-32693000D01*
X46012408Y-32693000D01*
X45742510Y-32746686D01*
X45488273Y-32851995D01*
X45259465Y-33004880D01*
X45064880Y-33199465D01*
X44911995Y-33428273D01*
X44882308Y-33499943D01*
X44877636Y-33486977D01*
X44815656Y-33371020D01*
X44575565Y-33304040D01*
X43789605Y-34090000D01*
X44575565Y-34875960D01*
X44815656Y-34808980D01*
X44879485Y-34673240D01*
X44911995Y-34751727D01*
X45064880Y-34980535D01*
X45259465Y-35175120D01*
X45488273Y-35328005D01*
X45565515Y-35360000D01*
X45488273Y-35391995D01*
X45259465Y-35544880D01*
X45064880Y-35739465D01*
X44911995Y-35968273D01*
X44880000Y-36045515D01*
X44848005Y-35968273D01*
X44695120Y-35739465D01*
X44500535Y-35544880D01*
X44271727Y-35391995D01*
X44200057Y-35362308D01*
X44213023Y-35357636D01*
X44328980Y-35295656D01*
X44395960Y-35055565D01*
X43610000Y-34269605D01*
X42824040Y-35055565D01*
X42891020Y-35295656D01*
X43026760Y-35359485D01*
X42948273Y-35391995D01*
X42719465Y-35544880D01*
X42524880Y-35739465D01*
X42371995Y-35968273D01*
X42340000Y-36045515D01*
X42308005Y-35968273D01*
X42155120Y-35739465D01*
X41960535Y-35544880D01*
X41731727Y-35391995D01*
X41654485Y-35360000D01*
X41731727Y-35328005D01*
X41960535Y-35175120D01*
X42155120Y-34980535D01*
X42308005Y-34751727D01*
X42337692Y-34680057D01*
X42342364Y-34693023D01*
X42404344Y-34808980D01*
X42644435Y-34875960D01*
X43430395Y-34090000D01*
X42644435Y-33304040D01*
X42404344Y-33371020D01*
X42340515Y-33506760D01*
X42308005Y-33428273D01*
X42155120Y-33199465D01*
X42080090Y-33124435D01*
X42824040Y-33124435D01*
X43610000Y-33910395D01*
X44395960Y-33124435D01*
X44328980Y-32884344D01*
X44079952Y-32767244D01*
X43812865Y-32700977D01*
X43537983Y-32688090D01*
X43265867Y-32729078D01*
X43006977Y-32822364D01*
X42891020Y-32884344D01*
X42824040Y-33124435D01*
X42080090Y-33124435D01*
X41960535Y-33004880D01*
X41731727Y-32851995D01*
X41477490Y-32746686D01*
X41207592Y-32693000D01*
X40932408Y-32693000D01*
X40662510Y-32746686D01*
X40408273Y-32851995D01*
X40179465Y-33004880D01*
X39984880Y-33199465D01*
X39831995Y-33428273D01*
X39800000Y-33505515D01*
X39768005Y-33428273D01*
X39615120Y-33199465D01*
X39420535Y-33004880D01*
X39265000Y-32900955D01*
X39265000Y-29924446D01*
X39514447Y-29675000D01*
X54573895Y-29675000D01*
X54610000Y-29678556D01*
X54646105Y-29675000D01*
X54754085Y-29664365D01*
X54892633Y-29622337D01*
X55020320Y-29554087D01*
X55132238Y-29462238D01*
X55155259Y-29434187D01*
X55494192Y-29095254D01*
X55522237Y-29072238D01*
X55614087Y-28960320D01*
X55682337Y-28832633D01*
X55724365Y-28694085D01*
X55735000Y-28586105D01*
X55735000Y-28586096D01*
X55738555Y-28550001D01*
X55735000Y-28513906D01*
X55735000Y-28189045D01*
X55890535Y-28085120D01*
X56000000Y-27975655D01*
X56109465Y-28085120D01*
X56338273Y-28238005D01*
X56592510Y-28343314D01*
X56862408Y-28397000D01*
X57137592Y-28397000D01*
X57407490Y-28343314D01*
X57661727Y-28238005D01*
X57890535Y-28085120D01*
X58010090Y-27965565D01*
X62714040Y-27965565D01*
X62781020Y-28205656D01*
X63030048Y-28322756D01*
X63297135Y-28389023D01*
X63572017Y-28401910D01*
X63844133Y-28360922D01*
X64103023Y-28267636D01*
X64218980Y-28205656D01*
X64285960Y-27965565D01*
X63500000Y-27179605D01*
X62714040Y-27965565D01*
X58010090Y-27965565D01*
X58085120Y-27890535D01*
X58238005Y-27661727D01*
X58343314Y-27407490D01*
X58397000Y-27137592D01*
X58397000Y-27072017D01*
X62098090Y-27072017D01*
X62139078Y-27344133D01*
X62232364Y-27603023D01*
X62294344Y-27718980D01*
X62534435Y-27785960D01*
X63320395Y-27000000D01*
X62534435Y-26214040D01*
X62294344Y-26281020D01*
X62177244Y-26530048D01*
X62110977Y-26797135D01*
X62098090Y-27072017D01*
X58397000Y-27072017D01*
X58397000Y-26862408D01*
X58343314Y-26592510D01*
X58238005Y-26338273D01*
X58085120Y-26109465D01*
X58010090Y-26034435D01*
X62714040Y-26034435D01*
X63500000Y-26820395D01*
X64285960Y-26034435D01*
X64218980Y-25794344D01*
X63969952Y-25677244D01*
X63702865Y-25610977D01*
X63427983Y-25598090D01*
X63155867Y-25639078D01*
X62896977Y-25732364D01*
X62781020Y-25794344D01*
X62714040Y-26034435D01*
X58010090Y-26034435D01*
X57890535Y-25914880D01*
X57661727Y-25761995D01*
X57407490Y-25656686D01*
X57137592Y-25603000D01*
X56862408Y-25603000D01*
X56592510Y-25656686D01*
X56338273Y-25761995D01*
X56109465Y-25914880D01*
X56000000Y-26024345D01*
X55890535Y-25914880D01*
X55661727Y-25761995D01*
X55407490Y-25656686D01*
X55137592Y-25603000D01*
X54862408Y-25603000D01*
X54592510Y-25656686D01*
X54338273Y-25761995D01*
X54109465Y-25914880D01*
X54000000Y-26024345D01*
X53890535Y-25914880D01*
X53760000Y-25827659D01*
X53760000Y-21908853D01*
X53773676Y-21770001D01*
X53768751Y-21720000D01*
X53759887Y-21630000D01*
X64395199Y-21630000D01*
X64740000Y-21974802D01*
G36*
X77240000Y-22034802D02*
G01*
X77240001Y-25827659D01*
X77109465Y-25914880D01*
X76914880Y-26109465D01*
X76761995Y-26338273D01*
X76705895Y-26473710D01*
X76179605Y-27000000D01*
X76705895Y-27526290D01*
X76761995Y-27661727D01*
X76914880Y-27890535D01*
X77109465Y-28085120D01*
X77338273Y-28238005D01*
X77592510Y-28343314D01*
X77862408Y-28397000D01*
X78137592Y-28397000D01*
X78407490Y-28343314D01*
X78661727Y-28238005D01*
X78890535Y-28085120D01*
X79000000Y-27975655D01*
X79109465Y-28085120D01*
X79338273Y-28238005D01*
X79592510Y-28343314D01*
X79862408Y-28397000D01*
X80137592Y-28397000D01*
X80407490Y-28343314D01*
X80661727Y-28238005D01*
X80890535Y-28085120D01*
X81000000Y-27975655D01*
X81109465Y-28085120D01*
X81265000Y-28189046D01*
X81265000Y-28935000D01*
X74726094Y-28935000D01*
X74689999Y-28931445D01*
X74653904Y-28935000D01*
X74653895Y-28935000D01*
X74545915Y-28945635D01*
X74407367Y-28987663D01*
X74279680Y-29055913D01*
X74167762Y-29147762D01*
X74144746Y-29175807D01*
X73585808Y-29734746D01*
X73557763Y-29757762D01*
X73465914Y-29869680D01*
X73442178Y-29914087D01*
X73397664Y-29997367D01*
X73355635Y-30135915D01*
X73341444Y-30280000D01*
X73345001Y-30316115D01*
X73345000Y-32907636D01*
X73199465Y-33004880D01*
X73004880Y-33199465D01*
X72851995Y-33428273D01*
X72820000Y-33505515D01*
X72788005Y-33428273D01*
X72635120Y-33199465D01*
X72440535Y-33004880D01*
X72211727Y-32851995D01*
X71957490Y-32746686D01*
X71687592Y-32693000D01*
X71412408Y-32693000D01*
X71142510Y-32746686D01*
X70888273Y-32851995D01*
X70659465Y-33004880D01*
X70464880Y-33199465D01*
X70311995Y-33428273D01*
X70282308Y-33499943D01*
X70277636Y-33486977D01*
X70215656Y-33371020D01*
X69975565Y-33304040D01*
X69189605Y-34090000D01*
X69975565Y-34875960D01*
X70215656Y-34808980D01*
X70279485Y-34673240D01*
X70311995Y-34751727D01*
X70464880Y-34980535D01*
X70659465Y-35175120D01*
X70888273Y-35328005D01*
X70965515Y-35360000D01*
X70888273Y-35391995D01*
X70659465Y-35544880D01*
X70464880Y-35739465D01*
X70311995Y-35968273D01*
X70280000Y-36045515D01*
X70248005Y-35968273D01*
X70095120Y-35739465D01*
X69900535Y-35544880D01*
X69671727Y-35391995D01*
X69600057Y-35362308D01*
X69613023Y-35357636D01*
X69728980Y-35295656D01*
X69795960Y-35055565D01*
X69010000Y-34269605D01*
X68224040Y-35055565D01*
X68291020Y-35295656D01*
X68426760Y-35359485D01*
X68348273Y-35391995D01*
X68119465Y-35544880D01*
X67924880Y-35739465D01*
X67771995Y-35968273D01*
X67740000Y-36045515D01*
X67708005Y-35968273D01*
X67555120Y-35739465D01*
X67360535Y-35544880D01*
X67131727Y-35391995D01*
X67054485Y-35360000D01*
X67131727Y-35328005D01*
X67360535Y-35175120D01*
X67555120Y-34980535D01*
X67708005Y-34751727D01*
X67737692Y-34680057D01*
X67742364Y-34693023D01*
X67804344Y-34808980D01*
X68044435Y-34875960D01*
X68830395Y-34090000D01*
X68044435Y-33304040D01*
X67804344Y-33371020D01*
X67740515Y-33506760D01*
X67708005Y-33428273D01*
X67555120Y-33199465D01*
X67480090Y-33124435D01*
X68224040Y-33124435D01*
X69010000Y-33910395D01*
X69795960Y-33124435D01*
X69728980Y-32884344D01*
X69479952Y-32767244D01*
X69212865Y-32700977D01*
X68937983Y-32688090D01*
X68665867Y-32729078D01*
X68406977Y-32822364D01*
X68291020Y-32884344D01*
X68224040Y-33124435D01*
X67480090Y-33124435D01*
X67360535Y-33004880D01*
X67205000Y-32900955D01*
X67205000Y-32105000D01*
X68913895Y-32105000D01*
X68950000Y-32108556D01*
X68986105Y-32105000D01*
X69094085Y-32094365D01*
X69232633Y-32052337D01*
X69360320Y-31984087D01*
X69472238Y-31892238D01*
X69495258Y-31864188D01*
X69994193Y-31365254D01*
X70022238Y-31342238D01*
X70114087Y-31230320D01*
X70182337Y-31102633D01*
X70224365Y-30964085D01*
X70235000Y-30856105D01*
X70235000Y-30856096D01*
X70238555Y-30820001D01*
X70235000Y-30783906D01*
X70235000Y-28189045D01*
X70390535Y-28085120D01*
X70510090Y-27965565D01*
X75214040Y-27965565D01*
X75281020Y-28205656D01*
X75530048Y-28322756D01*
X75797135Y-28389023D01*
X76072017Y-28401910D01*
X76344133Y-28360922D01*
X76603023Y-28267636D01*
X76718980Y-28205656D01*
X76785960Y-27965565D01*
X76000000Y-27179605D01*
X75214040Y-27965565D01*
X70510090Y-27965565D01*
X70585120Y-27890535D01*
X70738005Y-27661727D01*
X70843314Y-27407490D01*
X70897000Y-27137592D01*
X70897000Y-27072017D01*
X74598090Y-27072017D01*
X74639078Y-27344133D01*
X74732364Y-27603023D01*
X74794344Y-27718980D01*
X75034435Y-27785960D01*
X75820395Y-27000000D01*
X75034435Y-26214040D01*
X74794344Y-26281020D01*
X74677244Y-26530048D01*
X74610977Y-26797135D01*
X74598090Y-27072017D01*
X70897000Y-27072017D01*
X70897000Y-26862408D01*
X70843314Y-26592510D01*
X70738005Y-26338273D01*
X70585120Y-26109465D01*
X70510090Y-26034435D01*
X75214040Y-26034435D01*
X76000000Y-26820395D01*
X76785960Y-26034435D01*
X76718980Y-25794344D01*
X76469952Y-25677244D01*
X76202865Y-25610977D01*
X75927983Y-25598090D01*
X75655867Y-25639078D01*
X75396977Y-25732364D01*
X75281020Y-25794344D01*
X75214040Y-26034435D01*
X70510090Y-26034435D01*
X70390535Y-25914880D01*
X70161727Y-25761995D01*
X69907490Y-25656686D01*
X69637592Y-25603000D01*
X69362408Y-25603000D01*
X69092510Y-25656686D01*
X68838273Y-25761995D01*
X68609465Y-25914880D01*
X68500000Y-26024345D01*
X68390535Y-25914880D01*
X68161727Y-25761995D01*
X67907490Y-25656686D01*
X67637592Y-25603000D01*
X67362408Y-25603000D01*
X67092510Y-25656686D01*
X66838273Y-25761995D01*
X66609465Y-25914880D01*
X66500000Y-26024345D01*
X66390535Y-25914880D01*
X66260000Y-25827659D01*
X66260000Y-21697325D01*
X66263676Y-21660000D01*
X66260721Y-21630000D01*
X76835199Y-21630000D01*
X77240000Y-22034802D01*
X77240000Y-22034802D01*
G37*
X77240000Y-22034802D02*
X77240001Y-25827659D01*
X77109465Y-25914880D01*
X76914880Y-26109465D01*
X76761995Y-26338273D01*
X76705895Y-26473710D01*
X76179605Y-27000000D01*
X76705895Y-27526290D01*
X76761995Y-27661727D01*
X76914880Y-27890535D01*
X77109465Y-28085120D01*
X77338273Y-28238005D01*
X77592510Y-28343314D01*
X77862408Y-28397000D01*
X78137592Y-28397000D01*
X78407490Y-28343314D01*
X78661727Y-28238005D01*
X78890535Y-28085120D01*
X79000000Y-27975655D01*
X79109465Y-28085120D01*
X79338273Y-28238005D01*
X79592510Y-28343314D01*
X79862408Y-28397000D01*
X80137592Y-28397000D01*
X80407490Y-28343314D01*
X80661727Y-28238005D01*
X80890535Y-28085120D01*
X81000000Y-27975655D01*
X81109465Y-28085120D01*
X81265000Y-28189046D01*
X81265000Y-28935000D01*
X74726094Y-28935000D01*
X74689999Y-28931445D01*
X74653904Y-28935000D01*
X74653895Y-28935000D01*
X74545915Y-28945635D01*
X74407367Y-28987663D01*
X74279680Y-29055913D01*
X74167762Y-29147762D01*
X74144746Y-29175807D01*
X73585808Y-29734746D01*
X73557763Y-29757762D01*
X73465914Y-29869680D01*
X73442178Y-29914087D01*
X73397664Y-29997367D01*
X73355635Y-30135915D01*
X73341444Y-30280000D01*
X73345001Y-30316115D01*
X73345000Y-32907636D01*
X73199465Y-33004880D01*
X73004880Y-33199465D01*
X72851995Y-33428273D01*
X72820000Y-33505515D01*
X72788005Y-33428273D01*
X72635120Y-33199465D01*
X72440535Y-33004880D01*
X72211727Y-32851995D01*
X71957490Y-32746686D01*
X71687592Y-32693000D01*
X71412408Y-32693000D01*
X71142510Y-32746686D01*
X70888273Y-32851995D01*
X70659465Y-33004880D01*
X70464880Y-33199465D01*
X70311995Y-33428273D01*
X70282308Y-33499943D01*
X70277636Y-33486977D01*
X70215656Y-33371020D01*
X69975565Y-33304040D01*
X69189605Y-34090000D01*
X69975565Y-34875960D01*
X70215656Y-34808980D01*
X70279485Y-34673240D01*
X70311995Y-34751727D01*
X70464880Y-34980535D01*
X70659465Y-35175120D01*
X70888273Y-35328005D01*
X70965515Y-35360000D01*
X70888273Y-35391995D01*
X70659465Y-35544880D01*
X70464880Y-35739465D01*
X70311995Y-35968273D01*
X70280000Y-36045515D01*
X70248005Y-35968273D01*
X70095120Y-35739465D01*
X69900535Y-35544880D01*
X69671727Y-35391995D01*
X69600057Y-35362308D01*
X69613023Y-35357636D01*
X69728980Y-35295656D01*
X69795960Y-35055565D01*
X69010000Y-34269605D01*
X68224040Y-35055565D01*
X68291020Y-35295656D01*
X68426760Y-35359485D01*
X68348273Y-35391995D01*
X68119465Y-35544880D01*
X67924880Y-35739465D01*
X67771995Y-35968273D01*
X67740000Y-36045515D01*
X67708005Y-35968273D01*
X67555120Y-35739465D01*
X67360535Y-35544880D01*
X67131727Y-35391995D01*
X67054485Y-35360000D01*
X67131727Y-35328005D01*
X67360535Y-35175120D01*
X67555120Y-34980535D01*
X67708005Y-34751727D01*
X67737692Y-34680057D01*
X67742364Y-34693023D01*
X67804344Y-34808980D01*
X68044435Y-34875960D01*
X68830395Y-34090000D01*
X68044435Y-33304040D01*
X67804344Y-33371020D01*
X67740515Y-33506760D01*
X67708005Y-33428273D01*
X67555120Y-33199465D01*
X67480090Y-33124435D01*
X68224040Y-33124435D01*
X69010000Y-33910395D01*
X69795960Y-33124435D01*
X69728980Y-32884344D01*
X69479952Y-32767244D01*
X69212865Y-32700977D01*
X68937983Y-32688090D01*
X68665867Y-32729078D01*
X68406977Y-32822364D01*
X68291020Y-32884344D01*
X68224040Y-33124435D01*
X67480090Y-33124435D01*
X67360535Y-33004880D01*
X67205000Y-32900955D01*
X67205000Y-32105000D01*
X68913895Y-32105000D01*
X68950000Y-32108556D01*
X68986105Y-32105000D01*
X69094085Y-32094365D01*
X69232633Y-32052337D01*
X69360320Y-31984087D01*
X69472238Y-31892238D01*
X69495258Y-31864188D01*
X69994193Y-31365254D01*
X70022238Y-31342238D01*
X70114087Y-31230320D01*
X70182337Y-31102633D01*
X70224365Y-30964085D01*
X70235000Y-30856105D01*
X70235000Y-30856096D01*
X70238555Y-30820001D01*
X70235000Y-30783906D01*
X70235000Y-28189045D01*
X70390535Y-28085120D01*
X70510090Y-27965565D01*
X75214040Y-27965565D01*
X75281020Y-28205656D01*
X75530048Y-28322756D01*
X75797135Y-28389023D01*
X76072017Y-28401910D01*
X76344133Y-28360922D01*
X76603023Y-28267636D01*
X76718980Y-28205656D01*
X76785960Y-27965565D01*
X76000000Y-27179605D01*
X75214040Y-27965565D01*
X70510090Y-27965565D01*
X70585120Y-27890535D01*
X70738005Y-27661727D01*
X70843314Y-27407490D01*
X70897000Y-27137592D01*
X70897000Y-27072017D01*
X74598090Y-27072017D01*
X74639078Y-27344133D01*
X74732364Y-27603023D01*
X74794344Y-27718980D01*
X75034435Y-27785960D01*
X75820395Y-27000000D01*
X75034435Y-26214040D01*
X74794344Y-26281020D01*
X74677244Y-26530048D01*
X74610977Y-26797135D01*
X74598090Y-27072017D01*
X70897000Y-27072017D01*
X70897000Y-26862408D01*
X70843314Y-26592510D01*
X70738005Y-26338273D01*
X70585120Y-26109465D01*
X70510090Y-26034435D01*
X75214040Y-26034435D01*
X76000000Y-26820395D01*
X76785960Y-26034435D01*
X76718980Y-25794344D01*
X76469952Y-25677244D01*
X76202865Y-25610977D01*
X75927983Y-25598090D01*
X75655867Y-25639078D01*
X75396977Y-25732364D01*
X75281020Y-25794344D01*
X75214040Y-26034435D01*
X70510090Y-26034435D01*
X70390535Y-25914880D01*
X70161727Y-25761995D01*
X69907490Y-25656686D01*
X69637592Y-25603000D01*
X69362408Y-25603000D01*
X69092510Y-25656686D01*
X68838273Y-25761995D01*
X68609465Y-25914880D01*
X68500000Y-26024345D01*
X68390535Y-25914880D01*
X68161727Y-25761995D01*
X67907490Y-25656686D01*
X67637592Y-25603000D01*
X67362408Y-25603000D01*
X67092510Y-25656686D01*
X66838273Y-25761995D01*
X66609465Y-25914880D01*
X66500000Y-26024345D01*
X66390535Y-25914880D01*
X66260000Y-25827659D01*
X66260000Y-21697325D01*
X66263676Y-21660000D01*
X66260721Y-21630000D01*
X76835199Y-21630000D01*
X77240000Y-22034802D01*
G36*
X52240000Y-22074802D02*
G01*
X52240001Y-25827659D01*
X52109465Y-25914880D01*
X51914880Y-26109465D01*
X51761995Y-26338273D01*
X51705895Y-26473710D01*
X51179605Y-27000000D01*
X51705895Y-27526290D01*
X51761995Y-27661727D01*
X51914880Y-27890535D01*
X52109465Y-28085120D01*
X52288878Y-28205000D01*
X51719163Y-28205000D01*
X51785960Y-27965565D01*
X51000000Y-27179605D01*
X50214040Y-27965565D01*
X50280837Y-28205000D01*
X45211122Y-28205000D01*
X45390535Y-28085120D01*
X45585120Y-27890535D01*
X45738005Y-27661727D01*
X45843314Y-27407490D01*
X45897000Y-27137592D01*
X45897000Y-27072017D01*
X49598090Y-27072017D01*
X49639078Y-27344133D01*
X49732364Y-27603023D01*
X49794344Y-27718980D01*
X50034435Y-27785960D01*
X50820395Y-27000000D01*
X50034435Y-26214040D01*
X49794344Y-26281020D01*
X49677244Y-26530048D01*
X49610977Y-26797135D01*
X49598090Y-27072017D01*
X45897000Y-27072017D01*
X45897000Y-26862408D01*
X45843314Y-26592510D01*
X45738005Y-26338273D01*
X45585120Y-26109465D01*
X45510090Y-26034435D01*
X50214040Y-26034435D01*
X51000000Y-26820395D01*
X51785960Y-26034435D01*
X51718980Y-25794344D01*
X51469952Y-25677244D01*
X51202865Y-25610977D01*
X50927983Y-25598090D01*
X50655867Y-25639078D01*
X50396977Y-25732364D01*
X50281020Y-25794344D01*
X50214040Y-26034435D01*
X45510090Y-26034435D01*
X45390535Y-25914880D01*
X45161727Y-25761995D01*
X44907490Y-25656686D01*
X44637592Y-25603000D01*
X44362408Y-25603000D01*
X44092510Y-25656686D01*
X43838273Y-25761995D01*
X43609465Y-25914880D01*
X43500000Y-26024345D01*
X43390535Y-25914880D01*
X43161727Y-25761995D01*
X42907490Y-25656686D01*
X42637592Y-25603000D01*
X42362408Y-25603000D01*
X42092510Y-25656686D01*
X41838273Y-25761995D01*
X41609465Y-25914880D01*
X41500000Y-26024345D01*
X41390535Y-25914880D01*
X41260000Y-25827659D01*
X41260000Y-21707323D01*
X41263676Y-21670000D01*
X41260000Y-21632677D01*
X41260000Y-21632667D01*
X41259737Y-21630000D01*
X51795199Y-21630000D01*
X52240000Y-22074802D01*
X52240000Y-22074802D01*
G37*
X52240000Y-22074802D02*
X52240001Y-25827659D01*
X52109465Y-25914880D01*
X51914880Y-26109465D01*
X51761995Y-26338273D01*
X51705895Y-26473710D01*
X51179605Y-27000000D01*
X51705895Y-27526290D01*
X51761995Y-27661727D01*
X51914880Y-27890535D01*
X52109465Y-28085120D01*
X52288878Y-28205000D01*
X51719163Y-28205000D01*
X51785960Y-27965565D01*
X51000000Y-27179605D01*
X50214040Y-27965565D01*
X50280837Y-28205000D01*
X45211122Y-28205000D01*
X45390535Y-28085120D01*
X45585120Y-27890535D01*
X45738005Y-27661727D01*
X45843314Y-27407490D01*
X45897000Y-27137592D01*
X45897000Y-27072017D01*
X49598090Y-27072017D01*
X49639078Y-27344133D01*
X49732364Y-27603023D01*
X49794344Y-27718980D01*
X50034435Y-27785960D01*
X50820395Y-27000000D01*
X50034435Y-26214040D01*
X49794344Y-26281020D01*
X49677244Y-26530048D01*
X49610977Y-26797135D01*
X49598090Y-27072017D01*
X45897000Y-27072017D01*
X45897000Y-26862408D01*
X45843314Y-26592510D01*
X45738005Y-26338273D01*
X45585120Y-26109465D01*
X45510090Y-26034435D01*
X50214040Y-26034435D01*
X51000000Y-26820395D01*
X51785960Y-26034435D01*
X51718980Y-25794344D01*
X51469952Y-25677244D01*
X51202865Y-25610977D01*
X50927983Y-25598090D01*
X50655867Y-25639078D01*
X50396977Y-25732364D01*
X50281020Y-25794344D01*
X50214040Y-26034435D01*
X45510090Y-26034435D01*
X45390535Y-25914880D01*
X45161727Y-25761995D01*
X44907490Y-25656686D01*
X44637592Y-25603000D01*
X44362408Y-25603000D01*
X44092510Y-25656686D01*
X43838273Y-25761995D01*
X43609465Y-25914880D01*
X43500000Y-26024345D01*
X43390535Y-25914880D01*
X43161727Y-25761995D01*
X42907490Y-25656686D01*
X42637592Y-25603000D01*
X42362408Y-25603000D01*
X42092510Y-25656686D01*
X41838273Y-25761995D01*
X41609465Y-25914880D01*
X41500000Y-26024345D01*
X41390535Y-25914880D01*
X41260000Y-25827659D01*
X41260000Y-21707323D01*
X41263676Y-21670000D01*
X41260000Y-21632677D01*
X41260000Y-21632667D01*
X41259737Y-21630000D01*
X51795199Y-21630000D01*
X52240000Y-22074802D01*
M02*
