M48
; DRILL file {KiCad (5.1.2-1)-1} date 2019 June 27, Thursday 20:10:24
; FORMAT={-:-/ absolute / inch / decimal}
; #@! TF.CreationDate,2019-06-27T20:10:24+09:00
; #@! TF.GenerationSoftware,Kicad,Pcbnew,(5.1.2-1)-1
FMAT,2
INCH
T1C0.0157
T2C0.0300
T3C0.0394
T4C0.1063
%
G90
G05
T1
X1.1866Y-0.9638
X1.3866Y-0.9843
X1.3866Y-1.0843
X1.8799Y-0.9843
X1.8799Y-1.0843
X1.8799Y-1.1843
X2.372Y-0.9843
X2.372Y-1.0843
X2.372Y-1.1843
X2.8642Y-0.9843
X2.8642Y-1.0843
X2.8642Y-1.1843
T2
X1.5157Y-1.063
X1.5945Y-1.063
X1.6732Y-1.063
X1.752Y-1.063
X1.1169Y-1.3421
X1.1169Y-1.4421
X1.2169Y-1.3421
X1.2169Y-1.4421
X1.3169Y-1.3421
X1.3169Y-1.4421
X1.4169Y-1.3421
X1.4169Y-1.4421
X1.5169Y-1.3421
X1.5169Y-1.4421
X1.6169Y-1.3421
X1.6169Y-1.4421
X1.7169Y-1.3421
X1.7169Y-1.4421
X1.8169Y-1.3421
X1.8169Y-1.4421
X1.9169Y-1.3421
X1.9169Y-1.4421
X2.0169Y-1.3421
X2.0169Y-1.4421
X2.1169Y-1.3421
X2.1169Y-1.4421
X2.2169Y-1.3421
X2.2169Y-1.4421
X2.3169Y-1.3421
X2.3169Y-1.4421
X2.4169Y-1.3421
X2.4169Y-1.4421
X2.5169Y-1.3421
X2.5169Y-1.4421
X2.6169Y-1.3421
X2.6169Y-1.4421
X2.7169Y-1.3421
X2.7169Y-1.4421
X2.8169Y-1.3421
X2.8169Y-1.4421
X2.9169Y-1.3421
X2.9169Y-1.4421
X3.0169Y-1.3421
X3.0169Y-1.4421
X2.5Y-1.063
X2.5787Y-1.063
X2.6575Y-1.063
X2.7362Y-1.063
X2.9921Y-1.063
X3.0709Y-1.063
X3.1496Y-1.063
X3.2283Y-1.063
X2.0079Y-1.063
X2.0866Y-1.063
X2.1654Y-1.063
X2.2441Y-1.063
T3
X0.8874Y-1.0421
X0.8874Y-1.1421
X0.9874Y-1.0421
X0.9874Y-1.1421
X1.0874Y-1.0421
X1.0874Y-1.1421
X1.1874Y-1.0421
X1.1874Y-1.1421
X1.2874Y-1.0421
X1.2874Y-1.1421
T4
X0.9252Y-1.3685
X3.2087Y-1.3685
T0
M30
