G04 #@! TF.GenerationSoftware,KiCad,Pcbnew,(5.1.2-1)-1*
G04 #@! TF.CreationDate,2019-06-23T18:06:27+09:00*
G04 #@! TF.ProjectId,NervesAddonBoard,4e657276-6573-4416-9464-6f6e426f6172,rev?*
G04 #@! TF.SameCoordinates,Original*
G04 #@! TF.FileFunction,Copper,L1,Top*
G04 #@! TF.FilePolarity,Positive*
%FSLAX46Y46*%
G04 Gerber Fmt 4.6, Leading zero omitted, Abs format (unit mm)*
G04 Created by KiCad (PCBNEW (5.1.2-1)-1) date 2019-06-23 18:06:27*
%MOMM*%
%LPD*%
G04 APERTURE LIST*
%ADD10C,5.400000*%
%ADD11R,1.524000X1.524000*%
%ADD12C,1.524000*%
%ADD13C,0.800000*%
%ADD14C,0.200000*%
%ADD15C,0.254000*%
G04 APERTURE END LIST*
D10*
X81500000Y-23500000D03*
X81500000Y-46500000D03*
X23500000Y-46500000D03*
X23500000Y-23500000D03*
D11*
X28370000Y-25370000D03*
D12*
X28370000Y-22830000D03*
X30910000Y-25370000D03*
X30910000Y-22830000D03*
X33450000Y-25370000D03*
X33450000Y-22830000D03*
X35990000Y-25370000D03*
X35990000Y-22830000D03*
X38530000Y-25370000D03*
X38530000Y-22830000D03*
X41070000Y-25370000D03*
X41070000Y-22830000D03*
X43610000Y-25370000D03*
X43610000Y-22830000D03*
X46150000Y-25370000D03*
X46150000Y-22830000D03*
X48690000Y-25370000D03*
X48690000Y-22830000D03*
X51230000Y-25370000D03*
X51230000Y-22830000D03*
X53770000Y-25370000D03*
X53770000Y-22830000D03*
X56310000Y-25370000D03*
X56310000Y-22830000D03*
X58850000Y-25370000D03*
X58850000Y-22830000D03*
X61390000Y-25370000D03*
X61390000Y-22830000D03*
X63930000Y-25370000D03*
X63930000Y-22830000D03*
X66470000Y-25370000D03*
X66470000Y-22830000D03*
X69010000Y-25370000D03*
X69010000Y-22830000D03*
X71550000Y-25370000D03*
X71550000Y-22830000D03*
X74090000Y-25370000D03*
X74090000Y-22830000D03*
X76630000Y-25370000D03*
X76630000Y-22830000D03*
X49000000Y-41000000D03*
X47000000Y-41000000D03*
X45000000Y-41000000D03*
X43000000Y-41000000D03*
X62000000Y-41000000D03*
X60000000Y-41000000D03*
X58000000Y-41000000D03*
X56000000Y-41000000D03*
X69000000Y-41000000D03*
X71000000Y-41000000D03*
X73000000Y-41000000D03*
X75000000Y-41000000D03*
D13*
X27000000Y-36500000D03*
X30000000Y-36500000D03*
X33000000Y-36500000D03*
X36000000Y-36500000D03*
X39000000Y-36500000D03*
X27000000Y-39500000D03*
X30000000Y-39500000D03*
X33000000Y-39500000D03*
X36000000Y-39500000D03*
X39000000Y-39500000D03*
X37500000Y-29500000D03*
X40500000Y-29500000D03*
X43500000Y-29500000D03*
X46500000Y-29500000D03*
X49500000Y-29500000D03*
X37500000Y-32500000D03*
X40500000Y-32500000D03*
X43500000Y-32500000D03*
X46500000Y-32500000D03*
X49500000Y-32500000D03*
X27000000Y-45000000D03*
X30000000Y-45000000D03*
X33000000Y-45000000D03*
X36000000Y-45000000D03*
X39000000Y-45000000D03*
X27000000Y-48000000D03*
X30000000Y-48000000D03*
X33000000Y-48000000D03*
X36000000Y-48000000D03*
X39000000Y-48000000D03*
X59500000Y-29500000D03*
X62500000Y-29500000D03*
X65500000Y-29500000D03*
X68500000Y-29500000D03*
X71500000Y-29500000D03*
X59500000Y-32500000D03*
X62500000Y-32500000D03*
X65500000Y-32500000D03*
X68500000Y-32500000D03*
X71500000Y-32500000D03*
X30130000Y-29120000D03*
D14*
X28370000Y-26332000D02*
X28375000Y-26337000D01*
X28370000Y-25370000D02*
X28370000Y-26332000D01*
X33260000Y-25560000D02*
X33450000Y-25370000D01*
X31690000Y-27130000D02*
X33260000Y-25560000D01*
X30690000Y-27130000D02*
X31690000Y-27130000D01*
X30130000Y-27690000D02*
X30690000Y-27130000D01*
X30130000Y-29120000D02*
X30130000Y-27690000D01*
X56000000Y-41000000D02*
X56000000Y-28500000D01*
X56000000Y-28500000D02*
X55100000Y-27600000D01*
X55100000Y-27600000D02*
X37650000Y-27600000D01*
X37650000Y-27600000D02*
X37250000Y-27200000D01*
X37250000Y-24090000D02*
X35990000Y-22830000D01*
X37250000Y-27200000D02*
X37250000Y-24090000D01*
X39800000Y-24200000D02*
X38430000Y-22830000D01*
X39800000Y-26550000D02*
X39800000Y-24200000D01*
X40350000Y-27100000D02*
X39800000Y-26550000D01*
X57250000Y-27100000D02*
X40350000Y-27100000D01*
X58000000Y-27850000D02*
X57250000Y-27100000D01*
X58000000Y-41000000D02*
X58000000Y-27850000D01*
X72850000Y-24070000D02*
X74090000Y-22830000D01*
X69700000Y-36900000D02*
X71450000Y-36900000D01*
X72850000Y-35500000D02*
X72850000Y-24070000D01*
X71450000Y-36900000D02*
X72850000Y-35500000D01*
X69000000Y-37600000D02*
X69700000Y-36900000D01*
X69000000Y-41000000D02*
X69000000Y-37600000D01*
X75300000Y-24160000D02*
X76630000Y-22830000D01*
X75300000Y-36650000D02*
X75300000Y-24160000D01*
X71000000Y-41000000D02*
X71000000Y-38100000D01*
X71500000Y-37600000D02*
X74350000Y-37600000D01*
X71000000Y-38100000D02*
X71500000Y-37600000D01*
X74350000Y-37600000D02*
X75300000Y-36650000D01*
D15*
G36*
X79374061Y-20909536D02*
G01*
X78909536Y-21374061D01*
X78544561Y-21920285D01*
X78293162Y-22527216D01*
X78165000Y-23171531D01*
X78165000Y-23828469D01*
X78293162Y-24472784D01*
X78544561Y-25079715D01*
X78909536Y-25625939D01*
X79374061Y-26090464D01*
X79920285Y-26455439D01*
X80527216Y-26706838D01*
X81171531Y-26835000D01*
X81828469Y-26835000D01*
X82472784Y-26706838D01*
X83079715Y-26455439D01*
X83625939Y-26090464D01*
X84090464Y-25625939D01*
X84340001Y-25252480D01*
X84340000Y-44747518D01*
X84090464Y-44374061D01*
X83625939Y-43909536D01*
X83079715Y-43544561D01*
X82472784Y-43293162D01*
X81828469Y-43165000D01*
X81171531Y-43165000D01*
X80527216Y-43293162D01*
X79920285Y-43544561D01*
X79374061Y-43909536D01*
X78909536Y-44374061D01*
X78544561Y-44920285D01*
X78293162Y-45527216D01*
X78165000Y-46171531D01*
X78165000Y-46828469D01*
X78293162Y-47472784D01*
X78544561Y-48079715D01*
X78909536Y-48625939D01*
X79374061Y-49090464D01*
X79747518Y-49340000D01*
X25252482Y-49340000D01*
X25625939Y-49090464D01*
X26090464Y-48625939D01*
X26455439Y-48079715D01*
X26706838Y-47472784D01*
X26835000Y-46828469D01*
X26835000Y-46171531D01*
X26706838Y-45527216D01*
X26455439Y-44920285D01*
X26090464Y-44374061D01*
X25625939Y-43909536D01*
X25079715Y-43544561D01*
X24472784Y-43293162D01*
X23828469Y-43165000D01*
X23171531Y-43165000D01*
X22527216Y-43293162D01*
X21920285Y-43544561D01*
X21374061Y-43909536D01*
X20909536Y-44374061D01*
X20660000Y-44747518D01*
X20660000Y-40862408D01*
X41603000Y-40862408D01*
X41603000Y-41137592D01*
X41656686Y-41407490D01*
X41761995Y-41661727D01*
X41914880Y-41890535D01*
X42109465Y-42085120D01*
X42338273Y-42238005D01*
X42592510Y-42343314D01*
X42862408Y-42397000D01*
X43137592Y-42397000D01*
X43407490Y-42343314D01*
X43661727Y-42238005D01*
X43890535Y-42085120D01*
X44000000Y-41975655D01*
X44109465Y-42085120D01*
X44338273Y-42238005D01*
X44592510Y-42343314D01*
X44862408Y-42397000D01*
X45137592Y-42397000D01*
X45407490Y-42343314D01*
X45661727Y-42238005D01*
X45890535Y-42085120D01*
X46000000Y-41975655D01*
X46109465Y-42085120D01*
X46338273Y-42238005D01*
X46592510Y-42343314D01*
X46862408Y-42397000D01*
X47137592Y-42397000D01*
X47407490Y-42343314D01*
X47661727Y-42238005D01*
X47890535Y-42085120D01*
X48010090Y-41965565D01*
X48214040Y-41965565D01*
X48281020Y-42205656D01*
X48530048Y-42322756D01*
X48797135Y-42389023D01*
X49072017Y-42401910D01*
X49344133Y-42360922D01*
X49603023Y-42267636D01*
X49718980Y-42205656D01*
X49785960Y-41965565D01*
X49000000Y-41179605D01*
X48214040Y-41965565D01*
X48010090Y-41965565D01*
X48085120Y-41890535D01*
X48238005Y-41661727D01*
X48294105Y-41526290D01*
X48820395Y-41000000D01*
X49179605Y-41000000D01*
X49965565Y-41785960D01*
X50205656Y-41718980D01*
X50322756Y-41469952D01*
X50389023Y-41202865D01*
X50401910Y-40927983D01*
X50360922Y-40655867D01*
X50267636Y-40396977D01*
X50205656Y-40281020D01*
X49965565Y-40214040D01*
X49179605Y-41000000D01*
X48820395Y-41000000D01*
X48294105Y-40473710D01*
X48238005Y-40338273D01*
X48085120Y-40109465D01*
X48010090Y-40034435D01*
X48214040Y-40034435D01*
X49000000Y-40820395D01*
X49785960Y-40034435D01*
X49718980Y-39794344D01*
X49469952Y-39677244D01*
X49202865Y-39610977D01*
X48927983Y-39598090D01*
X48655867Y-39639078D01*
X48396977Y-39732364D01*
X48281020Y-39794344D01*
X48214040Y-40034435D01*
X48010090Y-40034435D01*
X47890535Y-39914880D01*
X47661727Y-39761995D01*
X47407490Y-39656686D01*
X47137592Y-39603000D01*
X46862408Y-39603000D01*
X46592510Y-39656686D01*
X46338273Y-39761995D01*
X46109465Y-39914880D01*
X46000000Y-40024345D01*
X45890535Y-39914880D01*
X45661727Y-39761995D01*
X45407490Y-39656686D01*
X45137592Y-39603000D01*
X44862408Y-39603000D01*
X44592510Y-39656686D01*
X44338273Y-39761995D01*
X44109465Y-39914880D01*
X44000000Y-40024345D01*
X43890535Y-39914880D01*
X43661727Y-39761995D01*
X43407490Y-39656686D01*
X43137592Y-39603000D01*
X42862408Y-39603000D01*
X42592510Y-39656686D01*
X42338273Y-39761995D01*
X42109465Y-39914880D01*
X41914880Y-40109465D01*
X41761995Y-40338273D01*
X41656686Y-40592510D01*
X41603000Y-40862408D01*
X20660000Y-40862408D01*
X20660000Y-25252482D01*
X20909536Y-25625939D01*
X21374061Y-26090464D01*
X21920285Y-26455439D01*
X22527216Y-26706838D01*
X23171531Y-26835000D01*
X23828469Y-26835000D01*
X24472784Y-26706838D01*
X25079715Y-26455439D01*
X25625939Y-26090464D01*
X26090464Y-25625939D01*
X26455439Y-25079715D01*
X26650829Y-24608000D01*
X26969928Y-24608000D01*
X26969928Y-26132000D01*
X26982188Y-26256482D01*
X27018498Y-26376180D01*
X27077463Y-26486494D01*
X27156815Y-26583185D01*
X27253506Y-26662537D01*
X27363820Y-26721502D01*
X27483518Y-26757812D01*
X27608000Y-26770072D01*
X27778690Y-26770072D01*
X27847763Y-26854238D01*
X27875808Y-26877254D01*
X27880807Y-26882253D01*
X27964681Y-26951086D01*
X28092367Y-27019336D01*
X28230915Y-27061365D01*
X28374999Y-27075556D01*
X28519084Y-27061365D01*
X28657633Y-27019336D01*
X28785319Y-26951086D01*
X28897237Y-26859237D01*
X28970413Y-26770072D01*
X29132000Y-26770072D01*
X29256482Y-26757812D01*
X29376180Y-26721502D01*
X29486494Y-26662537D01*
X29583185Y-26583185D01*
X29662537Y-26486494D01*
X29721502Y-26376180D01*
X29757812Y-26256482D01*
X29766080Y-26172535D01*
X29824880Y-26260535D01*
X30019465Y-26455120D01*
X30203731Y-26578243D01*
X30167762Y-26607762D01*
X30144746Y-26635807D01*
X29635808Y-27144746D01*
X29607763Y-27167762D01*
X29515914Y-27279680D01*
X29481489Y-27344085D01*
X29447664Y-27407367D01*
X29405635Y-27545915D01*
X29391444Y-27690000D01*
X29395001Y-27726115D01*
X29395001Y-28391288D01*
X29326063Y-28460226D01*
X29212795Y-28629744D01*
X29134774Y-28818102D01*
X29095000Y-29018061D01*
X29095000Y-29221939D01*
X29134774Y-29421898D01*
X29212795Y-29610256D01*
X29326063Y-29779774D01*
X29470226Y-29923937D01*
X29639744Y-30037205D01*
X29828102Y-30115226D01*
X30028061Y-30155000D01*
X30231939Y-30155000D01*
X30431898Y-30115226D01*
X30620256Y-30037205D01*
X30789774Y-29923937D01*
X30933937Y-29779774D01*
X31047205Y-29610256D01*
X31125226Y-29421898D01*
X31165000Y-29221939D01*
X31165000Y-29018061D01*
X31125226Y-28818102D01*
X31047205Y-28629744D01*
X30933937Y-28460226D01*
X30865000Y-28391289D01*
X30865000Y-27994446D01*
X30994447Y-27865000D01*
X31653895Y-27865000D01*
X31690000Y-27868556D01*
X31726105Y-27865000D01*
X31834085Y-27854365D01*
X31972633Y-27812337D01*
X32100320Y-27744087D01*
X32212238Y-27652238D01*
X32235258Y-27624188D01*
X33128941Y-26730506D01*
X33312408Y-26767000D01*
X33587592Y-26767000D01*
X33857490Y-26713314D01*
X34111727Y-26608005D01*
X34340535Y-26455120D01*
X34535120Y-26260535D01*
X34688005Y-26031727D01*
X34720000Y-25954485D01*
X34751995Y-26031727D01*
X34904880Y-26260535D01*
X35099465Y-26455120D01*
X35328273Y-26608005D01*
X35582510Y-26713314D01*
X35852408Y-26767000D01*
X36127592Y-26767000D01*
X36397490Y-26713314D01*
X36515000Y-26664639D01*
X36515000Y-27163895D01*
X36511444Y-27200000D01*
X36523004Y-27317367D01*
X36525635Y-27344084D01*
X36567663Y-27482632D01*
X36635913Y-27610319D01*
X36727762Y-27722237D01*
X36755808Y-27745254D01*
X37104741Y-28094187D01*
X37127762Y-28122238D01*
X37239680Y-28214087D01*
X37367367Y-28282337D01*
X37505915Y-28324365D01*
X37613895Y-28335000D01*
X37613904Y-28335000D01*
X37649999Y-28338555D01*
X37686094Y-28335000D01*
X54795554Y-28335000D01*
X55265001Y-28804448D01*
X55265000Y-39810955D01*
X55109465Y-39914880D01*
X54914880Y-40109465D01*
X54761995Y-40338273D01*
X54656686Y-40592510D01*
X54603000Y-40862408D01*
X54603000Y-41137592D01*
X54656686Y-41407490D01*
X54761995Y-41661727D01*
X54914880Y-41890535D01*
X55109465Y-42085120D01*
X55338273Y-42238005D01*
X55592510Y-42343314D01*
X55862408Y-42397000D01*
X56137592Y-42397000D01*
X56407490Y-42343314D01*
X56661727Y-42238005D01*
X56890535Y-42085120D01*
X57000000Y-41975655D01*
X57109465Y-42085120D01*
X57338273Y-42238005D01*
X57592510Y-42343314D01*
X57862408Y-42397000D01*
X58137592Y-42397000D01*
X58407490Y-42343314D01*
X58661727Y-42238005D01*
X58890535Y-42085120D01*
X59000000Y-41975655D01*
X59109465Y-42085120D01*
X59338273Y-42238005D01*
X59592510Y-42343314D01*
X59862408Y-42397000D01*
X60137592Y-42397000D01*
X60407490Y-42343314D01*
X60661727Y-42238005D01*
X60890535Y-42085120D01*
X61010090Y-41965565D01*
X61214040Y-41965565D01*
X61281020Y-42205656D01*
X61530048Y-42322756D01*
X61797135Y-42389023D01*
X62072017Y-42401910D01*
X62344133Y-42360922D01*
X62603023Y-42267636D01*
X62718980Y-42205656D01*
X62785960Y-41965565D01*
X62000000Y-41179605D01*
X61214040Y-41965565D01*
X61010090Y-41965565D01*
X61085120Y-41890535D01*
X61238005Y-41661727D01*
X61294105Y-41526290D01*
X61820395Y-41000000D01*
X62179605Y-41000000D01*
X62965565Y-41785960D01*
X63205656Y-41718980D01*
X63322756Y-41469952D01*
X63389023Y-41202865D01*
X63401910Y-40927983D01*
X63360922Y-40655867D01*
X63267636Y-40396977D01*
X63205656Y-40281020D01*
X62965565Y-40214040D01*
X62179605Y-41000000D01*
X61820395Y-41000000D01*
X61294105Y-40473710D01*
X61238005Y-40338273D01*
X61085120Y-40109465D01*
X61010090Y-40034435D01*
X61214040Y-40034435D01*
X62000000Y-40820395D01*
X62785960Y-40034435D01*
X62718980Y-39794344D01*
X62469952Y-39677244D01*
X62202865Y-39610977D01*
X61927983Y-39598090D01*
X61655867Y-39639078D01*
X61396977Y-39732364D01*
X61281020Y-39794344D01*
X61214040Y-40034435D01*
X61010090Y-40034435D01*
X60890535Y-39914880D01*
X60661727Y-39761995D01*
X60407490Y-39656686D01*
X60137592Y-39603000D01*
X59862408Y-39603000D01*
X59592510Y-39656686D01*
X59338273Y-39761995D01*
X59109465Y-39914880D01*
X59000000Y-40024345D01*
X58890535Y-39914880D01*
X58735000Y-39810955D01*
X58735000Y-27886096D01*
X58738555Y-27849999D01*
X58735000Y-27813902D01*
X58735000Y-27813895D01*
X58724365Y-27705915D01*
X58682337Y-27567367D01*
X58614087Y-27439680D01*
X58522238Y-27327762D01*
X58494193Y-27304746D01*
X57795258Y-26605812D01*
X57772238Y-26577762D01*
X57660320Y-26485913D01*
X57532633Y-26417663D01*
X57394085Y-26375635D01*
X57290247Y-26365408D01*
X57320090Y-26335565D01*
X58064040Y-26335565D01*
X58131020Y-26575656D01*
X58380048Y-26692756D01*
X58647135Y-26759023D01*
X58922017Y-26771910D01*
X59194133Y-26730922D01*
X59453023Y-26637636D01*
X59568980Y-26575656D01*
X59635960Y-26335565D01*
X58850000Y-25549605D01*
X58064040Y-26335565D01*
X57320090Y-26335565D01*
X57395120Y-26260535D01*
X57548005Y-26031727D01*
X57577692Y-25960057D01*
X57582364Y-25973023D01*
X57644344Y-26088980D01*
X57884435Y-26155960D01*
X58670395Y-25370000D01*
X57884435Y-24584040D01*
X57644344Y-24651020D01*
X57580515Y-24786760D01*
X57548005Y-24708273D01*
X57395120Y-24479465D01*
X57200535Y-24284880D01*
X56971727Y-24131995D01*
X56894485Y-24100000D01*
X56971727Y-24068005D01*
X57200535Y-23915120D01*
X57395120Y-23720535D01*
X57548005Y-23491727D01*
X57580000Y-23414485D01*
X57611995Y-23491727D01*
X57764880Y-23720535D01*
X57959465Y-23915120D01*
X58188273Y-24068005D01*
X58259943Y-24097692D01*
X58246977Y-24102364D01*
X58131020Y-24164344D01*
X58064040Y-24404435D01*
X58850000Y-25190395D01*
X59635960Y-24404435D01*
X59568980Y-24164344D01*
X59433240Y-24100515D01*
X59511727Y-24068005D01*
X59740535Y-23915120D01*
X59935120Y-23720535D01*
X60088005Y-23491727D01*
X60120000Y-23414485D01*
X60151995Y-23491727D01*
X60304880Y-23720535D01*
X60499465Y-23915120D01*
X60728273Y-24068005D01*
X60805515Y-24100000D01*
X60728273Y-24131995D01*
X60499465Y-24284880D01*
X60304880Y-24479465D01*
X60151995Y-24708273D01*
X60122308Y-24779943D01*
X60117636Y-24766977D01*
X60055656Y-24651020D01*
X59815565Y-24584040D01*
X59029605Y-25370000D01*
X59815565Y-26155960D01*
X60055656Y-26088980D01*
X60119485Y-25953240D01*
X60151995Y-26031727D01*
X60304880Y-26260535D01*
X60499465Y-26455120D01*
X60728273Y-26608005D01*
X60982510Y-26713314D01*
X61252408Y-26767000D01*
X61527592Y-26767000D01*
X61797490Y-26713314D01*
X62051727Y-26608005D01*
X62280535Y-26455120D01*
X62475120Y-26260535D01*
X62628005Y-26031727D01*
X62660000Y-25954485D01*
X62691995Y-26031727D01*
X62844880Y-26260535D01*
X63039465Y-26455120D01*
X63268273Y-26608005D01*
X63522510Y-26713314D01*
X63792408Y-26767000D01*
X64067592Y-26767000D01*
X64337490Y-26713314D01*
X64591727Y-26608005D01*
X64820535Y-26455120D01*
X65015120Y-26260535D01*
X65168005Y-26031727D01*
X65200000Y-25954485D01*
X65231995Y-26031727D01*
X65384880Y-26260535D01*
X65579465Y-26455120D01*
X65808273Y-26608005D01*
X66062510Y-26713314D01*
X66332408Y-26767000D01*
X66607592Y-26767000D01*
X66877490Y-26713314D01*
X67131727Y-26608005D01*
X67360535Y-26455120D01*
X67555120Y-26260535D01*
X67708005Y-26031727D01*
X67740000Y-25954485D01*
X67771995Y-26031727D01*
X67924880Y-26260535D01*
X68119465Y-26455120D01*
X68348273Y-26608005D01*
X68602510Y-26713314D01*
X68872408Y-26767000D01*
X69147592Y-26767000D01*
X69417490Y-26713314D01*
X69671727Y-26608005D01*
X69900535Y-26455120D01*
X70095120Y-26260535D01*
X70248005Y-26031727D01*
X70280000Y-25954485D01*
X70311995Y-26031727D01*
X70464880Y-26260535D01*
X70659465Y-26455120D01*
X70888273Y-26608005D01*
X71142510Y-26713314D01*
X71412408Y-26767000D01*
X71687592Y-26767000D01*
X71957490Y-26713314D01*
X72115001Y-26648071D01*
X72115000Y-35195553D01*
X71145554Y-36165000D01*
X69736094Y-36165000D01*
X69699999Y-36161445D01*
X69663904Y-36165000D01*
X69663895Y-36165000D01*
X69555915Y-36175635D01*
X69417367Y-36217663D01*
X69289680Y-36285913D01*
X69177762Y-36377762D01*
X69154746Y-36405807D01*
X68505808Y-37054746D01*
X68477763Y-37077762D01*
X68385914Y-37189680D01*
X68346143Y-37264087D01*
X68317664Y-37317367D01*
X68275635Y-37455915D01*
X68261444Y-37600000D01*
X68265001Y-37636115D01*
X68265000Y-39810954D01*
X68109465Y-39914880D01*
X67914880Y-40109465D01*
X67761995Y-40338273D01*
X67656686Y-40592510D01*
X67603000Y-40862408D01*
X67603000Y-41137592D01*
X67656686Y-41407490D01*
X67761995Y-41661727D01*
X67914880Y-41890535D01*
X68109465Y-42085120D01*
X68338273Y-42238005D01*
X68592510Y-42343314D01*
X68862408Y-42397000D01*
X69137592Y-42397000D01*
X69407490Y-42343314D01*
X69661727Y-42238005D01*
X69890535Y-42085120D01*
X70000000Y-41975655D01*
X70109465Y-42085120D01*
X70338273Y-42238005D01*
X70592510Y-42343314D01*
X70862408Y-42397000D01*
X71137592Y-42397000D01*
X71407490Y-42343314D01*
X71661727Y-42238005D01*
X71890535Y-42085120D01*
X72000000Y-41975655D01*
X72109465Y-42085120D01*
X72338273Y-42238005D01*
X72592510Y-42343314D01*
X72862408Y-42397000D01*
X73137592Y-42397000D01*
X73407490Y-42343314D01*
X73661727Y-42238005D01*
X73890535Y-42085120D01*
X74010090Y-41965565D01*
X74214040Y-41965565D01*
X74281020Y-42205656D01*
X74530048Y-42322756D01*
X74797135Y-42389023D01*
X75072017Y-42401910D01*
X75344133Y-42360922D01*
X75603023Y-42267636D01*
X75718980Y-42205656D01*
X75785960Y-41965565D01*
X75000000Y-41179605D01*
X74214040Y-41965565D01*
X74010090Y-41965565D01*
X74085120Y-41890535D01*
X74238005Y-41661727D01*
X74294105Y-41526290D01*
X74820395Y-41000000D01*
X75179605Y-41000000D01*
X75965565Y-41785960D01*
X76205656Y-41718980D01*
X76322756Y-41469952D01*
X76389023Y-41202865D01*
X76401910Y-40927983D01*
X76360922Y-40655867D01*
X76267636Y-40396977D01*
X76205656Y-40281020D01*
X75965565Y-40214040D01*
X75179605Y-41000000D01*
X74820395Y-41000000D01*
X74294105Y-40473710D01*
X74238005Y-40338273D01*
X74085120Y-40109465D01*
X74010090Y-40034435D01*
X74214040Y-40034435D01*
X75000000Y-40820395D01*
X75785960Y-40034435D01*
X75718980Y-39794344D01*
X75469952Y-39677244D01*
X75202865Y-39610977D01*
X74927983Y-39598090D01*
X74655867Y-39639078D01*
X74396977Y-39732364D01*
X74281020Y-39794344D01*
X74214040Y-40034435D01*
X74010090Y-40034435D01*
X73890535Y-39914880D01*
X73661727Y-39761995D01*
X73407490Y-39656686D01*
X73137592Y-39603000D01*
X72862408Y-39603000D01*
X72592510Y-39656686D01*
X72338273Y-39761995D01*
X72109465Y-39914880D01*
X72000000Y-40024345D01*
X71890535Y-39914880D01*
X71735000Y-39810955D01*
X71735000Y-38404446D01*
X71804447Y-38335000D01*
X74313895Y-38335000D01*
X74350000Y-38338556D01*
X74386105Y-38335000D01*
X74494085Y-38324365D01*
X74632633Y-38282337D01*
X74760320Y-38214087D01*
X74872238Y-38122238D01*
X74895258Y-38094188D01*
X75794197Y-37195250D01*
X75822237Y-37172238D01*
X75845250Y-37144197D01*
X75845253Y-37144194D01*
X75876756Y-37105807D01*
X75914087Y-37060320D01*
X75982337Y-36932633D01*
X76024365Y-36794085D01*
X76035000Y-36686105D01*
X76035000Y-36686104D01*
X76038556Y-36650000D01*
X76035000Y-36613895D01*
X76035000Y-26633955D01*
X76160048Y-26692756D01*
X76427135Y-26759023D01*
X76702017Y-26771910D01*
X76974133Y-26730922D01*
X77233023Y-26637636D01*
X77348980Y-26575656D01*
X77415960Y-26335565D01*
X76630000Y-25549605D01*
X76615858Y-25563748D01*
X76436253Y-25384143D01*
X76450395Y-25370000D01*
X76809605Y-25370000D01*
X77595565Y-26155960D01*
X77835656Y-26088980D01*
X77952756Y-25839952D01*
X78019023Y-25572865D01*
X78031910Y-25297983D01*
X77990922Y-25025867D01*
X77897636Y-24766977D01*
X77835656Y-24651020D01*
X77595565Y-24584040D01*
X76809605Y-25370000D01*
X76450395Y-25370000D01*
X76436253Y-25355858D01*
X76615858Y-25176253D01*
X76630000Y-25190395D01*
X77415960Y-24404435D01*
X77348980Y-24164344D01*
X77213240Y-24100515D01*
X77291727Y-24068005D01*
X77520535Y-23915120D01*
X77715120Y-23720535D01*
X77868005Y-23491727D01*
X77973314Y-23237490D01*
X78027000Y-22967592D01*
X78027000Y-22692408D01*
X77973314Y-22422510D01*
X77868005Y-22168273D01*
X77715120Y-21939465D01*
X77520535Y-21744880D01*
X77291727Y-21591995D01*
X77037490Y-21486686D01*
X76767592Y-21433000D01*
X76492408Y-21433000D01*
X76222510Y-21486686D01*
X75968273Y-21591995D01*
X75739465Y-21744880D01*
X75544880Y-21939465D01*
X75391995Y-22168273D01*
X75360000Y-22245515D01*
X75328005Y-22168273D01*
X75175120Y-21939465D01*
X74980535Y-21744880D01*
X74751727Y-21591995D01*
X74497490Y-21486686D01*
X74227592Y-21433000D01*
X73952408Y-21433000D01*
X73682510Y-21486686D01*
X73428273Y-21591995D01*
X73199465Y-21744880D01*
X73004880Y-21939465D01*
X72851995Y-22168273D01*
X72820000Y-22245515D01*
X72788005Y-22168273D01*
X72635120Y-21939465D01*
X72440535Y-21744880D01*
X72211727Y-21591995D01*
X71957490Y-21486686D01*
X71687592Y-21433000D01*
X71412408Y-21433000D01*
X71142510Y-21486686D01*
X70888273Y-21591995D01*
X70659465Y-21744880D01*
X70464880Y-21939465D01*
X70311995Y-22168273D01*
X70282308Y-22239943D01*
X70277636Y-22226977D01*
X70215656Y-22111020D01*
X69975565Y-22044040D01*
X69189605Y-22830000D01*
X69975565Y-23615960D01*
X70215656Y-23548980D01*
X70279485Y-23413240D01*
X70311995Y-23491727D01*
X70464880Y-23720535D01*
X70659465Y-23915120D01*
X70888273Y-24068005D01*
X70965515Y-24100000D01*
X70888273Y-24131995D01*
X70659465Y-24284880D01*
X70464880Y-24479465D01*
X70311995Y-24708273D01*
X70280000Y-24785515D01*
X70248005Y-24708273D01*
X70095120Y-24479465D01*
X69900535Y-24284880D01*
X69671727Y-24131995D01*
X69600057Y-24102308D01*
X69613023Y-24097636D01*
X69728980Y-24035656D01*
X69795960Y-23795565D01*
X69010000Y-23009605D01*
X68224040Y-23795565D01*
X68291020Y-24035656D01*
X68426760Y-24099485D01*
X68348273Y-24131995D01*
X68119465Y-24284880D01*
X67924880Y-24479465D01*
X67771995Y-24708273D01*
X67740000Y-24785515D01*
X67708005Y-24708273D01*
X67555120Y-24479465D01*
X67360535Y-24284880D01*
X67131727Y-24131995D01*
X67054485Y-24100000D01*
X67131727Y-24068005D01*
X67360535Y-23915120D01*
X67555120Y-23720535D01*
X67708005Y-23491727D01*
X67737692Y-23420057D01*
X67742364Y-23433023D01*
X67804344Y-23548980D01*
X68044435Y-23615960D01*
X68830395Y-22830000D01*
X68044435Y-22044040D01*
X67804344Y-22111020D01*
X67740515Y-22246760D01*
X67708005Y-22168273D01*
X67555120Y-21939465D01*
X67480090Y-21864435D01*
X68224040Y-21864435D01*
X69010000Y-22650395D01*
X69795960Y-21864435D01*
X69728980Y-21624344D01*
X69479952Y-21507244D01*
X69212865Y-21440977D01*
X68937983Y-21428090D01*
X68665867Y-21469078D01*
X68406977Y-21562364D01*
X68291020Y-21624344D01*
X68224040Y-21864435D01*
X67480090Y-21864435D01*
X67360535Y-21744880D01*
X67131727Y-21591995D01*
X66877490Y-21486686D01*
X66607592Y-21433000D01*
X66332408Y-21433000D01*
X66062510Y-21486686D01*
X65808273Y-21591995D01*
X65579465Y-21744880D01*
X65384880Y-21939465D01*
X65231995Y-22168273D01*
X65202308Y-22239943D01*
X65197636Y-22226977D01*
X65135656Y-22111020D01*
X64895565Y-22044040D01*
X64109605Y-22830000D01*
X64895565Y-23615960D01*
X65135656Y-23548980D01*
X65199485Y-23413240D01*
X65231995Y-23491727D01*
X65384880Y-23720535D01*
X65579465Y-23915120D01*
X65808273Y-24068005D01*
X65885515Y-24100000D01*
X65808273Y-24131995D01*
X65579465Y-24284880D01*
X65384880Y-24479465D01*
X65231995Y-24708273D01*
X65200000Y-24785515D01*
X65168005Y-24708273D01*
X65015120Y-24479465D01*
X64820535Y-24284880D01*
X64591727Y-24131995D01*
X64520057Y-24102308D01*
X64533023Y-24097636D01*
X64648980Y-24035656D01*
X64715960Y-23795565D01*
X63930000Y-23009605D01*
X63144040Y-23795565D01*
X63211020Y-24035656D01*
X63346760Y-24099485D01*
X63268273Y-24131995D01*
X63039465Y-24284880D01*
X62844880Y-24479465D01*
X62691995Y-24708273D01*
X62660000Y-24785515D01*
X62628005Y-24708273D01*
X62475120Y-24479465D01*
X62280535Y-24284880D01*
X62051727Y-24131995D01*
X61974485Y-24100000D01*
X62051727Y-24068005D01*
X62280535Y-23915120D01*
X62475120Y-23720535D01*
X62628005Y-23491727D01*
X62657692Y-23420057D01*
X62662364Y-23433023D01*
X62724344Y-23548980D01*
X62964435Y-23615960D01*
X63750395Y-22830000D01*
X62964435Y-22044040D01*
X62724344Y-22111020D01*
X62660515Y-22246760D01*
X62628005Y-22168273D01*
X62475120Y-21939465D01*
X62400090Y-21864435D01*
X63144040Y-21864435D01*
X63930000Y-22650395D01*
X64715960Y-21864435D01*
X64648980Y-21624344D01*
X64399952Y-21507244D01*
X64132865Y-21440977D01*
X63857983Y-21428090D01*
X63585867Y-21469078D01*
X63326977Y-21562364D01*
X63211020Y-21624344D01*
X63144040Y-21864435D01*
X62400090Y-21864435D01*
X62280535Y-21744880D01*
X62051727Y-21591995D01*
X61797490Y-21486686D01*
X61527592Y-21433000D01*
X61252408Y-21433000D01*
X60982510Y-21486686D01*
X60728273Y-21591995D01*
X60499465Y-21744880D01*
X60304880Y-21939465D01*
X60151995Y-22168273D01*
X60120000Y-22245515D01*
X60088005Y-22168273D01*
X59935120Y-21939465D01*
X59740535Y-21744880D01*
X59511727Y-21591995D01*
X59257490Y-21486686D01*
X58987592Y-21433000D01*
X58712408Y-21433000D01*
X58442510Y-21486686D01*
X58188273Y-21591995D01*
X57959465Y-21744880D01*
X57764880Y-21939465D01*
X57611995Y-22168273D01*
X57580000Y-22245515D01*
X57548005Y-22168273D01*
X57395120Y-21939465D01*
X57200535Y-21744880D01*
X56971727Y-21591995D01*
X56717490Y-21486686D01*
X56447592Y-21433000D01*
X56172408Y-21433000D01*
X55902510Y-21486686D01*
X55648273Y-21591995D01*
X55419465Y-21744880D01*
X55224880Y-21939465D01*
X55071995Y-22168273D01*
X55040000Y-22245515D01*
X55008005Y-22168273D01*
X54855120Y-21939465D01*
X54660535Y-21744880D01*
X54431727Y-21591995D01*
X54177490Y-21486686D01*
X53907592Y-21433000D01*
X53632408Y-21433000D01*
X53362510Y-21486686D01*
X53108273Y-21591995D01*
X52879465Y-21744880D01*
X52684880Y-21939465D01*
X52531995Y-22168273D01*
X52502308Y-22239943D01*
X52497636Y-22226977D01*
X52435656Y-22111020D01*
X52195565Y-22044040D01*
X51409605Y-22830000D01*
X52195565Y-23615960D01*
X52435656Y-23548980D01*
X52499485Y-23413240D01*
X52531995Y-23491727D01*
X52684880Y-23720535D01*
X52879465Y-23915120D01*
X53108273Y-24068005D01*
X53185515Y-24100000D01*
X53108273Y-24131995D01*
X52879465Y-24284880D01*
X52684880Y-24479465D01*
X52531995Y-24708273D01*
X52500000Y-24785515D01*
X52468005Y-24708273D01*
X52315120Y-24479465D01*
X52120535Y-24284880D01*
X51891727Y-24131995D01*
X51820057Y-24102308D01*
X51833023Y-24097636D01*
X51948980Y-24035656D01*
X52015960Y-23795565D01*
X51230000Y-23009605D01*
X50444040Y-23795565D01*
X50511020Y-24035656D01*
X50646760Y-24099485D01*
X50568273Y-24131995D01*
X50339465Y-24284880D01*
X50144880Y-24479465D01*
X49991995Y-24708273D01*
X49960000Y-24785515D01*
X49928005Y-24708273D01*
X49775120Y-24479465D01*
X49580535Y-24284880D01*
X49351727Y-24131995D01*
X49274485Y-24100000D01*
X49351727Y-24068005D01*
X49580535Y-23915120D01*
X49775120Y-23720535D01*
X49928005Y-23491727D01*
X49957692Y-23420057D01*
X49962364Y-23433023D01*
X50024344Y-23548980D01*
X50264435Y-23615960D01*
X51050395Y-22830000D01*
X50264435Y-22044040D01*
X50024344Y-22111020D01*
X49960515Y-22246760D01*
X49928005Y-22168273D01*
X49775120Y-21939465D01*
X49700090Y-21864435D01*
X50444040Y-21864435D01*
X51230000Y-22650395D01*
X52015960Y-21864435D01*
X51948980Y-21624344D01*
X51699952Y-21507244D01*
X51432865Y-21440977D01*
X51157983Y-21428090D01*
X50885867Y-21469078D01*
X50626977Y-21562364D01*
X50511020Y-21624344D01*
X50444040Y-21864435D01*
X49700090Y-21864435D01*
X49580535Y-21744880D01*
X49351727Y-21591995D01*
X49097490Y-21486686D01*
X48827592Y-21433000D01*
X48552408Y-21433000D01*
X48282510Y-21486686D01*
X48028273Y-21591995D01*
X47799465Y-21744880D01*
X47604880Y-21939465D01*
X47451995Y-22168273D01*
X47420000Y-22245515D01*
X47388005Y-22168273D01*
X47235120Y-21939465D01*
X47040535Y-21744880D01*
X46811727Y-21591995D01*
X46557490Y-21486686D01*
X46287592Y-21433000D01*
X46012408Y-21433000D01*
X45742510Y-21486686D01*
X45488273Y-21591995D01*
X45259465Y-21744880D01*
X45064880Y-21939465D01*
X44911995Y-22168273D01*
X44882308Y-22239943D01*
X44877636Y-22226977D01*
X44815656Y-22111020D01*
X44575565Y-22044040D01*
X43789605Y-22830000D01*
X44575565Y-23615960D01*
X44815656Y-23548980D01*
X44879485Y-23413240D01*
X44911995Y-23491727D01*
X45064880Y-23720535D01*
X45259465Y-23915120D01*
X45488273Y-24068005D01*
X45565515Y-24100000D01*
X45488273Y-24131995D01*
X45259465Y-24284880D01*
X45064880Y-24479465D01*
X44911995Y-24708273D01*
X44880000Y-24785515D01*
X44848005Y-24708273D01*
X44695120Y-24479465D01*
X44500535Y-24284880D01*
X44271727Y-24131995D01*
X44200057Y-24102308D01*
X44213023Y-24097636D01*
X44328980Y-24035656D01*
X44395960Y-23795565D01*
X43610000Y-23009605D01*
X42824040Y-23795565D01*
X42891020Y-24035656D01*
X43026760Y-24099485D01*
X42948273Y-24131995D01*
X42719465Y-24284880D01*
X42524880Y-24479465D01*
X42371995Y-24708273D01*
X42340000Y-24785515D01*
X42308005Y-24708273D01*
X42155120Y-24479465D01*
X41960535Y-24284880D01*
X41731727Y-24131995D01*
X41654485Y-24100000D01*
X41731727Y-24068005D01*
X41960535Y-23915120D01*
X42155120Y-23720535D01*
X42308005Y-23491727D01*
X42337692Y-23420057D01*
X42342364Y-23433023D01*
X42404344Y-23548980D01*
X42644435Y-23615960D01*
X43430395Y-22830000D01*
X42644435Y-22044040D01*
X42404344Y-22111020D01*
X42340515Y-22246760D01*
X42308005Y-22168273D01*
X42155120Y-21939465D01*
X42080090Y-21864435D01*
X42824040Y-21864435D01*
X43610000Y-22650395D01*
X44395960Y-21864435D01*
X44328980Y-21624344D01*
X44079952Y-21507244D01*
X43812865Y-21440977D01*
X43537983Y-21428090D01*
X43265867Y-21469078D01*
X43006977Y-21562364D01*
X42891020Y-21624344D01*
X42824040Y-21864435D01*
X42080090Y-21864435D01*
X41960535Y-21744880D01*
X41731727Y-21591995D01*
X41477490Y-21486686D01*
X41207592Y-21433000D01*
X40932408Y-21433000D01*
X40662510Y-21486686D01*
X40408273Y-21591995D01*
X40179465Y-21744880D01*
X39984880Y-21939465D01*
X39831995Y-22168273D01*
X39800000Y-22245515D01*
X39768005Y-22168273D01*
X39615120Y-21939465D01*
X39420535Y-21744880D01*
X39191727Y-21591995D01*
X38937490Y-21486686D01*
X38667592Y-21433000D01*
X38392408Y-21433000D01*
X38122510Y-21486686D01*
X37868273Y-21591995D01*
X37639465Y-21744880D01*
X37444880Y-21939465D01*
X37291995Y-22168273D01*
X37260000Y-22245515D01*
X37228005Y-22168273D01*
X37075120Y-21939465D01*
X36880535Y-21744880D01*
X36651727Y-21591995D01*
X36397490Y-21486686D01*
X36127592Y-21433000D01*
X35852408Y-21433000D01*
X35582510Y-21486686D01*
X35328273Y-21591995D01*
X35099465Y-21744880D01*
X34904880Y-21939465D01*
X34751995Y-22168273D01*
X34722308Y-22239943D01*
X34717636Y-22226977D01*
X34655656Y-22111020D01*
X34415565Y-22044040D01*
X33629605Y-22830000D01*
X34415565Y-23615960D01*
X34655656Y-23548980D01*
X34719485Y-23413240D01*
X34751995Y-23491727D01*
X34904880Y-23720535D01*
X35099465Y-23915120D01*
X35328273Y-24068005D01*
X35405515Y-24100000D01*
X35328273Y-24131995D01*
X35099465Y-24284880D01*
X34904880Y-24479465D01*
X34751995Y-24708273D01*
X34720000Y-24785515D01*
X34688005Y-24708273D01*
X34535120Y-24479465D01*
X34340535Y-24284880D01*
X34111727Y-24131995D01*
X34040057Y-24102308D01*
X34053023Y-24097636D01*
X34168980Y-24035656D01*
X34235960Y-23795565D01*
X33450000Y-23009605D01*
X32664040Y-23795565D01*
X32731020Y-24035656D01*
X32866760Y-24099485D01*
X32788273Y-24131995D01*
X32559465Y-24284880D01*
X32364880Y-24479465D01*
X32211995Y-24708273D01*
X32180000Y-24785515D01*
X32148005Y-24708273D01*
X31995120Y-24479465D01*
X31800535Y-24284880D01*
X31571727Y-24131995D01*
X31494485Y-24100000D01*
X31571727Y-24068005D01*
X31800535Y-23915120D01*
X31995120Y-23720535D01*
X32148005Y-23491727D01*
X32177692Y-23420057D01*
X32182364Y-23433023D01*
X32244344Y-23548980D01*
X32484435Y-23615960D01*
X33270395Y-22830000D01*
X32484435Y-22044040D01*
X32244344Y-22111020D01*
X32180515Y-22246760D01*
X32148005Y-22168273D01*
X31995120Y-21939465D01*
X31920090Y-21864435D01*
X32664040Y-21864435D01*
X33450000Y-22650395D01*
X34235960Y-21864435D01*
X34168980Y-21624344D01*
X33919952Y-21507244D01*
X33652865Y-21440977D01*
X33377983Y-21428090D01*
X33105867Y-21469078D01*
X32846977Y-21562364D01*
X32731020Y-21624344D01*
X32664040Y-21864435D01*
X31920090Y-21864435D01*
X31800535Y-21744880D01*
X31571727Y-21591995D01*
X31317490Y-21486686D01*
X31047592Y-21433000D01*
X30772408Y-21433000D01*
X30502510Y-21486686D01*
X30248273Y-21591995D01*
X30019465Y-21744880D01*
X29824880Y-21939465D01*
X29671995Y-22168273D01*
X29640000Y-22245515D01*
X29608005Y-22168273D01*
X29455120Y-21939465D01*
X29260535Y-21744880D01*
X29031727Y-21591995D01*
X28777490Y-21486686D01*
X28507592Y-21433000D01*
X28232408Y-21433000D01*
X27962510Y-21486686D01*
X27708273Y-21591995D01*
X27479465Y-21744880D01*
X27284880Y-21939465D01*
X27131995Y-22168273D01*
X27026686Y-22422510D01*
X26973000Y-22692408D01*
X26973000Y-22967592D01*
X27026686Y-23237490D01*
X27131995Y-23491727D01*
X27284880Y-23720535D01*
X27479465Y-23915120D01*
X27567465Y-23973920D01*
X27483518Y-23982188D01*
X27363820Y-24018498D01*
X27253506Y-24077463D01*
X27156815Y-24156815D01*
X27077463Y-24253506D01*
X27018498Y-24363820D01*
X26982188Y-24483518D01*
X26969928Y-24608000D01*
X26650829Y-24608000D01*
X26706838Y-24472784D01*
X26835000Y-23828469D01*
X26835000Y-23171531D01*
X26706838Y-22527216D01*
X26455439Y-21920285D01*
X26090464Y-21374061D01*
X25625939Y-20909536D01*
X25252482Y-20660000D01*
X79747518Y-20660000D01*
X79374061Y-20909536D01*
X79374061Y-20909536D01*
G37*
X79374061Y-20909536D02*
X78909536Y-21374061D01*
X78544561Y-21920285D01*
X78293162Y-22527216D01*
X78165000Y-23171531D01*
X78165000Y-23828469D01*
X78293162Y-24472784D01*
X78544561Y-25079715D01*
X78909536Y-25625939D01*
X79374061Y-26090464D01*
X79920285Y-26455439D01*
X80527216Y-26706838D01*
X81171531Y-26835000D01*
X81828469Y-26835000D01*
X82472784Y-26706838D01*
X83079715Y-26455439D01*
X83625939Y-26090464D01*
X84090464Y-25625939D01*
X84340001Y-25252480D01*
X84340000Y-44747518D01*
X84090464Y-44374061D01*
X83625939Y-43909536D01*
X83079715Y-43544561D01*
X82472784Y-43293162D01*
X81828469Y-43165000D01*
X81171531Y-43165000D01*
X80527216Y-43293162D01*
X79920285Y-43544561D01*
X79374061Y-43909536D01*
X78909536Y-44374061D01*
X78544561Y-44920285D01*
X78293162Y-45527216D01*
X78165000Y-46171531D01*
X78165000Y-46828469D01*
X78293162Y-47472784D01*
X78544561Y-48079715D01*
X78909536Y-48625939D01*
X79374061Y-49090464D01*
X79747518Y-49340000D01*
X25252482Y-49340000D01*
X25625939Y-49090464D01*
X26090464Y-48625939D01*
X26455439Y-48079715D01*
X26706838Y-47472784D01*
X26835000Y-46828469D01*
X26835000Y-46171531D01*
X26706838Y-45527216D01*
X26455439Y-44920285D01*
X26090464Y-44374061D01*
X25625939Y-43909536D01*
X25079715Y-43544561D01*
X24472784Y-43293162D01*
X23828469Y-43165000D01*
X23171531Y-43165000D01*
X22527216Y-43293162D01*
X21920285Y-43544561D01*
X21374061Y-43909536D01*
X20909536Y-44374061D01*
X20660000Y-44747518D01*
X20660000Y-40862408D01*
X41603000Y-40862408D01*
X41603000Y-41137592D01*
X41656686Y-41407490D01*
X41761995Y-41661727D01*
X41914880Y-41890535D01*
X42109465Y-42085120D01*
X42338273Y-42238005D01*
X42592510Y-42343314D01*
X42862408Y-42397000D01*
X43137592Y-42397000D01*
X43407490Y-42343314D01*
X43661727Y-42238005D01*
X43890535Y-42085120D01*
X44000000Y-41975655D01*
X44109465Y-42085120D01*
X44338273Y-42238005D01*
X44592510Y-42343314D01*
X44862408Y-42397000D01*
X45137592Y-42397000D01*
X45407490Y-42343314D01*
X45661727Y-42238005D01*
X45890535Y-42085120D01*
X46000000Y-41975655D01*
X46109465Y-42085120D01*
X46338273Y-42238005D01*
X46592510Y-42343314D01*
X46862408Y-42397000D01*
X47137592Y-42397000D01*
X47407490Y-42343314D01*
X47661727Y-42238005D01*
X47890535Y-42085120D01*
X48010090Y-41965565D01*
X48214040Y-41965565D01*
X48281020Y-42205656D01*
X48530048Y-42322756D01*
X48797135Y-42389023D01*
X49072017Y-42401910D01*
X49344133Y-42360922D01*
X49603023Y-42267636D01*
X49718980Y-42205656D01*
X49785960Y-41965565D01*
X49000000Y-41179605D01*
X48214040Y-41965565D01*
X48010090Y-41965565D01*
X48085120Y-41890535D01*
X48238005Y-41661727D01*
X48294105Y-41526290D01*
X48820395Y-41000000D01*
X49179605Y-41000000D01*
X49965565Y-41785960D01*
X50205656Y-41718980D01*
X50322756Y-41469952D01*
X50389023Y-41202865D01*
X50401910Y-40927983D01*
X50360922Y-40655867D01*
X50267636Y-40396977D01*
X50205656Y-40281020D01*
X49965565Y-40214040D01*
X49179605Y-41000000D01*
X48820395Y-41000000D01*
X48294105Y-40473710D01*
X48238005Y-40338273D01*
X48085120Y-40109465D01*
X48010090Y-40034435D01*
X48214040Y-40034435D01*
X49000000Y-40820395D01*
X49785960Y-40034435D01*
X49718980Y-39794344D01*
X49469952Y-39677244D01*
X49202865Y-39610977D01*
X48927983Y-39598090D01*
X48655867Y-39639078D01*
X48396977Y-39732364D01*
X48281020Y-39794344D01*
X48214040Y-40034435D01*
X48010090Y-40034435D01*
X47890535Y-39914880D01*
X47661727Y-39761995D01*
X47407490Y-39656686D01*
X47137592Y-39603000D01*
X46862408Y-39603000D01*
X46592510Y-39656686D01*
X46338273Y-39761995D01*
X46109465Y-39914880D01*
X46000000Y-40024345D01*
X45890535Y-39914880D01*
X45661727Y-39761995D01*
X45407490Y-39656686D01*
X45137592Y-39603000D01*
X44862408Y-39603000D01*
X44592510Y-39656686D01*
X44338273Y-39761995D01*
X44109465Y-39914880D01*
X44000000Y-40024345D01*
X43890535Y-39914880D01*
X43661727Y-39761995D01*
X43407490Y-39656686D01*
X43137592Y-39603000D01*
X42862408Y-39603000D01*
X42592510Y-39656686D01*
X42338273Y-39761995D01*
X42109465Y-39914880D01*
X41914880Y-40109465D01*
X41761995Y-40338273D01*
X41656686Y-40592510D01*
X41603000Y-40862408D01*
X20660000Y-40862408D01*
X20660000Y-25252482D01*
X20909536Y-25625939D01*
X21374061Y-26090464D01*
X21920285Y-26455439D01*
X22527216Y-26706838D01*
X23171531Y-26835000D01*
X23828469Y-26835000D01*
X24472784Y-26706838D01*
X25079715Y-26455439D01*
X25625939Y-26090464D01*
X26090464Y-25625939D01*
X26455439Y-25079715D01*
X26650829Y-24608000D01*
X26969928Y-24608000D01*
X26969928Y-26132000D01*
X26982188Y-26256482D01*
X27018498Y-26376180D01*
X27077463Y-26486494D01*
X27156815Y-26583185D01*
X27253506Y-26662537D01*
X27363820Y-26721502D01*
X27483518Y-26757812D01*
X27608000Y-26770072D01*
X27778690Y-26770072D01*
X27847763Y-26854238D01*
X27875808Y-26877254D01*
X27880807Y-26882253D01*
X27964681Y-26951086D01*
X28092367Y-27019336D01*
X28230915Y-27061365D01*
X28374999Y-27075556D01*
X28519084Y-27061365D01*
X28657633Y-27019336D01*
X28785319Y-26951086D01*
X28897237Y-26859237D01*
X28970413Y-26770072D01*
X29132000Y-26770072D01*
X29256482Y-26757812D01*
X29376180Y-26721502D01*
X29486494Y-26662537D01*
X29583185Y-26583185D01*
X29662537Y-26486494D01*
X29721502Y-26376180D01*
X29757812Y-26256482D01*
X29766080Y-26172535D01*
X29824880Y-26260535D01*
X30019465Y-26455120D01*
X30203731Y-26578243D01*
X30167762Y-26607762D01*
X30144746Y-26635807D01*
X29635808Y-27144746D01*
X29607763Y-27167762D01*
X29515914Y-27279680D01*
X29481489Y-27344085D01*
X29447664Y-27407367D01*
X29405635Y-27545915D01*
X29391444Y-27690000D01*
X29395001Y-27726115D01*
X29395001Y-28391288D01*
X29326063Y-28460226D01*
X29212795Y-28629744D01*
X29134774Y-28818102D01*
X29095000Y-29018061D01*
X29095000Y-29221939D01*
X29134774Y-29421898D01*
X29212795Y-29610256D01*
X29326063Y-29779774D01*
X29470226Y-29923937D01*
X29639744Y-30037205D01*
X29828102Y-30115226D01*
X30028061Y-30155000D01*
X30231939Y-30155000D01*
X30431898Y-30115226D01*
X30620256Y-30037205D01*
X30789774Y-29923937D01*
X30933937Y-29779774D01*
X31047205Y-29610256D01*
X31125226Y-29421898D01*
X31165000Y-29221939D01*
X31165000Y-29018061D01*
X31125226Y-28818102D01*
X31047205Y-28629744D01*
X30933937Y-28460226D01*
X30865000Y-28391289D01*
X30865000Y-27994446D01*
X30994447Y-27865000D01*
X31653895Y-27865000D01*
X31690000Y-27868556D01*
X31726105Y-27865000D01*
X31834085Y-27854365D01*
X31972633Y-27812337D01*
X32100320Y-27744087D01*
X32212238Y-27652238D01*
X32235258Y-27624188D01*
X33128941Y-26730506D01*
X33312408Y-26767000D01*
X33587592Y-26767000D01*
X33857490Y-26713314D01*
X34111727Y-26608005D01*
X34340535Y-26455120D01*
X34535120Y-26260535D01*
X34688005Y-26031727D01*
X34720000Y-25954485D01*
X34751995Y-26031727D01*
X34904880Y-26260535D01*
X35099465Y-26455120D01*
X35328273Y-26608005D01*
X35582510Y-26713314D01*
X35852408Y-26767000D01*
X36127592Y-26767000D01*
X36397490Y-26713314D01*
X36515000Y-26664639D01*
X36515000Y-27163895D01*
X36511444Y-27200000D01*
X36523004Y-27317367D01*
X36525635Y-27344084D01*
X36567663Y-27482632D01*
X36635913Y-27610319D01*
X36727762Y-27722237D01*
X36755808Y-27745254D01*
X37104741Y-28094187D01*
X37127762Y-28122238D01*
X37239680Y-28214087D01*
X37367367Y-28282337D01*
X37505915Y-28324365D01*
X37613895Y-28335000D01*
X37613904Y-28335000D01*
X37649999Y-28338555D01*
X37686094Y-28335000D01*
X54795554Y-28335000D01*
X55265001Y-28804448D01*
X55265000Y-39810955D01*
X55109465Y-39914880D01*
X54914880Y-40109465D01*
X54761995Y-40338273D01*
X54656686Y-40592510D01*
X54603000Y-40862408D01*
X54603000Y-41137592D01*
X54656686Y-41407490D01*
X54761995Y-41661727D01*
X54914880Y-41890535D01*
X55109465Y-42085120D01*
X55338273Y-42238005D01*
X55592510Y-42343314D01*
X55862408Y-42397000D01*
X56137592Y-42397000D01*
X56407490Y-42343314D01*
X56661727Y-42238005D01*
X56890535Y-42085120D01*
X57000000Y-41975655D01*
X57109465Y-42085120D01*
X57338273Y-42238005D01*
X57592510Y-42343314D01*
X57862408Y-42397000D01*
X58137592Y-42397000D01*
X58407490Y-42343314D01*
X58661727Y-42238005D01*
X58890535Y-42085120D01*
X59000000Y-41975655D01*
X59109465Y-42085120D01*
X59338273Y-42238005D01*
X59592510Y-42343314D01*
X59862408Y-42397000D01*
X60137592Y-42397000D01*
X60407490Y-42343314D01*
X60661727Y-42238005D01*
X60890535Y-42085120D01*
X61010090Y-41965565D01*
X61214040Y-41965565D01*
X61281020Y-42205656D01*
X61530048Y-42322756D01*
X61797135Y-42389023D01*
X62072017Y-42401910D01*
X62344133Y-42360922D01*
X62603023Y-42267636D01*
X62718980Y-42205656D01*
X62785960Y-41965565D01*
X62000000Y-41179605D01*
X61214040Y-41965565D01*
X61010090Y-41965565D01*
X61085120Y-41890535D01*
X61238005Y-41661727D01*
X61294105Y-41526290D01*
X61820395Y-41000000D01*
X62179605Y-41000000D01*
X62965565Y-41785960D01*
X63205656Y-41718980D01*
X63322756Y-41469952D01*
X63389023Y-41202865D01*
X63401910Y-40927983D01*
X63360922Y-40655867D01*
X63267636Y-40396977D01*
X63205656Y-40281020D01*
X62965565Y-40214040D01*
X62179605Y-41000000D01*
X61820395Y-41000000D01*
X61294105Y-40473710D01*
X61238005Y-40338273D01*
X61085120Y-40109465D01*
X61010090Y-40034435D01*
X61214040Y-40034435D01*
X62000000Y-40820395D01*
X62785960Y-40034435D01*
X62718980Y-39794344D01*
X62469952Y-39677244D01*
X62202865Y-39610977D01*
X61927983Y-39598090D01*
X61655867Y-39639078D01*
X61396977Y-39732364D01*
X61281020Y-39794344D01*
X61214040Y-40034435D01*
X61010090Y-40034435D01*
X60890535Y-39914880D01*
X60661727Y-39761995D01*
X60407490Y-39656686D01*
X60137592Y-39603000D01*
X59862408Y-39603000D01*
X59592510Y-39656686D01*
X59338273Y-39761995D01*
X59109465Y-39914880D01*
X59000000Y-40024345D01*
X58890535Y-39914880D01*
X58735000Y-39810955D01*
X58735000Y-27886096D01*
X58738555Y-27849999D01*
X58735000Y-27813902D01*
X58735000Y-27813895D01*
X58724365Y-27705915D01*
X58682337Y-27567367D01*
X58614087Y-27439680D01*
X58522238Y-27327762D01*
X58494193Y-27304746D01*
X57795258Y-26605812D01*
X57772238Y-26577762D01*
X57660320Y-26485913D01*
X57532633Y-26417663D01*
X57394085Y-26375635D01*
X57290247Y-26365408D01*
X57320090Y-26335565D01*
X58064040Y-26335565D01*
X58131020Y-26575656D01*
X58380048Y-26692756D01*
X58647135Y-26759023D01*
X58922017Y-26771910D01*
X59194133Y-26730922D01*
X59453023Y-26637636D01*
X59568980Y-26575656D01*
X59635960Y-26335565D01*
X58850000Y-25549605D01*
X58064040Y-26335565D01*
X57320090Y-26335565D01*
X57395120Y-26260535D01*
X57548005Y-26031727D01*
X57577692Y-25960057D01*
X57582364Y-25973023D01*
X57644344Y-26088980D01*
X57884435Y-26155960D01*
X58670395Y-25370000D01*
X57884435Y-24584040D01*
X57644344Y-24651020D01*
X57580515Y-24786760D01*
X57548005Y-24708273D01*
X57395120Y-24479465D01*
X57200535Y-24284880D01*
X56971727Y-24131995D01*
X56894485Y-24100000D01*
X56971727Y-24068005D01*
X57200535Y-23915120D01*
X57395120Y-23720535D01*
X57548005Y-23491727D01*
X57580000Y-23414485D01*
X57611995Y-23491727D01*
X57764880Y-23720535D01*
X57959465Y-23915120D01*
X58188273Y-24068005D01*
X58259943Y-24097692D01*
X58246977Y-24102364D01*
X58131020Y-24164344D01*
X58064040Y-24404435D01*
X58850000Y-25190395D01*
X59635960Y-24404435D01*
X59568980Y-24164344D01*
X59433240Y-24100515D01*
X59511727Y-24068005D01*
X59740535Y-23915120D01*
X59935120Y-23720535D01*
X60088005Y-23491727D01*
X60120000Y-23414485D01*
X60151995Y-23491727D01*
X60304880Y-23720535D01*
X60499465Y-23915120D01*
X60728273Y-24068005D01*
X60805515Y-24100000D01*
X60728273Y-24131995D01*
X60499465Y-24284880D01*
X60304880Y-24479465D01*
X60151995Y-24708273D01*
X60122308Y-24779943D01*
X60117636Y-24766977D01*
X60055656Y-24651020D01*
X59815565Y-24584040D01*
X59029605Y-25370000D01*
X59815565Y-26155960D01*
X60055656Y-26088980D01*
X60119485Y-25953240D01*
X60151995Y-26031727D01*
X60304880Y-26260535D01*
X60499465Y-26455120D01*
X60728273Y-26608005D01*
X60982510Y-26713314D01*
X61252408Y-26767000D01*
X61527592Y-26767000D01*
X61797490Y-26713314D01*
X62051727Y-26608005D01*
X62280535Y-26455120D01*
X62475120Y-26260535D01*
X62628005Y-26031727D01*
X62660000Y-25954485D01*
X62691995Y-26031727D01*
X62844880Y-26260535D01*
X63039465Y-26455120D01*
X63268273Y-26608005D01*
X63522510Y-26713314D01*
X63792408Y-26767000D01*
X64067592Y-26767000D01*
X64337490Y-26713314D01*
X64591727Y-26608005D01*
X64820535Y-26455120D01*
X65015120Y-26260535D01*
X65168005Y-26031727D01*
X65200000Y-25954485D01*
X65231995Y-26031727D01*
X65384880Y-26260535D01*
X65579465Y-26455120D01*
X65808273Y-26608005D01*
X66062510Y-26713314D01*
X66332408Y-26767000D01*
X66607592Y-26767000D01*
X66877490Y-26713314D01*
X67131727Y-26608005D01*
X67360535Y-26455120D01*
X67555120Y-26260535D01*
X67708005Y-26031727D01*
X67740000Y-25954485D01*
X67771995Y-26031727D01*
X67924880Y-26260535D01*
X68119465Y-26455120D01*
X68348273Y-26608005D01*
X68602510Y-26713314D01*
X68872408Y-26767000D01*
X69147592Y-26767000D01*
X69417490Y-26713314D01*
X69671727Y-26608005D01*
X69900535Y-26455120D01*
X70095120Y-26260535D01*
X70248005Y-26031727D01*
X70280000Y-25954485D01*
X70311995Y-26031727D01*
X70464880Y-26260535D01*
X70659465Y-26455120D01*
X70888273Y-26608005D01*
X71142510Y-26713314D01*
X71412408Y-26767000D01*
X71687592Y-26767000D01*
X71957490Y-26713314D01*
X72115001Y-26648071D01*
X72115000Y-35195553D01*
X71145554Y-36165000D01*
X69736094Y-36165000D01*
X69699999Y-36161445D01*
X69663904Y-36165000D01*
X69663895Y-36165000D01*
X69555915Y-36175635D01*
X69417367Y-36217663D01*
X69289680Y-36285913D01*
X69177762Y-36377762D01*
X69154746Y-36405807D01*
X68505808Y-37054746D01*
X68477763Y-37077762D01*
X68385914Y-37189680D01*
X68346143Y-37264087D01*
X68317664Y-37317367D01*
X68275635Y-37455915D01*
X68261444Y-37600000D01*
X68265001Y-37636115D01*
X68265000Y-39810954D01*
X68109465Y-39914880D01*
X67914880Y-40109465D01*
X67761995Y-40338273D01*
X67656686Y-40592510D01*
X67603000Y-40862408D01*
X67603000Y-41137592D01*
X67656686Y-41407490D01*
X67761995Y-41661727D01*
X67914880Y-41890535D01*
X68109465Y-42085120D01*
X68338273Y-42238005D01*
X68592510Y-42343314D01*
X68862408Y-42397000D01*
X69137592Y-42397000D01*
X69407490Y-42343314D01*
X69661727Y-42238005D01*
X69890535Y-42085120D01*
X70000000Y-41975655D01*
X70109465Y-42085120D01*
X70338273Y-42238005D01*
X70592510Y-42343314D01*
X70862408Y-42397000D01*
X71137592Y-42397000D01*
X71407490Y-42343314D01*
X71661727Y-42238005D01*
X71890535Y-42085120D01*
X72000000Y-41975655D01*
X72109465Y-42085120D01*
X72338273Y-42238005D01*
X72592510Y-42343314D01*
X72862408Y-42397000D01*
X73137592Y-42397000D01*
X73407490Y-42343314D01*
X73661727Y-42238005D01*
X73890535Y-42085120D01*
X74010090Y-41965565D01*
X74214040Y-41965565D01*
X74281020Y-42205656D01*
X74530048Y-42322756D01*
X74797135Y-42389023D01*
X75072017Y-42401910D01*
X75344133Y-42360922D01*
X75603023Y-42267636D01*
X75718980Y-42205656D01*
X75785960Y-41965565D01*
X75000000Y-41179605D01*
X74214040Y-41965565D01*
X74010090Y-41965565D01*
X74085120Y-41890535D01*
X74238005Y-41661727D01*
X74294105Y-41526290D01*
X74820395Y-41000000D01*
X75179605Y-41000000D01*
X75965565Y-41785960D01*
X76205656Y-41718980D01*
X76322756Y-41469952D01*
X76389023Y-41202865D01*
X76401910Y-40927983D01*
X76360922Y-40655867D01*
X76267636Y-40396977D01*
X76205656Y-40281020D01*
X75965565Y-40214040D01*
X75179605Y-41000000D01*
X74820395Y-41000000D01*
X74294105Y-40473710D01*
X74238005Y-40338273D01*
X74085120Y-40109465D01*
X74010090Y-40034435D01*
X74214040Y-40034435D01*
X75000000Y-40820395D01*
X75785960Y-40034435D01*
X75718980Y-39794344D01*
X75469952Y-39677244D01*
X75202865Y-39610977D01*
X74927983Y-39598090D01*
X74655867Y-39639078D01*
X74396977Y-39732364D01*
X74281020Y-39794344D01*
X74214040Y-40034435D01*
X74010090Y-40034435D01*
X73890535Y-39914880D01*
X73661727Y-39761995D01*
X73407490Y-39656686D01*
X73137592Y-39603000D01*
X72862408Y-39603000D01*
X72592510Y-39656686D01*
X72338273Y-39761995D01*
X72109465Y-39914880D01*
X72000000Y-40024345D01*
X71890535Y-39914880D01*
X71735000Y-39810955D01*
X71735000Y-38404446D01*
X71804447Y-38335000D01*
X74313895Y-38335000D01*
X74350000Y-38338556D01*
X74386105Y-38335000D01*
X74494085Y-38324365D01*
X74632633Y-38282337D01*
X74760320Y-38214087D01*
X74872238Y-38122238D01*
X74895258Y-38094188D01*
X75794197Y-37195250D01*
X75822237Y-37172238D01*
X75845250Y-37144197D01*
X75845253Y-37144194D01*
X75876756Y-37105807D01*
X75914087Y-37060320D01*
X75982337Y-36932633D01*
X76024365Y-36794085D01*
X76035000Y-36686105D01*
X76035000Y-36686104D01*
X76038556Y-36650000D01*
X76035000Y-36613895D01*
X76035000Y-26633955D01*
X76160048Y-26692756D01*
X76427135Y-26759023D01*
X76702017Y-26771910D01*
X76974133Y-26730922D01*
X77233023Y-26637636D01*
X77348980Y-26575656D01*
X77415960Y-26335565D01*
X76630000Y-25549605D01*
X76615858Y-25563748D01*
X76436253Y-25384143D01*
X76450395Y-25370000D01*
X76809605Y-25370000D01*
X77595565Y-26155960D01*
X77835656Y-26088980D01*
X77952756Y-25839952D01*
X78019023Y-25572865D01*
X78031910Y-25297983D01*
X77990922Y-25025867D01*
X77897636Y-24766977D01*
X77835656Y-24651020D01*
X77595565Y-24584040D01*
X76809605Y-25370000D01*
X76450395Y-25370000D01*
X76436253Y-25355858D01*
X76615858Y-25176253D01*
X76630000Y-25190395D01*
X77415960Y-24404435D01*
X77348980Y-24164344D01*
X77213240Y-24100515D01*
X77291727Y-24068005D01*
X77520535Y-23915120D01*
X77715120Y-23720535D01*
X77868005Y-23491727D01*
X77973314Y-23237490D01*
X78027000Y-22967592D01*
X78027000Y-22692408D01*
X77973314Y-22422510D01*
X77868005Y-22168273D01*
X77715120Y-21939465D01*
X77520535Y-21744880D01*
X77291727Y-21591995D01*
X77037490Y-21486686D01*
X76767592Y-21433000D01*
X76492408Y-21433000D01*
X76222510Y-21486686D01*
X75968273Y-21591995D01*
X75739465Y-21744880D01*
X75544880Y-21939465D01*
X75391995Y-22168273D01*
X75360000Y-22245515D01*
X75328005Y-22168273D01*
X75175120Y-21939465D01*
X74980535Y-21744880D01*
X74751727Y-21591995D01*
X74497490Y-21486686D01*
X74227592Y-21433000D01*
X73952408Y-21433000D01*
X73682510Y-21486686D01*
X73428273Y-21591995D01*
X73199465Y-21744880D01*
X73004880Y-21939465D01*
X72851995Y-22168273D01*
X72820000Y-22245515D01*
X72788005Y-22168273D01*
X72635120Y-21939465D01*
X72440535Y-21744880D01*
X72211727Y-21591995D01*
X71957490Y-21486686D01*
X71687592Y-21433000D01*
X71412408Y-21433000D01*
X71142510Y-21486686D01*
X70888273Y-21591995D01*
X70659465Y-21744880D01*
X70464880Y-21939465D01*
X70311995Y-22168273D01*
X70282308Y-22239943D01*
X70277636Y-22226977D01*
X70215656Y-22111020D01*
X69975565Y-22044040D01*
X69189605Y-22830000D01*
X69975565Y-23615960D01*
X70215656Y-23548980D01*
X70279485Y-23413240D01*
X70311995Y-23491727D01*
X70464880Y-23720535D01*
X70659465Y-23915120D01*
X70888273Y-24068005D01*
X70965515Y-24100000D01*
X70888273Y-24131995D01*
X70659465Y-24284880D01*
X70464880Y-24479465D01*
X70311995Y-24708273D01*
X70280000Y-24785515D01*
X70248005Y-24708273D01*
X70095120Y-24479465D01*
X69900535Y-24284880D01*
X69671727Y-24131995D01*
X69600057Y-24102308D01*
X69613023Y-24097636D01*
X69728980Y-24035656D01*
X69795960Y-23795565D01*
X69010000Y-23009605D01*
X68224040Y-23795565D01*
X68291020Y-24035656D01*
X68426760Y-24099485D01*
X68348273Y-24131995D01*
X68119465Y-24284880D01*
X67924880Y-24479465D01*
X67771995Y-24708273D01*
X67740000Y-24785515D01*
X67708005Y-24708273D01*
X67555120Y-24479465D01*
X67360535Y-24284880D01*
X67131727Y-24131995D01*
X67054485Y-24100000D01*
X67131727Y-24068005D01*
X67360535Y-23915120D01*
X67555120Y-23720535D01*
X67708005Y-23491727D01*
X67737692Y-23420057D01*
X67742364Y-23433023D01*
X67804344Y-23548980D01*
X68044435Y-23615960D01*
X68830395Y-22830000D01*
X68044435Y-22044040D01*
X67804344Y-22111020D01*
X67740515Y-22246760D01*
X67708005Y-22168273D01*
X67555120Y-21939465D01*
X67480090Y-21864435D01*
X68224040Y-21864435D01*
X69010000Y-22650395D01*
X69795960Y-21864435D01*
X69728980Y-21624344D01*
X69479952Y-21507244D01*
X69212865Y-21440977D01*
X68937983Y-21428090D01*
X68665867Y-21469078D01*
X68406977Y-21562364D01*
X68291020Y-21624344D01*
X68224040Y-21864435D01*
X67480090Y-21864435D01*
X67360535Y-21744880D01*
X67131727Y-21591995D01*
X66877490Y-21486686D01*
X66607592Y-21433000D01*
X66332408Y-21433000D01*
X66062510Y-21486686D01*
X65808273Y-21591995D01*
X65579465Y-21744880D01*
X65384880Y-21939465D01*
X65231995Y-22168273D01*
X65202308Y-22239943D01*
X65197636Y-22226977D01*
X65135656Y-22111020D01*
X64895565Y-22044040D01*
X64109605Y-22830000D01*
X64895565Y-23615960D01*
X65135656Y-23548980D01*
X65199485Y-23413240D01*
X65231995Y-23491727D01*
X65384880Y-23720535D01*
X65579465Y-23915120D01*
X65808273Y-24068005D01*
X65885515Y-24100000D01*
X65808273Y-24131995D01*
X65579465Y-24284880D01*
X65384880Y-24479465D01*
X65231995Y-24708273D01*
X65200000Y-24785515D01*
X65168005Y-24708273D01*
X65015120Y-24479465D01*
X64820535Y-24284880D01*
X64591727Y-24131995D01*
X64520057Y-24102308D01*
X64533023Y-24097636D01*
X64648980Y-24035656D01*
X64715960Y-23795565D01*
X63930000Y-23009605D01*
X63144040Y-23795565D01*
X63211020Y-24035656D01*
X63346760Y-24099485D01*
X63268273Y-24131995D01*
X63039465Y-24284880D01*
X62844880Y-24479465D01*
X62691995Y-24708273D01*
X62660000Y-24785515D01*
X62628005Y-24708273D01*
X62475120Y-24479465D01*
X62280535Y-24284880D01*
X62051727Y-24131995D01*
X61974485Y-24100000D01*
X62051727Y-24068005D01*
X62280535Y-23915120D01*
X62475120Y-23720535D01*
X62628005Y-23491727D01*
X62657692Y-23420057D01*
X62662364Y-23433023D01*
X62724344Y-23548980D01*
X62964435Y-23615960D01*
X63750395Y-22830000D01*
X62964435Y-22044040D01*
X62724344Y-22111020D01*
X62660515Y-22246760D01*
X62628005Y-22168273D01*
X62475120Y-21939465D01*
X62400090Y-21864435D01*
X63144040Y-21864435D01*
X63930000Y-22650395D01*
X64715960Y-21864435D01*
X64648980Y-21624344D01*
X64399952Y-21507244D01*
X64132865Y-21440977D01*
X63857983Y-21428090D01*
X63585867Y-21469078D01*
X63326977Y-21562364D01*
X63211020Y-21624344D01*
X63144040Y-21864435D01*
X62400090Y-21864435D01*
X62280535Y-21744880D01*
X62051727Y-21591995D01*
X61797490Y-21486686D01*
X61527592Y-21433000D01*
X61252408Y-21433000D01*
X60982510Y-21486686D01*
X60728273Y-21591995D01*
X60499465Y-21744880D01*
X60304880Y-21939465D01*
X60151995Y-22168273D01*
X60120000Y-22245515D01*
X60088005Y-22168273D01*
X59935120Y-21939465D01*
X59740535Y-21744880D01*
X59511727Y-21591995D01*
X59257490Y-21486686D01*
X58987592Y-21433000D01*
X58712408Y-21433000D01*
X58442510Y-21486686D01*
X58188273Y-21591995D01*
X57959465Y-21744880D01*
X57764880Y-21939465D01*
X57611995Y-22168273D01*
X57580000Y-22245515D01*
X57548005Y-22168273D01*
X57395120Y-21939465D01*
X57200535Y-21744880D01*
X56971727Y-21591995D01*
X56717490Y-21486686D01*
X56447592Y-21433000D01*
X56172408Y-21433000D01*
X55902510Y-21486686D01*
X55648273Y-21591995D01*
X55419465Y-21744880D01*
X55224880Y-21939465D01*
X55071995Y-22168273D01*
X55040000Y-22245515D01*
X55008005Y-22168273D01*
X54855120Y-21939465D01*
X54660535Y-21744880D01*
X54431727Y-21591995D01*
X54177490Y-21486686D01*
X53907592Y-21433000D01*
X53632408Y-21433000D01*
X53362510Y-21486686D01*
X53108273Y-21591995D01*
X52879465Y-21744880D01*
X52684880Y-21939465D01*
X52531995Y-22168273D01*
X52502308Y-22239943D01*
X52497636Y-22226977D01*
X52435656Y-22111020D01*
X52195565Y-22044040D01*
X51409605Y-22830000D01*
X52195565Y-23615960D01*
X52435656Y-23548980D01*
X52499485Y-23413240D01*
X52531995Y-23491727D01*
X52684880Y-23720535D01*
X52879465Y-23915120D01*
X53108273Y-24068005D01*
X53185515Y-24100000D01*
X53108273Y-24131995D01*
X52879465Y-24284880D01*
X52684880Y-24479465D01*
X52531995Y-24708273D01*
X52500000Y-24785515D01*
X52468005Y-24708273D01*
X52315120Y-24479465D01*
X52120535Y-24284880D01*
X51891727Y-24131995D01*
X51820057Y-24102308D01*
X51833023Y-24097636D01*
X51948980Y-24035656D01*
X52015960Y-23795565D01*
X51230000Y-23009605D01*
X50444040Y-23795565D01*
X50511020Y-24035656D01*
X50646760Y-24099485D01*
X50568273Y-24131995D01*
X50339465Y-24284880D01*
X50144880Y-24479465D01*
X49991995Y-24708273D01*
X49960000Y-24785515D01*
X49928005Y-24708273D01*
X49775120Y-24479465D01*
X49580535Y-24284880D01*
X49351727Y-24131995D01*
X49274485Y-24100000D01*
X49351727Y-24068005D01*
X49580535Y-23915120D01*
X49775120Y-23720535D01*
X49928005Y-23491727D01*
X49957692Y-23420057D01*
X49962364Y-23433023D01*
X50024344Y-23548980D01*
X50264435Y-23615960D01*
X51050395Y-22830000D01*
X50264435Y-22044040D01*
X50024344Y-22111020D01*
X49960515Y-22246760D01*
X49928005Y-22168273D01*
X49775120Y-21939465D01*
X49700090Y-21864435D01*
X50444040Y-21864435D01*
X51230000Y-22650395D01*
X52015960Y-21864435D01*
X51948980Y-21624344D01*
X51699952Y-21507244D01*
X51432865Y-21440977D01*
X51157983Y-21428090D01*
X50885867Y-21469078D01*
X50626977Y-21562364D01*
X50511020Y-21624344D01*
X50444040Y-21864435D01*
X49700090Y-21864435D01*
X49580535Y-21744880D01*
X49351727Y-21591995D01*
X49097490Y-21486686D01*
X48827592Y-21433000D01*
X48552408Y-21433000D01*
X48282510Y-21486686D01*
X48028273Y-21591995D01*
X47799465Y-21744880D01*
X47604880Y-21939465D01*
X47451995Y-22168273D01*
X47420000Y-22245515D01*
X47388005Y-22168273D01*
X47235120Y-21939465D01*
X47040535Y-21744880D01*
X46811727Y-21591995D01*
X46557490Y-21486686D01*
X46287592Y-21433000D01*
X46012408Y-21433000D01*
X45742510Y-21486686D01*
X45488273Y-21591995D01*
X45259465Y-21744880D01*
X45064880Y-21939465D01*
X44911995Y-22168273D01*
X44882308Y-22239943D01*
X44877636Y-22226977D01*
X44815656Y-22111020D01*
X44575565Y-22044040D01*
X43789605Y-22830000D01*
X44575565Y-23615960D01*
X44815656Y-23548980D01*
X44879485Y-23413240D01*
X44911995Y-23491727D01*
X45064880Y-23720535D01*
X45259465Y-23915120D01*
X45488273Y-24068005D01*
X45565515Y-24100000D01*
X45488273Y-24131995D01*
X45259465Y-24284880D01*
X45064880Y-24479465D01*
X44911995Y-24708273D01*
X44880000Y-24785515D01*
X44848005Y-24708273D01*
X44695120Y-24479465D01*
X44500535Y-24284880D01*
X44271727Y-24131995D01*
X44200057Y-24102308D01*
X44213023Y-24097636D01*
X44328980Y-24035656D01*
X44395960Y-23795565D01*
X43610000Y-23009605D01*
X42824040Y-23795565D01*
X42891020Y-24035656D01*
X43026760Y-24099485D01*
X42948273Y-24131995D01*
X42719465Y-24284880D01*
X42524880Y-24479465D01*
X42371995Y-24708273D01*
X42340000Y-24785515D01*
X42308005Y-24708273D01*
X42155120Y-24479465D01*
X41960535Y-24284880D01*
X41731727Y-24131995D01*
X41654485Y-24100000D01*
X41731727Y-24068005D01*
X41960535Y-23915120D01*
X42155120Y-23720535D01*
X42308005Y-23491727D01*
X42337692Y-23420057D01*
X42342364Y-23433023D01*
X42404344Y-23548980D01*
X42644435Y-23615960D01*
X43430395Y-22830000D01*
X42644435Y-22044040D01*
X42404344Y-22111020D01*
X42340515Y-22246760D01*
X42308005Y-22168273D01*
X42155120Y-21939465D01*
X42080090Y-21864435D01*
X42824040Y-21864435D01*
X43610000Y-22650395D01*
X44395960Y-21864435D01*
X44328980Y-21624344D01*
X44079952Y-21507244D01*
X43812865Y-21440977D01*
X43537983Y-21428090D01*
X43265867Y-21469078D01*
X43006977Y-21562364D01*
X42891020Y-21624344D01*
X42824040Y-21864435D01*
X42080090Y-21864435D01*
X41960535Y-21744880D01*
X41731727Y-21591995D01*
X41477490Y-21486686D01*
X41207592Y-21433000D01*
X40932408Y-21433000D01*
X40662510Y-21486686D01*
X40408273Y-21591995D01*
X40179465Y-21744880D01*
X39984880Y-21939465D01*
X39831995Y-22168273D01*
X39800000Y-22245515D01*
X39768005Y-22168273D01*
X39615120Y-21939465D01*
X39420535Y-21744880D01*
X39191727Y-21591995D01*
X38937490Y-21486686D01*
X38667592Y-21433000D01*
X38392408Y-21433000D01*
X38122510Y-21486686D01*
X37868273Y-21591995D01*
X37639465Y-21744880D01*
X37444880Y-21939465D01*
X37291995Y-22168273D01*
X37260000Y-22245515D01*
X37228005Y-22168273D01*
X37075120Y-21939465D01*
X36880535Y-21744880D01*
X36651727Y-21591995D01*
X36397490Y-21486686D01*
X36127592Y-21433000D01*
X35852408Y-21433000D01*
X35582510Y-21486686D01*
X35328273Y-21591995D01*
X35099465Y-21744880D01*
X34904880Y-21939465D01*
X34751995Y-22168273D01*
X34722308Y-22239943D01*
X34717636Y-22226977D01*
X34655656Y-22111020D01*
X34415565Y-22044040D01*
X33629605Y-22830000D01*
X34415565Y-23615960D01*
X34655656Y-23548980D01*
X34719485Y-23413240D01*
X34751995Y-23491727D01*
X34904880Y-23720535D01*
X35099465Y-23915120D01*
X35328273Y-24068005D01*
X35405515Y-24100000D01*
X35328273Y-24131995D01*
X35099465Y-24284880D01*
X34904880Y-24479465D01*
X34751995Y-24708273D01*
X34720000Y-24785515D01*
X34688005Y-24708273D01*
X34535120Y-24479465D01*
X34340535Y-24284880D01*
X34111727Y-24131995D01*
X34040057Y-24102308D01*
X34053023Y-24097636D01*
X34168980Y-24035656D01*
X34235960Y-23795565D01*
X33450000Y-23009605D01*
X32664040Y-23795565D01*
X32731020Y-24035656D01*
X32866760Y-24099485D01*
X32788273Y-24131995D01*
X32559465Y-24284880D01*
X32364880Y-24479465D01*
X32211995Y-24708273D01*
X32180000Y-24785515D01*
X32148005Y-24708273D01*
X31995120Y-24479465D01*
X31800535Y-24284880D01*
X31571727Y-24131995D01*
X31494485Y-24100000D01*
X31571727Y-24068005D01*
X31800535Y-23915120D01*
X31995120Y-23720535D01*
X32148005Y-23491727D01*
X32177692Y-23420057D01*
X32182364Y-23433023D01*
X32244344Y-23548980D01*
X32484435Y-23615960D01*
X33270395Y-22830000D01*
X32484435Y-22044040D01*
X32244344Y-22111020D01*
X32180515Y-22246760D01*
X32148005Y-22168273D01*
X31995120Y-21939465D01*
X31920090Y-21864435D01*
X32664040Y-21864435D01*
X33450000Y-22650395D01*
X34235960Y-21864435D01*
X34168980Y-21624344D01*
X33919952Y-21507244D01*
X33652865Y-21440977D01*
X33377983Y-21428090D01*
X33105867Y-21469078D01*
X32846977Y-21562364D01*
X32731020Y-21624344D01*
X32664040Y-21864435D01*
X31920090Y-21864435D01*
X31800535Y-21744880D01*
X31571727Y-21591995D01*
X31317490Y-21486686D01*
X31047592Y-21433000D01*
X30772408Y-21433000D01*
X30502510Y-21486686D01*
X30248273Y-21591995D01*
X30019465Y-21744880D01*
X29824880Y-21939465D01*
X29671995Y-22168273D01*
X29640000Y-22245515D01*
X29608005Y-22168273D01*
X29455120Y-21939465D01*
X29260535Y-21744880D01*
X29031727Y-21591995D01*
X28777490Y-21486686D01*
X28507592Y-21433000D01*
X28232408Y-21433000D01*
X27962510Y-21486686D01*
X27708273Y-21591995D01*
X27479465Y-21744880D01*
X27284880Y-21939465D01*
X27131995Y-22168273D01*
X27026686Y-22422510D01*
X26973000Y-22692408D01*
X26973000Y-22967592D01*
X27026686Y-23237490D01*
X27131995Y-23491727D01*
X27284880Y-23720535D01*
X27479465Y-23915120D01*
X27567465Y-23973920D01*
X27483518Y-23982188D01*
X27363820Y-24018498D01*
X27253506Y-24077463D01*
X27156815Y-24156815D01*
X27077463Y-24253506D01*
X27018498Y-24363820D01*
X26982188Y-24483518D01*
X26969928Y-24608000D01*
X26650829Y-24608000D01*
X26706838Y-24472784D01*
X26835000Y-23828469D01*
X26835000Y-23171531D01*
X26706838Y-22527216D01*
X26455439Y-21920285D01*
X26090464Y-21374061D01*
X25625939Y-20909536D01*
X25252482Y-20660000D01*
X79747518Y-20660000D01*
X79374061Y-20909536D01*
G36*
X38723748Y-25355858D02*
G01*
X38709605Y-25370000D01*
X38723748Y-25384143D01*
X38544143Y-25563748D01*
X38530000Y-25549605D01*
X38515858Y-25563748D01*
X38336253Y-25384143D01*
X38350395Y-25370000D01*
X38336253Y-25355858D01*
X38515858Y-25176253D01*
X38530000Y-25190395D01*
X38544143Y-25176253D01*
X38723748Y-25355858D01*
X38723748Y-25355858D01*
G37*
X38723748Y-25355858D02*
X38709605Y-25370000D01*
X38723748Y-25384143D01*
X38544143Y-25563748D01*
X38530000Y-25549605D01*
X38515858Y-25563748D01*
X38336253Y-25384143D01*
X38350395Y-25370000D01*
X38336253Y-25355858D01*
X38515858Y-25176253D01*
X38530000Y-25190395D01*
X38544143Y-25176253D01*
X38723748Y-25355858D01*
M02*
