G04 #@! TF.GenerationSoftware,KiCad,Pcbnew,(5.1.2-1)-1*
G04 #@! TF.CreationDate,2019-06-23T18:06:27+09:00*
G04 #@! TF.ProjectId,NervesAddonBoard,4e657276-6573-4416-9464-6f6e426f6172,rev?*
G04 #@! TF.SameCoordinates,Original*
G04 #@! TF.FileFunction,Legend,Top*
G04 #@! TF.FilePolarity,Positive*
%FSLAX46Y46*%
G04 Gerber Fmt 4.6, Leading zero omitted, Abs format (unit mm)*
G04 Created by KiCad (PCBNEW (5.1.2-1)-1) date 2019-06-23 18:06:27*
%MOMM*%
%LPD*%
G04 APERTURE LIST*
%ADD10C,0.150000*%
G04 APERTURE END LIST*
D10*
X71452380Y-45493898D02*
X70452380Y-45368898D01*
X70452380Y-44702232D02*
X70452380Y-44511755D01*
X70500000Y-44422470D01*
X70595238Y-44339136D01*
X70785714Y-44315327D01*
X71119047Y-44356994D01*
X71309523Y-44428422D01*
X71404761Y-44535565D01*
X71452380Y-44636755D01*
X71452380Y-44827232D01*
X71404761Y-44916517D01*
X71309523Y-44999851D01*
X71119047Y-45023660D01*
X70785714Y-44981994D01*
X70595238Y-44910565D01*
X70500000Y-44803422D01*
X70452380Y-44702232D01*
X70547619Y-43904613D02*
X70500000Y-43851041D01*
X70452380Y-43749851D01*
X70452380Y-43511755D01*
X70500000Y-43422470D01*
X70547619Y-43380803D01*
X70642857Y-43345089D01*
X70738095Y-43356994D01*
X70880952Y-43422470D01*
X71452380Y-44065327D01*
X71452380Y-43446279D01*
X71452380Y-42493898D02*
X71452380Y-43065327D01*
X71452380Y-42779613D02*
X70452380Y-42654613D01*
X70595238Y-42767708D01*
X70690476Y-42874851D01*
X70738095Y-42976041D01*
X69452380Y-45493898D02*
X68452380Y-45368898D01*
X68452380Y-44702232D02*
X68452380Y-44511755D01*
X68500000Y-44422470D01*
X68595238Y-44339136D01*
X68785714Y-44315327D01*
X69119047Y-44356994D01*
X69309523Y-44428422D01*
X69404761Y-44535565D01*
X69452380Y-44636755D01*
X69452380Y-44827232D01*
X69404761Y-44916517D01*
X69309523Y-44999851D01*
X69119047Y-45023660D01*
X68785714Y-44981994D01*
X68595238Y-44910565D01*
X68500000Y-44803422D01*
X68452380Y-44702232D01*
X68547619Y-43904613D02*
X68500000Y-43851041D01*
X68452380Y-43749851D01*
X68452380Y-43511755D01*
X68500000Y-43422470D01*
X68547619Y-43380803D01*
X68642857Y-43345089D01*
X68738095Y-43356994D01*
X68880952Y-43422470D01*
X69452380Y-44065327D01*
X69452380Y-43446279D01*
X68452380Y-42702232D02*
X68452380Y-42606994D01*
X68500000Y-42517708D01*
X68547619Y-42476041D01*
X68642857Y-42440327D01*
X68833333Y-42416517D01*
X69071428Y-42446279D01*
X69261904Y-42517708D01*
X69357142Y-42577232D01*
X69404761Y-42630803D01*
X69452380Y-42731994D01*
X69452380Y-42827232D01*
X69404761Y-42916517D01*
X69357142Y-42958184D01*
X69261904Y-42993898D01*
X69071428Y-43017708D01*
X68833333Y-42987946D01*
X68642857Y-42916517D01*
X68547619Y-42856994D01*
X68500000Y-42803422D01*
X68452380Y-42702232D01*
X72452380Y-44797470D02*
X72452380Y-44178422D01*
X72833333Y-44559375D01*
X72833333Y-44416517D01*
X72880952Y-44327232D01*
X72928571Y-44285565D01*
X73023809Y-44249851D01*
X73261904Y-44279613D01*
X73357142Y-44339136D01*
X73404761Y-44392708D01*
X73452380Y-44493898D01*
X73452380Y-44779613D01*
X73404761Y-44868898D01*
X73357142Y-44910565D01*
X72452380Y-43892708D02*
X73452380Y-43684375D01*
X72452380Y-43226041D01*
X72452380Y-42987946D02*
X72452380Y-42368898D01*
X72833333Y-42749851D01*
X72833333Y-42606994D01*
X72880952Y-42517708D01*
X72928571Y-42476041D01*
X73023809Y-42440327D01*
X73261904Y-42470089D01*
X73357142Y-42529613D01*
X73404761Y-42583184D01*
X73452380Y-42684375D01*
X73452380Y-42970089D01*
X73404761Y-43059375D01*
X73357142Y-43101041D01*
X74500000Y-44470089D02*
X74452380Y-44559375D01*
X74452380Y-44702232D01*
X74500000Y-44851041D01*
X74595238Y-44958184D01*
X74690476Y-45017708D01*
X74880952Y-45089136D01*
X75023809Y-45106994D01*
X75214285Y-45083184D01*
X75309523Y-45047470D01*
X75404761Y-44964136D01*
X75452380Y-44827232D01*
X75452380Y-44731994D01*
X75404761Y-44583184D01*
X75357142Y-44529613D01*
X75023809Y-44487946D01*
X75023809Y-44678422D01*
X75452380Y-44112946D02*
X74452380Y-43987946D01*
X75452380Y-43541517D01*
X74452380Y-43416517D01*
X75452380Y-43065327D02*
X74452380Y-42940327D01*
X74452380Y-42702232D01*
X74500000Y-42565327D01*
X74595238Y-42481994D01*
X74690476Y-42446279D01*
X74880952Y-42422470D01*
X75023809Y-42440327D01*
X75214285Y-42511755D01*
X75309523Y-42571279D01*
X75404761Y-42678422D01*
X75452380Y-42827232D01*
X75452380Y-43065327D01*
X61500000Y-44470089D02*
X61452380Y-44559375D01*
X61452380Y-44702232D01*
X61500000Y-44851041D01*
X61595238Y-44958184D01*
X61690476Y-45017708D01*
X61880952Y-45089136D01*
X62023809Y-45106994D01*
X62214285Y-45083184D01*
X62309523Y-45047470D01*
X62404761Y-44964136D01*
X62452380Y-44827232D01*
X62452380Y-44731994D01*
X62404761Y-44583184D01*
X62357142Y-44529613D01*
X62023809Y-44487946D01*
X62023809Y-44678422D01*
X62452380Y-44112946D02*
X61452380Y-43987946D01*
X62452380Y-43541517D01*
X61452380Y-43416517D01*
X62452380Y-43065327D02*
X61452380Y-42940327D01*
X61452380Y-42702232D01*
X61500000Y-42565327D01*
X61595238Y-42481994D01*
X61690476Y-42446279D01*
X61880952Y-42422470D01*
X62023809Y-42440327D01*
X62214285Y-42511755D01*
X62309523Y-42571279D01*
X62404761Y-42678422D01*
X62452380Y-42827232D01*
X62452380Y-43065327D01*
X59452380Y-44797470D02*
X59452380Y-44178422D01*
X59833333Y-44559375D01*
X59833333Y-44416517D01*
X59880952Y-44327232D01*
X59928571Y-44285565D01*
X60023809Y-44249851D01*
X60261904Y-44279613D01*
X60357142Y-44339136D01*
X60404761Y-44392708D01*
X60452380Y-44493898D01*
X60452380Y-44779613D01*
X60404761Y-44868898D01*
X60357142Y-44910565D01*
X59452380Y-43892708D02*
X60452380Y-43684375D01*
X59452380Y-43226041D01*
X59452380Y-42987946D02*
X59452380Y-42368898D01*
X59833333Y-42749851D01*
X59833333Y-42606994D01*
X59880952Y-42517708D01*
X59928571Y-42476041D01*
X60023809Y-42440327D01*
X60261904Y-42470089D01*
X60357142Y-42529613D01*
X60404761Y-42583184D01*
X60452380Y-42684375D01*
X60452380Y-42970089D01*
X60404761Y-43059375D01*
X60357142Y-43101041D01*
X58452380Y-49351041D02*
X57452380Y-49226041D01*
X57452380Y-48559375D02*
X57452380Y-48368898D01*
X57500000Y-48279613D01*
X57595238Y-48196279D01*
X57785714Y-48172470D01*
X58119047Y-48214136D01*
X58309523Y-48285565D01*
X58404761Y-48392708D01*
X58452380Y-48493898D01*
X58452380Y-48684375D01*
X58404761Y-48773660D01*
X58309523Y-48856994D01*
X58119047Y-48880803D01*
X57785714Y-48839136D01*
X57595238Y-48767708D01*
X57500000Y-48660565D01*
X57452380Y-48559375D01*
X58452380Y-47303422D02*
X58452380Y-47874851D01*
X58452380Y-47589136D02*
X57452380Y-47464136D01*
X57595238Y-47577232D01*
X57690476Y-47684375D01*
X57738095Y-47785565D01*
X57452380Y-46273660D02*
X57452380Y-46749851D01*
X57928571Y-46856994D01*
X57880952Y-46803422D01*
X57833333Y-46702232D01*
X57833333Y-46464136D01*
X57880952Y-46374851D01*
X57928571Y-46333184D01*
X58023809Y-46297470D01*
X58261904Y-46327232D01*
X58357142Y-46386755D01*
X58404761Y-46440327D01*
X58452380Y-46541517D01*
X58452380Y-46779613D01*
X58404761Y-46868898D01*
X58357142Y-46910565D01*
X57404761Y-45077232D02*
X58690476Y-46095089D01*
X58452380Y-44303422D02*
X57976190Y-44577232D01*
X58452380Y-44874851D02*
X57452380Y-44749851D01*
X57452380Y-44368898D01*
X57500000Y-44279613D01*
X57547619Y-44237946D01*
X57642857Y-44202232D01*
X57785714Y-44220089D01*
X57880952Y-44279613D01*
X57928571Y-44333184D01*
X57976190Y-44434375D01*
X57976190Y-44815327D01*
X58452380Y-43970089D02*
X57785714Y-43362946D01*
X57785714Y-43886755D02*
X58452380Y-43446279D01*
X58452380Y-43065327D02*
X57452380Y-42940327D01*
X57452380Y-42702232D01*
X57500000Y-42565327D01*
X57595238Y-42481994D01*
X57690476Y-42446279D01*
X57880952Y-42422470D01*
X58023809Y-42440327D01*
X58214285Y-42511755D01*
X58309523Y-42571279D01*
X58404761Y-42678422D01*
X58452380Y-42827232D01*
X58452380Y-43065327D01*
X56452380Y-49112946D02*
X55452380Y-48987946D01*
X55452380Y-48321279D02*
X55452380Y-48130803D01*
X55500000Y-48041517D01*
X55595238Y-47958184D01*
X55785714Y-47934375D01*
X56119047Y-47976041D01*
X56309523Y-48047470D01*
X56404761Y-48154613D01*
X56452380Y-48255803D01*
X56452380Y-48446279D01*
X56404761Y-48535565D01*
X56309523Y-48618898D01*
X56119047Y-48642708D01*
X55785714Y-48601041D01*
X55595238Y-48529613D01*
X55500000Y-48422470D01*
X55452380Y-48321279D01*
X56452380Y-47065327D02*
X56452380Y-47636755D01*
X56452380Y-47351041D02*
X55452380Y-47226041D01*
X55595238Y-47339136D01*
X55690476Y-47446279D01*
X55738095Y-47547470D01*
X55785714Y-46124851D02*
X56452380Y-46208184D01*
X55404761Y-46315327D02*
X56119047Y-46642708D01*
X56119047Y-46023660D01*
X55404761Y-44839136D02*
X56690476Y-45856994D01*
X55452380Y-44654613D02*
X55452380Y-44083184D01*
X56452380Y-44493898D02*
X55452380Y-44368898D01*
X56452380Y-43970089D02*
X55785714Y-43362946D01*
X55785714Y-43886755D02*
X56452380Y-43446279D01*
X56452380Y-43065327D02*
X55452380Y-42940327D01*
X55452380Y-42702232D01*
X55500000Y-42565327D01*
X55595238Y-42481994D01*
X55690476Y-42446279D01*
X55880952Y-42422470D01*
X56023809Y-42440327D01*
X56214285Y-42511755D01*
X56309523Y-42571279D01*
X56404761Y-42678422D01*
X56452380Y-42827232D01*
X56452380Y-43065327D01*
X48500000Y-44470089D02*
X48452380Y-44559375D01*
X48452380Y-44702232D01*
X48500000Y-44851041D01*
X48595238Y-44958184D01*
X48690476Y-45017708D01*
X48880952Y-45089136D01*
X49023809Y-45106994D01*
X49214285Y-45083184D01*
X49309523Y-45047470D01*
X49404761Y-44964136D01*
X49452380Y-44827232D01*
X49452380Y-44731994D01*
X49404761Y-44583184D01*
X49357142Y-44529613D01*
X49023809Y-44487946D01*
X49023809Y-44678422D01*
X49452380Y-44112946D02*
X48452380Y-43987946D01*
X49452380Y-43541517D01*
X48452380Y-43416517D01*
X49452380Y-43065327D02*
X48452380Y-42940327D01*
X48452380Y-42702232D01*
X48500000Y-42565327D01*
X48595238Y-42481994D01*
X48690476Y-42446279D01*
X48880952Y-42422470D01*
X49023809Y-42440327D01*
X49214285Y-42511755D01*
X49309523Y-42571279D01*
X49404761Y-42678422D01*
X49452380Y-42827232D01*
X49452380Y-43065327D01*
X46452380Y-44797470D02*
X46452380Y-44178422D01*
X46833333Y-44559375D01*
X46833333Y-44416517D01*
X46880952Y-44327232D01*
X46928571Y-44285565D01*
X47023809Y-44249851D01*
X47261904Y-44279613D01*
X47357142Y-44339136D01*
X47404761Y-44392708D01*
X47452380Y-44493898D01*
X47452380Y-44779613D01*
X47404761Y-44868898D01*
X47357142Y-44910565D01*
X46452380Y-43892708D02*
X47452380Y-43684375D01*
X46452380Y-43226041D01*
X46452380Y-42987946D02*
X46452380Y-42368898D01*
X46833333Y-42749851D01*
X46833333Y-42606994D01*
X46880952Y-42517708D01*
X46928571Y-42476041D01*
X47023809Y-42440327D01*
X47261904Y-42470089D01*
X47357142Y-42529613D01*
X47404761Y-42583184D01*
X47452380Y-42684375D01*
X47452380Y-42970089D01*
X47404761Y-43059375D01*
X47357142Y-43101041D01*
X45404761Y-44916517D02*
X45452380Y-44779613D01*
X45452380Y-44541517D01*
X45404761Y-44440327D01*
X45357142Y-44386755D01*
X45261904Y-44327232D01*
X45166666Y-44315327D01*
X45071428Y-44351041D01*
X45023809Y-44392708D01*
X44976190Y-44481994D01*
X44928571Y-44666517D01*
X44880952Y-44755803D01*
X44833333Y-44797470D01*
X44738095Y-44833184D01*
X44642857Y-44821279D01*
X44547619Y-44761755D01*
X44500000Y-44708184D01*
X44452380Y-44606994D01*
X44452380Y-44368898D01*
X44500000Y-44231994D01*
X45452380Y-43922470D02*
X44452380Y-43797470D01*
X44452380Y-43559375D01*
X44500000Y-43422470D01*
X44595238Y-43339136D01*
X44690476Y-43303422D01*
X44880952Y-43279613D01*
X45023809Y-43297470D01*
X45214285Y-43368898D01*
X45309523Y-43428422D01*
X45404761Y-43535565D01*
X45452380Y-43684375D01*
X45452380Y-43922470D01*
X45166666Y-42934375D02*
X45166666Y-42458184D01*
X45452380Y-43065327D02*
X44452380Y-42606994D01*
X45452380Y-42398660D01*
X43404761Y-44868898D02*
X43452380Y-44731994D01*
X43452380Y-44493898D01*
X43404761Y-44392708D01*
X43357142Y-44339136D01*
X43261904Y-44279613D01*
X43166666Y-44267708D01*
X43071428Y-44303422D01*
X43023809Y-44345089D01*
X42976190Y-44434375D01*
X42928571Y-44618898D01*
X42880952Y-44708184D01*
X42833333Y-44749851D01*
X42738095Y-44785565D01*
X42642857Y-44773660D01*
X42547619Y-44714136D01*
X42500000Y-44660565D01*
X42452380Y-44559375D01*
X42452380Y-44321279D01*
X42500000Y-44184375D01*
X43357142Y-43291517D02*
X43404761Y-43345089D01*
X43452380Y-43493898D01*
X43452380Y-43589136D01*
X43404761Y-43726041D01*
X43309523Y-43809375D01*
X43214285Y-43845089D01*
X43023809Y-43868898D01*
X42880952Y-43851041D01*
X42690476Y-43779613D01*
X42595238Y-43720089D01*
X42500000Y-43612946D01*
X42452380Y-43464136D01*
X42452380Y-43368898D01*
X42500000Y-43231994D01*
X42547619Y-43190327D01*
X43452380Y-42398660D02*
X43452380Y-42874851D01*
X42452380Y-42749851D01*
M02*
