G04 #@! TF.GenerationSoftware,KiCad,Pcbnew,(5.1.2-1)-1*
G04 #@! TF.CreationDate,2019-06-23T18:06:27+09:00*
G04 #@! TF.ProjectId,NervesAddonBoard,4e657276-6573-4416-9464-6f6e426f6172,rev?*
G04 #@! TF.SameCoordinates,Original*
G04 #@! TF.FileFunction,Legend,Bot*
G04 #@! TF.FilePolarity,Positive*
%FSLAX46Y46*%
G04 Gerber Fmt 4.6, Leading zero omitted, Abs format (unit mm)*
G04 Created by KiCad (PCBNEW (5.1.2-1)-1) date 2019-06-23 18:06:27*
%MOMM*%
%LPD*%
G04 APERTURE LIST*
%ADD10C,0.200000*%
%ADD11C,0.500000*%
%ADD12C,0.150000*%
%ADD13C,0.120000*%
%ADD14C,0.254000*%
G04 APERTURE END LIST*
D10*
X32675000Y-33300000D02*
X32675000Y-28400000D01*
X29475000Y-33300000D02*
X32675000Y-33300000D01*
X29475000Y-28400000D02*
X29475000Y-33300000D01*
X32675000Y-28400000D02*
X29475000Y-28400000D01*
D11*
X34098607Y-27550000D02*
G75*
G03X34098607Y-27550000I-223607J0D01*
G01*
D12*
X27100000Y-26640000D02*
X27100000Y-21560000D01*
X27100000Y-21560000D02*
X77900000Y-21560000D01*
X77900000Y-21560000D02*
X77900000Y-26640000D01*
X77900000Y-26640000D02*
X27100000Y-26640000D01*
D13*
X26595000Y-29240000D02*
X26595000Y-29740000D01*
X25655000Y-29740000D02*
X25655000Y-29240000D01*
D12*
X40900000Y-40000000D02*
X40900000Y-49500000D01*
X40900000Y-49500000D02*
X51100000Y-49500000D01*
X51100000Y-49500000D02*
X51100000Y-40000000D01*
X51100000Y-40000000D02*
X40900000Y-40000000D01*
X53900000Y-40000000D02*
X53900000Y-49500000D01*
X53900000Y-49500000D02*
X64100000Y-49500000D01*
X64100000Y-49500000D02*
X64100000Y-40000000D01*
X64100000Y-40000000D02*
X53900000Y-40000000D01*
X77100000Y-40000000D02*
X66900000Y-40000000D01*
X77100000Y-49500000D02*
X77100000Y-40000000D01*
X66900000Y-49500000D02*
X77100000Y-49500000D01*
X66900000Y-40000000D02*
X66900000Y-49500000D01*
D14*
X32314761Y-35024523D02*
X32314761Y-33754523D01*
X30984285Y-34903571D02*
X31044761Y-34964047D01*
X31226190Y-35024523D01*
X31347142Y-35024523D01*
X31528571Y-34964047D01*
X31649523Y-34843095D01*
X31710000Y-34722142D01*
X31770476Y-34480238D01*
X31770476Y-34298809D01*
X31710000Y-34056904D01*
X31649523Y-33935952D01*
X31528571Y-33815000D01*
X31347142Y-33754523D01*
X31226190Y-33754523D01*
X31044761Y-33815000D01*
X30984285Y-33875476D01*
X29774761Y-35024523D02*
X30500476Y-35024523D01*
X30137619Y-35024523D02*
X30137619Y-33754523D01*
X30258571Y-33935952D01*
X30379523Y-34056904D01*
X30500476Y-34117380D01*
D12*
X28033333Y-26852380D02*
X28033333Y-27566666D01*
X28080952Y-27709523D01*
X28176190Y-27804761D01*
X28319047Y-27852380D01*
X28414285Y-27852380D01*
X27033333Y-27852380D02*
X27604761Y-27852380D01*
X27319047Y-27852380D02*
X27319047Y-26852380D01*
X27414285Y-26995238D01*
X27509523Y-27090476D01*
X27604761Y-27138095D01*
X25212142Y-29323333D02*
X25259761Y-29275714D01*
X25307380Y-29132857D01*
X25307380Y-29037619D01*
X25259761Y-28894761D01*
X25164523Y-28799523D01*
X25069285Y-28751904D01*
X24878809Y-28704285D01*
X24735952Y-28704285D01*
X24545476Y-28751904D01*
X24450238Y-28799523D01*
X24355000Y-28894761D01*
X24307380Y-29037619D01*
X24307380Y-29132857D01*
X24355000Y-29275714D01*
X24402619Y-29323333D01*
X25307380Y-30275714D02*
X25307380Y-29704285D01*
X25307380Y-29990000D02*
X24307380Y-29990000D01*
X24450238Y-29894761D01*
X24545476Y-29799523D01*
X24593095Y-29704285D01*
X50733333Y-38652380D02*
X50733333Y-39366666D01*
X50780952Y-39509523D01*
X50876190Y-39604761D01*
X51019047Y-39652380D01*
X51114285Y-39652380D01*
X50304761Y-38747619D02*
X50257142Y-38700000D01*
X50161904Y-38652380D01*
X49923809Y-38652380D01*
X49828571Y-38700000D01*
X49780952Y-38747619D01*
X49733333Y-38842857D01*
X49733333Y-38938095D01*
X49780952Y-39080952D01*
X50352380Y-39652380D01*
X49733333Y-39652380D01*
X63733333Y-38652380D02*
X63733333Y-39366666D01*
X63780952Y-39509523D01*
X63876190Y-39604761D01*
X64019047Y-39652380D01*
X64114285Y-39652380D01*
X63352380Y-38652380D02*
X62733333Y-38652380D01*
X63066666Y-39033333D01*
X62923809Y-39033333D01*
X62828571Y-39080952D01*
X62780952Y-39128571D01*
X62733333Y-39223809D01*
X62733333Y-39461904D01*
X62780952Y-39557142D01*
X62828571Y-39604761D01*
X62923809Y-39652380D01*
X63209523Y-39652380D01*
X63304761Y-39604761D01*
X63352380Y-39557142D01*
X76733333Y-38752380D02*
X76733333Y-39466666D01*
X76780952Y-39609523D01*
X76876190Y-39704761D01*
X77019047Y-39752380D01*
X77114285Y-39752380D01*
X75828571Y-39085714D02*
X75828571Y-39752380D01*
X76066666Y-38704761D02*
X76304761Y-39419047D01*
X75685714Y-39419047D01*
M02*
