M48
; DRILL file {KiCad 5.1.2-f72e74a~84~ubuntu18.04.1} date 2019年06月27日 09時50分47秒
; FORMAT={-:-/ absolute / metric / decimal}
; #@! TF.CreationDate,2019-06-27T09:50:47+09:00
; #@! TF.GenerationSoftware,Kicad,Pcbnew,5.1.2-f72e74a~84~ubuntu18.04.1
FMAT,2
METRIC
T1C0.400
T2C0.762
T3C1.000
T4C2.700
%
G90
G05
T1
X30.14Y-24.48
X32.68Y-24.48
X35.22Y-24.48
X37.76Y-24.48
X47.75Y-25.0
X47.75Y-27.54
X47.75Y-30.08
X60.25Y-25.0
X60.25Y-27.54
X60.25Y-30.08
X72.75Y-25.0
X72.75Y-27.54
X72.75Y-30.08
T2
X51.0Y-27.0
X53.0Y-27.0
X55.0Y-27.0
X57.0Y-27.0
X28.37Y-34.09
X28.37Y-36.63
X30.91Y-34.09
X30.91Y-36.63
X33.45Y-34.09
X33.45Y-36.63
X35.99Y-34.09
X35.99Y-36.63
X38.53Y-34.09
X38.53Y-36.63
X41.07Y-34.09
X41.07Y-36.63
X43.61Y-34.09
X43.61Y-36.63
X46.15Y-34.09
X46.15Y-36.63
X48.69Y-34.09
X48.69Y-36.63
X51.23Y-34.09
X51.23Y-36.63
X53.77Y-34.09
X53.77Y-36.63
X56.31Y-34.09
X56.31Y-36.63
X58.85Y-34.09
X58.85Y-36.63
X61.39Y-34.09
X61.39Y-36.63
X63.93Y-34.09
X63.93Y-36.63
X66.47Y-34.09
X66.47Y-36.63
X69.01Y-34.09
X69.01Y-36.63
X71.55Y-34.09
X71.55Y-36.63
X74.09Y-34.09
X74.09Y-36.63
X76.63Y-34.09
X76.63Y-36.63
X38.5Y-27.0
X40.5Y-27.0
X42.5Y-27.0
X44.5Y-27.0
X76.0Y-27.0
X78.0Y-27.0
X80.0Y-27.0
X82.0Y-27.0
X63.5Y-27.0
X65.5Y-27.0
X67.5Y-27.0
X69.5Y-27.0
T3
X22.54Y-26.47
X22.54Y-29.01
X25.08Y-26.47
X25.08Y-29.01
X27.62Y-26.47
X27.62Y-29.01
X30.16Y-26.47
X30.16Y-29.01
X32.7Y-26.47
X32.7Y-29.01
T4
X81.5Y-34.76
X23.5Y-34.76
T0
M30
