M48
; DRILL file {KiCad (5.1.2-1)-1} date 2019 June 23, Sunday 17:49:40
; FORMAT={-:-/ absolute / inch / decimal}
; #@! TF.CreationDate,2019-06-23T17:49:40+09:00
; #@! TF.GenerationSoftware,Kicad,Pcbnew,(5.1.2-1)-1
FMAT,2
INCH
T1C0.0157
T2C0.0300
T3C0.1063
%
G90
G05
T1
X1.063Y-1.437
X1.063Y-1.5551
X1.063Y-1.7717
X1.063Y-1.8898
X1.1811Y-1.437
X1.1811Y-1.5551
X1.1811Y-1.7717
X1.1811Y-1.8898
X1.1862Y-1.1465
X1.2992Y-1.437
X1.2992Y-1.5551
X1.2992Y-1.7717
X1.2992Y-1.8898
X1.4173Y-1.437
X1.4173Y-1.5551
X1.4173Y-1.7717
X1.4173Y-1.8898
X1.4764Y-1.1614
X1.4764Y-1.2795
X1.5354Y-1.437
X1.5354Y-1.5551
X1.5354Y-1.7717
X1.5354Y-1.8898
X1.5945Y-1.1614
X1.5945Y-1.2795
X1.7126Y-1.1614
X1.7126Y-1.2795
X1.8307Y-1.1614
X1.8307Y-1.2795
X1.9488Y-1.1614
X1.9488Y-1.2795
X2.3425Y-1.1614
X2.3425Y-1.2795
X2.4606Y-1.1614
X2.4606Y-1.2795
X2.5787Y-1.1614
X2.5787Y-1.2795
X2.6969Y-1.1614
X2.6969Y-1.2795
X2.815Y-1.1614
X2.815Y-1.2795
T2
X1.6929Y-1.6142
X1.7717Y-1.6142
X1.8504Y-1.6142
X1.9291Y-1.6142
X2.2047Y-1.6142
X2.2835Y-1.6142
X2.3622Y-1.6142
X2.4409Y-1.6142
X2.7165Y-1.6142
X2.7953Y-1.6142
X2.874Y-1.6142
X2.9528Y-1.6142
X1.1169Y-0.8988
X1.1169Y-0.9988
X1.2169Y-0.8988
X1.2169Y-0.9988
X1.3169Y-0.8988
X1.3169Y-0.9988
X1.4169Y-0.8988
X1.4169Y-0.9988
X1.5169Y-0.8988
X1.5169Y-0.9988
X1.6169Y-0.8988
X1.6169Y-0.9988
X1.7169Y-0.8988
X1.7169Y-0.9988
X1.8169Y-0.8988
X1.8169Y-0.9988
X1.9169Y-0.8988
X1.9169Y-0.9988
X2.0169Y-0.8988
X2.0169Y-0.9988
X2.1169Y-0.8988
X2.1169Y-0.9988
X2.2169Y-0.8988
X2.2169Y-0.9988
X2.3169Y-0.8988
X2.3169Y-0.9988
X2.4169Y-0.8988
X2.4169Y-0.9988
X2.5169Y-0.8988
X2.5169Y-0.9988
X2.6169Y-0.8988
X2.6169Y-0.9988
X2.7169Y-0.8988
X2.7169Y-0.9988
X2.8169Y-0.8988
X2.8169Y-0.9988
X2.9169Y-0.8988
X2.9169Y-0.9988
X3.0169Y-0.8988
X3.0169Y-0.9988
T3
X0.9252Y-0.9252
X0.9252Y-1.8307
X3.2087Y-1.8307
X3.2087Y-0.9252
T0
M30
