G04 #@! TF.GenerationSoftware,KiCad,Pcbnew,(5.1.2-1)-1*
G04 #@! TF.CreationDate,2019-06-27T20:10:21+09:00*
G04 #@! TF.ProjectId,NervesAddonBoard,4e657276-6573-4416-9464-6f6e426f6172,rev?*
G04 #@! TF.SameCoordinates,Original*
G04 #@! TF.FileFunction,Soldermask,Bot*
G04 #@! TF.FilePolarity,Negative*
%FSLAX46Y46*%
G04 Gerber Fmt 4.6, Leading zero omitted, Abs format (unit mm)*
G04 Created by KiCad (PCBNEW (5.1.2-1)-1) date 2019-06-27 20:10:21*
%MOMM*%
%LPD*%
G04 APERTURE LIST*
%ADD10C,0.100000*%
G04 APERTURE END LIST*
D10*
G36*
X82036693Y-32061859D02*
G01*
X82302437Y-32114719D01*
X82803087Y-32322095D01*
X82983561Y-32442684D01*
X83253660Y-32623158D01*
X83636842Y-33006340D01*
X83817316Y-33276439D01*
X83937905Y-33456913D01*
X84145281Y-33957563D01*
X84187552Y-34170074D01*
X84248226Y-34475101D01*
X84251000Y-34489050D01*
X84251000Y-35030950D01*
X84145281Y-35562437D01*
X83937905Y-36063087D01*
X83817316Y-36243561D01*
X83636842Y-36513660D01*
X83253660Y-36896842D01*
X83076672Y-37015101D01*
X82803087Y-37197905D01*
X82302437Y-37405281D01*
X82112810Y-37443000D01*
X81770951Y-37511000D01*
X81229049Y-37511000D01*
X80887190Y-37443000D01*
X80697563Y-37405281D01*
X80196913Y-37197905D01*
X79923328Y-37015101D01*
X79746340Y-36896842D01*
X79363158Y-36513660D01*
X79182684Y-36243561D01*
X79062095Y-36063087D01*
X78854719Y-35562437D01*
X78749000Y-35030950D01*
X78749000Y-34489050D01*
X78751775Y-34475101D01*
X78812448Y-34170074D01*
X78854719Y-33957563D01*
X79062095Y-33456913D01*
X79182684Y-33276439D01*
X79363158Y-33006340D01*
X79746340Y-32623158D01*
X80016439Y-32442684D01*
X80196913Y-32322095D01*
X80697563Y-32114719D01*
X80963307Y-32061859D01*
X81229049Y-32009000D01*
X81770951Y-32009000D01*
X82036693Y-32061859D01*
X82036693Y-32061859D01*
G37*
G36*
X24036693Y-32061859D02*
G01*
X24302437Y-32114719D01*
X24803087Y-32322095D01*
X24983561Y-32442684D01*
X25253660Y-32623158D01*
X25636842Y-33006340D01*
X25817316Y-33276439D01*
X25937905Y-33456913D01*
X26145281Y-33957563D01*
X26187552Y-34170074D01*
X26248226Y-34475101D01*
X26251000Y-34489050D01*
X26251000Y-35030950D01*
X26145281Y-35562437D01*
X25937905Y-36063087D01*
X25817316Y-36243561D01*
X25636842Y-36513660D01*
X25253660Y-36896842D01*
X25076672Y-37015101D01*
X24803087Y-37197905D01*
X24302437Y-37405281D01*
X24112810Y-37443000D01*
X23770951Y-37511000D01*
X23229049Y-37511000D01*
X22887190Y-37443000D01*
X22697563Y-37405281D01*
X22196913Y-37197905D01*
X21923328Y-37015101D01*
X21746340Y-36896842D01*
X21363158Y-36513660D01*
X21182684Y-36243561D01*
X21062095Y-36063087D01*
X20854719Y-35562437D01*
X20749000Y-35030950D01*
X20749000Y-34489050D01*
X20751775Y-34475101D01*
X20812448Y-34170074D01*
X20854719Y-33957563D01*
X21062095Y-33456913D01*
X21182684Y-33276439D01*
X21363158Y-33006340D01*
X21746340Y-32623158D01*
X22016439Y-32442684D01*
X22196913Y-32322095D01*
X22697563Y-32114719D01*
X22963307Y-32061859D01*
X23229049Y-32009000D01*
X23770951Y-32009000D01*
X24036693Y-32061859D01*
X24036693Y-32061859D01*
G37*
G36*
X71787142Y-35848242D02*
G01*
X71935101Y-35909529D01*
X72068255Y-35998499D01*
X72181501Y-36111745D01*
X72270471Y-36244899D01*
X72331758Y-36392858D01*
X72363000Y-36549925D01*
X72363000Y-36710075D01*
X72331758Y-36867142D01*
X72270471Y-37015101D01*
X72181501Y-37148255D01*
X72068255Y-37261501D01*
X71935101Y-37350471D01*
X71787142Y-37411758D01*
X71630075Y-37443000D01*
X71469925Y-37443000D01*
X71312858Y-37411758D01*
X71164899Y-37350471D01*
X71031745Y-37261501D01*
X70918499Y-37148255D01*
X70829529Y-37015101D01*
X70768242Y-36867142D01*
X70737000Y-36710075D01*
X70737000Y-36549925D01*
X70768242Y-36392858D01*
X70829529Y-36244899D01*
X70918499Y-36111745D01*
X71031745Y-35998499D01*
X71164899Y-35909529D01*
X71312858Y-35848242D01*
X71469925Y-35817000D01*
X71630075Y-35817000D01*
X71787142Y-35848242D01*
X71787142Y-35848242D01*
G37*
G36*
X69247142Y-35848242D02*
G01*
X69395101Y-35909529D01*
X69528255Y-35998499D01*
X69641501Y-36111745D01*
X69730471Y-36244899D01*
X69791758Y-36392858D01*
X69823000Y-36549925D01*
X69823000Y-36710075D01*
X69791758Y-36867142D01*
X69730471Y-37015101D01*
X69641501Y-37148255D01*
X69528255Y-37261501D01*
X69395101Y-37350471D01*
X69247142Y-37411758D01*
X69090075Y-37443000D01*
X68929925Y-37443000D01*
X68772858Y-37411758D01*
X68624899Y-37350471D01*
X68491745Y-37261501D01*
X68378499Y-37148255D01*
X68289529Y-37015101D01*
X68228242Y-36867142D01*
X68197000Y-36710075D01*
X68197000Y-36549925D01*
X68228242Y-36392858D01*
X68289529Y-36244899D01*
X68378499Y-36111745D01*
X68491745Y-35998499D01*
X68624899Y-35909529D01*
X68772858Y-35848242D01*
X68929925Y-35817000D01*
X69090075Y-35817000D01*
X69247142Y-35848242D01*
X69247142Y-35848242D01*
G37*
G36*
X66707142Y-35848242D02*
G01*
X66855101Y-35909529D01*
X66988255Y-35998499D01*
X67101501Y-36111745D01*
X67190471Y-36244899D01*
X67251758Y-36392858D01*
X67283000Y-36549925D01*
X67283000Y-36710075D01*
X67251758Y-36867142D01*
X67190471Y-37015101D01*
X67101501Y-37148255D01*
X66988255Y-37261501D01*
X66855101Y-37350471D01*
X66707142Y-37411758D01*
X66550075Y-37443000D01*
X66389925Y-37443000D01*
X66232858Y-37411758D01*
X66084899Y-37350471D01*
X65951745Y-37261501D01*
X65838499Y-37148255D01*
X65749529Y-37015101D01*
X65688242Y-36867142D01*
X65657000Y-36710075D01*
X65657000Y-36549925D01*
X65688242Y-36392858D01*
X65749529Y-36244899D01*
X65838499Y-36111745D01*
X65951745Y-35998499D01*
X66084899Y-35909529D01*
X66232858Y-35848242D01*
X66389925Y-35817000D01*
X66550075Y-35817000D01*
X66707142Y-35848242D01*
X66707142Y-35848242D01*
G37*
G36*
X64167142Y-35848242D02*
G01*
X64315101Y-35909529D01*
X64448255Y-35998499D01*
X64561501Y-36111745D01*
X64650471Y-36244899D01*
X64711758Y-36392858D01*
X64743000Y-36549925D01*
X64743000Y-36710075D01*
X64711758Y-36867142D01*
X64650471Y-37015101D01*
X64561501Y-37148255D01*
X64448255Y-37261501D01*
X64315101Y-37350471D01*
X64167142Y-37411758D01*
X64010075Y-37443000D01*
X63849925Y-37443000D01*
X63692858Y-37411758D01*
X63544899Y-37350471D01*
X63411745Y-37261501D01*
X63298499Y-37148255D01*
X63209529Y-37015101D01*
X63148242Y-36867142D01*
X63117000Y-36710075D01*
X63117000Y-36549925D01*
X63148242Y-36392858D01*
X63209529Y-36244899D01*
X63298499Y-36111745D01*
X63411745Y-35998499D01*
X63544899Y-35909529D01*
X63692858Y-35848242D01*
X63849925Y-35817000D01*
X64010075Y-35817000D01*
X64167142Y-35848242D01*
X64167142Y-35848242D01*
G37*
G36*
X61627142Y-35848242D02*
G01*
X61775101Y-35909529D01*
X61908255Y-35998499D01*
X62021501Y-36111745D01*
X62110471Y-36244899D01*
X62171758Y-36392858D01*
X62203000Y-36549925D01*
X62203000Y-36710075D01*
X62171758Y-36867142D01*
X62110471Y-37015101D01*
X62021501Y-37148255D01*
X61908255Y-37261501D01*
X61775101Y-37350471D01*
X61627142Y-37411758D01*
X61470075Y-37443000D01*
X61309925Y-37443000D01*
X61152858Y-37411758D01*
X61004899Y-37350471D01*
X60871745Y-37261501D01*
X60758499Y-37148255D01*
X60669529Y-37015101D01*
X60608242Y-36867142D01*
X60577000Y-36710075D01*
X60577000Y-36549925D01*
X60608242Y-36392858D01*
X60669529Y-36244899D01*
X60758499Y-36111745D01*
X60871745Y-35998499D01*
X61004899Y-35909529D01*
X61152858Y-35848242D01*
X61309925Y-35817000D01*
X61470075Y-35817000D01*
X61627142Y-35848242D01*
X61627142Y-35848242D01*
G37*
G36*
X59087142Y-35848242D02*
G01*
X59235101Y-35909529D01*
X59368255Y-35998499D01*
X59481501Y-36111745D01*
X59570471Y-36244899D01*
X59631758Y-36392858D01*
X59663000Y-36549925D01*
X59663000Y-36710075D01*
X59631758Y-36867142D01*
X59570471Y-37015101D01*
X59481501Y-37148255D01*
X59368255Y-37261501D01*
X59235101Y-37350471D01*
X59087142Y-37411758D01*
X58930075Y-37443000D01*
X58769925Y-37443000D01*
X58612858Y-37411758D01*
X58464899Y-37350471D01*
X58331745Y-37261501D01*
X58218499Y-37148255D01*
X58129529Y-37015101D01*
X58068242Y-36867142D01*
X58037000Y-36710075D01*
X58037000Y-36549925D01*
X58068242Y-36392858D01*
X58129529Y-36244899D01*
X58218499Y-36111745D01*
X58331745Y-35998499D01*
X58464899Y-35909529D01*
X58612858Y-35848242D01*
X58769925Y-35817000D01*
X58930075Y-35817000D01*
X59087142Y-35848242D01*
X59087142Y-35848242D01*
G37*
G36*
X56547142Y-35848242D02*
G01*
X56695101Y-35909529D01*
X56828255Y-35998499D01*
X56941501Y-36111745D01*
X57030471Y-36244899D01*
X57091758Y-36392858D01*
X57123000Y-36549925D01*
X57123000Y-36710075D01*
X57091758Y-36867142D01*
X57030471Y-37015101D01*
X56941501Y-37148255D01*
X56828255Y-37261501D01*
X56695101Y-37350471D01*
X56547142Y-37411758D01*
X56390075Y-37443000D01*
X56229925Y-37443000D01*
X56072858Y-37411758D01*
X55924899Y-37350471D01*
X55791745Y-37261501D01*
X55678499Y-37148255D01*
X55589529Y-37015101D01*
X55528242Y-36867142D01*
X55497000Y-36710075D01*
X55497000Y-36549925D01*
X55528242Y-36392858D01*
X55589529Y-36244899D01*
X55678499Y-36111745D01*
X55791745Y-35998499D01*
X55924899Y-35909529D01*
X56072858Y-35848242D01*
X56229925Y-35817000D01*
X56390075Y-35817000D01*
X56547142Y-35848242D01*
X56547142Y-35848242D01*
G37*
G36*
X54007142Y-35848242D02*
G01*
X54155101Y-35909529D01*
X54288255Y-35998499D01*
X54401501Y-36111745D01*
X54490471Y-36244899D01*
X54551758Y-36392858D01*
X54583000Y-36549925D01*
X54583000Y-36710075D01*
X54551758Y-36867142D01*
X54490471Y-37015101D01*
X54401501Y-37148255D01*
X54288255Y-37261501D01*
X54155101Y-37350471D01*
X54007142Y-37411758D01*
X53850075Y-37443000D01*
X53689925Y-37443000D01*
X53532858Y-37411758D01*
X53384899Y-37350471D01*
X53251745Y-37261501D01*
X53138499Y-37148255D01*
X53049529Y-37015101D01*
X52988242Y-36867142D01*
X52957000Y-36710075D01*
X52957000Y-36549925D01*
X52988242Y-36392858D01*
X53049529Y-36244899D01*
X53138499Y-36111745D01*
X53251745Y-35998499D01*
X53384899Y-35909529D01*
X53532858Y-35848242D01*
X53689925Y-35817000D01*
X53850075Y-35817000D01*
X54007142Y-35848242D01*
X54007142Y-35848242D01*
G37*
G36*
X51467142Y-35848242D02*
G01*
X51615101Y-35909529D01*
X51748255Y-35998499D01*
X51861501Y-36111745D01*
X51950471Y-36244899D01*
X52011758Y-36392858D01*
X52043000Y-36549925D01*
X52043000Y-36710075D01*
X52011758Y-36867142D01*
X51950471Y-37015101D01*
X51861501Y-37148255D01*
X51748255Y-37261501D01*
X51615101Y-37350471D01*
X51467142Y-37411758D01*
X51310075Y-37443000D01*
X51149925Y-37443000D01*
X50992858Y-37411758D01*
X50844899Y-37350471D01*
X50711745Y-37261501D01*
X50598499Y-37148255D01*
X50509529Y-37015101D01*
X50448242Y-36867142D01*
X50417000Y-36710075D01*
X50417000Y-36549925D01*
X50448242Y-36392858D01*
X50509529Y-36244899D01*
X50598499Y-36111745D01*
X50711745Y-35998499D01*
X50844899Y-35909529D01*
X50992858Y-35848242D01*
X51149925Y-35817000D01*
X51310075Y-35817000D01*
X51467142Y-35848242D01*
X51467142Y-35848242D01*
G37*
G36*
X48927142Y-35848242D02*
G01*
X49075101Y-35909529D01*
X49208255Y-35998499D01*
X49321501Y-36111745D01*
X49410471Y-36244899D01*
X49471758Y-36392858D01*
X49503000Y-36549925D01*
X49503000Y-36710075D01*
X49471758Y-36867142D01*
X49410471Y-37015101D01*
X49321501Y-37148255D01*
X49208255Y-37261501D01*
X49075101Y-37350471D01*
X48927142Y-37411758D01*
X48770075Y-37443000D01*
X48609925Y-37443000D01*
X48452858Y-37411758D01*
X48304899Y-37350471D01*
X48171745Y-37261501D01*
X48058499Y-37148255D01*
X47969529Y-37015101D01*
X47908242Y-36867142D01*
X47877000Y-36710075D01*
X47877000Y-36549925D01*
X47908242Y-36392858D01*
X47969529Y-36244899D01*
X48058499Y-36111745D01*
X48171745Y-35998499D01*
X48304899Y-35909529D01*
X48452858Y-35848242D01*
X48609925Y-35817000D01*
X48770075Y-35817000D01*
X48927142Y-35848242D01*
X48927142Y-35848242D01*
G37*
G36*
X46387142Y-35848242D02*
G01*
X46535101Y-35909529D01*
X46668255Y-35998499D01*
X46781501Y-36111745D01*
X46870471Y-36244899D01*
X46931758Y-36392858D01*
X46963000Y-36549925D01*
X46963000Y-36710075D01*
X46931758Y-36867142D01*
X46870471Y-37015101D01*
X46781501Y-37148255D01*
X46668255Y-37261501D01*
X46535101Y-37350471D01*
X46387142Y-37411758D01*
X46230075Y-37443000D01*
X46069925Y-37443000D01*
X45912858Y-37411758D01*
X45764899Y-37350471D01*
X45631745Y-37261501D01*
X45518499Y-37148255D01*
X45429529Y-37015101D01*
X45368242Y-36867142D01*
X45337000Y-36710075D01*
X45337000Y-36549925D01*
X45368242Y-36392858D01*
X45429529Y-36244899D01*
X45518499Y-36111745D01*
X45631745Y-35998499D01*
X45764899Y-35909529D01*
X45912858Y-35848242D01*
X46069925Y-35817000D01*
X46230075Y-35817000D01*
X46387142Y-35848242D01*
X46387142Y-35848242D01*
G37*
G36*
X43847142Y-35848242D02*
G01*
X43995101Y-35909529D01*
X44128255Y-35998499D01*
X44241501Y-36111745D01*
X44330471Y-36244899D01*
X44391758Y-36392858D01*
X44423000Y-36549925D01*
X44423000Y-36710075D01*
X44391758Y-36867142D01*
X44330471Y-37015101D01*
X44241501Y-37148255D01*
X44128255Y-37261501D01*
X43995101Y-37350471D01*
X43847142Y-37411758D01*
X43690075Y-37443000D01*
X43529925Y-37443000D01*
X43372858Y-37411758D01*
X43224899Y-37350471D01*
X43091745Y-37261501D01*
X42978499Y-37148255D01*
X42889529Y-37015101D01*
X42828242Y-36867142D01*
X42797000Y-36710075D01*
X42797000Y-36549925D01*
X42828242Y-36392858D01*
X42889529Y-36244899D01*
X42978499Y-36111745D01*
X43091745Y-35998499D01*
X43224899Y-35909529D01*
X43372858Y-35848242D01*
X43529925Y-35817000D01*
X43690075Y-35817000D01*
X43847142Y-35848242D01*
X43847142Y-35848242D01*
G37*
G36*
X41307142Y-35848242D02*
G01*
X41455101Y-35909529D01*
X41588255Y-35998499D01*
X41701501Y-36111745D01*
X41790471Y-36244899D01*
X41851758Y-36392858D01*
X41883000Y-36549925D01*
X41883000Y-36710075D01*
X41851758Y-36867142D01*
X41790471Y-37015101D01*
X41701501Y-37148255D01*
X41588255Y-37261501D01*
X41455101Y-37350471D01*
X41307142Y-37411758D01*
X41150075Y-37443000D01*
X40989925Y-37443000D01*
X40832858Y-37411758D01*
X40684899Y-37350471D01*
X40551745Y-37261501D01*
X40438499Y-37148255D01*
X40349529Y-37015101D01*
X40288242Y-36867142D01*
X40257000Y-36710075D01*
X40257000Y-36549925D01*
X40288242Y-36392858D01*
X40349529Y-36244899D01*
X40438499Y-36111745D01*
X40551745Y-35998499D01*
X40684899Y-35909529D01*
X40832858Y-35848242D01*
X40989925Y-35817000D01*
X41150075Y-35817000D01*
X41307142Y-35848242D01*
X41307142Y-35848242D01*
G37*
G36*
X38767142Y-35848242D02*
G01*
X38915101Y-35909529D01*
X39048255Y-35998499D01*
X39161501Y-36111745D01*
X39250471Y-36244899D01*
X39311758Y-36392858D01*
X39343000Y-36549925D01*
X39343000Y-36710075D01*
X39311758Y-36867142D01*
X39250471Y-37015101D01*
X39161501Y-37148255D01*
X39048255Y-37261501D01*
X38915101Y-37350471D01*
X38767142Y-37411758D01*
X38610075Y-37443000D01*
X38449925Y-37443000D01*
X38292858Y-37411758D01*
X38144899Y-37350471D01*
X38011745Y-37261501D01*
X37898499Y-37148255D01*
X37809529Y-37015101D01*
X37748242Y-36867142D01*
X37717000Y-36710075D01*
X37717000Y-36549925D01*
X37748242Y-36392858D01*
X37809529Y-36244899D01*
X37898499Y-36111745D01*
X38011745Y-35998499D01*
X38144899Y-35909529D01*
X38292858Y-35848242D01*
X38449925Y-35817000D01*
X38610075Y-35817000D01*
X38767142Y-35848242D01*
X38767142Y-35848242D01*
G37*
G36*
X36227142Y-35848242D02*
G01*
X36375101Y-35909529D01*
X36508255Y-35998499D01*
X36621501Y-36111745D01*
X36710471Y-36244899D01*
X36771758Y-36392858D01*
X36803000Y-36549925D01*
X36803000Y-36710075D01*
X36771758Y-36867142D01*
X36710471Y-37015101D01*
X36621501Y-37148255D01*
X36508255Y-37261501D01*
X36375101Y-37350471D01*
X36227142Y-37411758D01*
X36070075Y-37443000D01*
X35909925Y-37443000D01*
X35752858Y-37411758D01*
X35604899Y-37350471D01*
X35471745Y-37261501D01*
X35358499Y-37148255D01*
X35269529Y-37015101D01*
X35208242Y-36867142D01*
X35177000Y-36710075D01*
X35177000Y-36549925D01*
X35208242Y-36392858D01*
X35269529Y-36244899D01*
X35358499Y-36111745D01*
X35471745Y-35998499D01*
X35604899Y-35909529D01*
X35752858Y-35848242D01*
X35909925Y-35817000D01*
X36070075Y-35817000D01*
X36227142Y-35848242D01*
X36227142Y-35848242D01*
G37*
G36*
X33687142Y-35848242D02*
G01*
X33835101Y-35909529D01*
X33968255Y-35998499D01*
X34081501Y-36111745D01*
X34170471Y-36244899D01*
X34231758Y-36392858D01*
X34263000Y-36549925D01*
X34263000Y-36710075D01*
X34231758Y-36867142D01*
X34170471Y-37015101D01*
X34081501Y-37148255D01*
X33968255Y-37261501D01*
X33835101Y-37350471D01*
X33687142Y-37411758D01*
X33530075Y-37443000D01*
X33369925Y-37443000D01*
X33212858Y-37411758D01*
X33064899Y-37350471D01*
X32931745Y-37261501D01*
X32818499Y-37148255D01*
X32729529Y-37015101D01*
X32668242Y-36867142D01*
X32637000Y-36710075D01*
X32637000Y-36549925D01*
X32668242Y-36392858D01*
X32729529Y-36244899D01*
X32818499Y-36111745D01*
X32931745Y-35998499D01*
X33064899Y-35909529D01*
X33212858Y-35848242D01*
X33369925Y-35817000D01*
X33530075Y-35817000D01*
X33687142Y-35848242D01*
X33687142Y-35848242D01*
G37*
G36*
X31147142Y-35848242D02*
G01*
X31295101Y-35909529D01*
X31428255Y-35998499D01*
X31541501Y-36111745D01*
X31630471Y-36244899D01*
X31691758Y-36392858D01*
X31723000Y-36549925D01*
X31723000Y-36710075D01*
X31691758Y-36867142D01*
X31630471Y-37015101D01*
X31541501Y-37148255D01*
X31428255Y-37261501D01*
X31295101Y-37350471D01*
X31147142Y-37411758D01*
X30990075Y-37443000D01*
X30829925Y-37443000D01*
X30672858Y-37411758D01*
X30524899Y-37350471D01*
X30391745Y-37261501D01*
X30278499Y-37148255D01*
X30189529Y-37015101D01*
X30128242Y-36867142D01*
X30097000Y-36710075D01*
X30097000Y-36549925D01*
X30128242Y-36392858D01*
X30189529Y-36244899D01*
X30278499Y-36111745D01*
X30391745Y-35998499D01*
X30524899Y-35909529D01*
X30672858Y-35848242D01*
X30829925Y-35817000D01*
X30990075Y-35817000D01*
X31147142Y-35848242D01*
X31147142Y-35848242D01*
G37*
G36*
X29183000Y-37443000D02*
G01*
X27557000Y-37443000D01*
X27557000Y-35817000D01*
X29183000Y-35817000D01*
X29183000Y-37443000D01*
X29183000Y-37443000D01*
G37*
G36*
X74327142Y-35848242D02*
G01*
X74475101Y-35909529D01*
X74608255Y-35998499D01*
X74721501Y-36111745D01*
X74810471Y-36244899D01*
X74871758Y-36392858D01*
X74903000Y-36549925D01*
X74903000Y-36710075D01*
X74871758Y-36867142D01*
X74810471Y-37015101D01*
X74721501Y-37148255D01*
X74608255Y-37261501D01*
X74475101Y-37350471D01*
X74327142Y-37411758D01*
X74170075Y-37443000D01*
X74009925Y-37443000D01*
X73852858Y-37411758D01*
X73704899Y-37350471D01*
X73571745Y-37261501D01*
X73458499Y-37148255D01*
X73369529Y-37015101D01*
X73308242Y-36867142D01*
X73277000Y-36710075D01*
X73277000Y-36549925D01*
X73308242Y-36392858D01*
X73369529Y-36244899D01*
X73458499Y-36111745D01*
X73571745Y-35998499D01*
X73704899Y-35909529D01*
X73852858Y-35848242D01*
X74009925Y-35817000D01*
X74170075Y-35817000D01*
X74327142Y-35848242D01*
X74327142Y-35848242D01*
G37*
G36*
X76867142Y-35848242D02*
G01*
X77015101Y-35909529D01*
X77148255Y-35998499D01*
X77261501Y-36111745D01*
X77350471Y-36244899D01*
X77411758Y-36392858D01*
X77443000Y-36549925D01*
X77443000Y-36710075D01*
X77411758Y-36867142D01*
X77350471Y-37015101D01*
X77261501Y-37148255D01*
X77148255Y-37261501D01*
X77015101Y-37350471D01*
X76867142Y-37411758D01*
X76710075Y-37443000D01*
X76549925Y-37443000D01*
X76392858Y-37411758D01*
X76244899Y-37350471D01*
X76111745Y-37261501D01*
X75998499Y-37148255D01*
X75909529Y-37015101D01*
X75848242Y-36867142D01*
X75817000Y-36710075D01*
X75817000Y-36549925D01*
X75848242Y-36392858D01*
X75909529Y-36244899D01*
X75998499Y-36111745D01*
X76111745Y-35998499D01*
X76244899Y-35909529D01*
X76392858Y-35848242D01*
X76549925Y-35817000D01*
X76710075Y-35817000D01*
X76867142Y-35848242D01*
X76867142Y-35848242D01*
G37*
G36*
X46387142Y-33308242D02*
G01*
X46535101Y-33369529D01*
X46668255Y-33458499D01*
X46781501Y-33571745D01*
X46870471Y-33704899D01*
X46931758Y-33852858D01*
X46963000Y-34009925D01*
X46963000Y-34170075D01*
X46931758Y-34327142D01*
X46870471Y-34475101D01*
X46781501Y-34608255D01*
X46668255Y-34721501D01*
X46535101Y-34810471D01*
X46387142Y-34871758D01*
X46230075Y-34903000D01*
X46069925Y-34903000D01*
X45912858Y-34871758D01*
X45764899Y-34810471D01*
X45631745Y-34721501D01*
X45518499Y-34608255D01*
X45429529Y-34475101D01*
X45368242Y-34327142D01*
X45337000Y-34170075D01*
X45337000Y-34009925D01*
X45368242Y-33852858D01*
X45429529Y-33704899D01*
X45518499Y-33571745D01*
X45631745Y-33458499D01*
X45764899Y-33369529D01*
X45912858Y-33308242D01*
X46069925Y-33277000D01*
X46230075Y-33277000D01*
X46387142Y-33308242D01*
X46387142Y-33308242D01*
G37*
G36*
X43847142Y-33308242D02*
G01*
X43995101Y-33369529D01*
X44128255Y-33458499D01*
X44241501Y-33571745D01*
X44330471Y-33704899D01*
X44391758Y-33852858D01*
X44423000Y-34009925D01*
X44423000Y-34170075D01*
X44391758Y-34327142D01*
X44330471Y-34475101D01*
X44241501Y-34608255D01*
X44128255Y-34721501D01*
X43995101Y-34810471D01*
X43847142Y-34871758D01*
X43690075Y-34903000D01*
X43529925Y-34903000D01*
X43372858Y-34871758D01*
X43224899Y-34810471D01*
X43091745Y-34721501D01*
X42978499Y-34608255D01*
X42889529Y-34475101D01*
X42828242Y-34327142D01*
X42797000Y-34170075D01*
X42797000Y-34009925D01*
X42828242Y-33852858D01*
X42889529Y-33704899D01*
X42978499Y-33571745D01*
X43091745Y-33458499D01*
X43224899Y-33369529D01*
X43372858Y-33308242D01*
X43529925Y-33277000D01*
X43690075Y-33277000D01*
X43847142Y-33308242D01*
X43847142Y-33308242D01*
G37*
G36*
X76867142Y-33308242D02*
G01*
X77015101Y-33369529D01*
X77148255Y-33458499D01*
X77261501Y-33571745D01*
X77350471Y-33704899D01*
X77411758Y-33852858D01*
X77443000Y-34009925D01*
X77443000Y-34170075D01*
X77411758Y-34327142D01*
X77350471Y-34475101D01*
X77261501Y-34608255D01*
X77148255Y-34721501D01*
X77015101Y-34810471D01*
X76867142Y-34871758D01*
X76710075Y-34903000D01*
X76549925Y-34903000D01*
X76392858Y-34871758D01*
X76244899Y-34810471D01*
X76111745Y-34721501D01*
X75998499Y-34608255D01*
X75909529Y-34475101D01*
X75848242Y-34327142D01*
X75817000Y-34170075D01*
X75817000Y-34009925D01*
X75848242Y-33852858D01*
X75909529Y-33704899D01*
X75998499Y-33571745D01*
X76111745Y-33458499D01*
X76244899Y-33369529D01*
X76392858Y-33308242D01*
X76549925Y-33277000D01*
X76710075Y-33277000D01*
X76867142Y-33308242D01*
X76867142Y-33308242D01*
G37*
G36*
X74327142Y-33308242D02*
G01*
X74475101Y-33369529D01*
X74608255Y-33458499D01*
X74721501Y-33571745D01*
X74810471Y-33704899D01*
X74871758Y-33852858D01*
X74903000Y-34009925D01*
X74903000Y-34170075D01*
X74871758Y-34327142D01*
X74810471Y-34475101D01*
X74721501Y-34608255D01*
X74608255Y-34721501D01*
X74475101Y-34810471D01*
X74327142Y-34871758D01*
X74170075Y-34903000D01*
X74009925Y-34903000D01*
X73852858Y-34871758D01*
X73704899Y-34810471D01*
X73571745Y-34721501D01*
X73458499Y-34608255D01*
X73369529Y-34475101D01*
X73308242Y-34327142D01*
X73277000Y-34170075D01*
X73277000Y-34009925D01*
X73308242Y-33852858D01*
X73369529Y-33704899D01*
X73458499Y-33571745D01*
X73571745Y-33458499D01*
X73704899Y-33369529D01*
X73852858Y-33308242D01*
X74009925Y-33277000D01*
X74170075Y-33277000D01*
X74327142Y-33308242D01*
X74327142Y-33308242D01*
G37*
G36*
X41307142Y-33308242D02*
G01*
X41455101Y-33369529D01*
X41588255Y-33458499D01*
X41701501Y-33571745D01*
X41790471Y-33704899D01*
X41851758Y-33852858D01*
X41883000Y-34009925D01*
X41883000Y-34170075D01*
X41851758Y-34327142D01*
X41790471Y-34475101D01*
X41701501Y-34608255D01*
X41588255Y-34721501D01*
X41455101Y-34810471D01*
X41307142Y-34871758D01*
X41150075Y-34903000D01*
X40989925Y-34903000D01*
X40832858Y-34871758D01*
X40684899Y-34810471D01*
X40551745Y-34721501D01*
X40438499Y-34608255D01*
X40349529Y-34475101D01*
X40288242Y-34327142D01*
X40257000Y-34170075D01*
X40257000Y-34009925D01*
X40288242Y-33852858D01*
X40349529Y-33704899D01*
X40438499Y-33571745D01*
X40551745Y-33458499D01*
X40684899Y-33369529D01*
X40832858Y-33308242D01*
X40989925Y-33277000D01*
X41150075Y-33277000D01*
X41307142Y-33308242D01*
X41307142Y-33308242D01*
G37*
G36*
X71787142Y-33308242D02*
G01*
X71935101Y-33369529D01*
X72068255Y-33458499D01*
X72181501Y-33571745D01*
X72270471Y-33704899D01*
X72331758Y-33852858D01*
X72363000Y-34009925D01*
X72363000Y-34170075D01*
X72331758Y-34327142D01*
X72270471Y-34475101D01*
X72181501Y-34608255D01*
X72068255Y-34721501D01*
X71935101Y-34810471D01*
X71787142Y-34871758D01*
X71630075Y-34903000D01*
X71469925Y-34903000D01*
X71312858Y-34871758D01*
X71164899Y-34810471D01*
X71031745Y-34721501D01*
X70918499Y-34608255D01*
X70829529Y-34475101D01*
X70768242Y-34327142D01*
X70737000Y-34170075D01*
X70737000Y-34009925D01*
X70768242Y-33852858D01*
X70829529Y-33704899D01*
X70918499Y-33571745D01*
X71031745Y-33458499D01*
X71164899Y-33369529D01*
X71312858Y-33308242D01*
X71469925Y-33277000D01*
X71630075Y-33277000D01*
X71787142Y-33308242D01*
X71787142Y-33308242D01*
G37*
G36*
X38767142Y-33308242D02*
G01*
X38915101Y-33369529D01*
X39048255Y-33458499D01*
X39161501Y-33571745D01*
X39250471Y-33704899D01*
X39311758Y-33852858D01*
X39343000Y-34009925D01*
X39343000Y-34170075D01*
X39311758Y-34327142D01*
X39250471Y-34475101D01*
X39161501Y-34608255D01*
X39048255Y-34721501D01*
X38915101Y-34810471D01*
X38767142Y-34871758D01*
X38610075Y-34903000D01*
X38449925Y-34903000D01*
X38292858Y-34871758D01*
X38144899Y-34810471D01*
X38011745Y-34721501D01*
X37898499Y-34608255D01*
X37809529Y-34475101D01*
X37748242Y-34327142D01*
X37717000Y-34170075D01*
X37717000Y-34009925D01*
X37748242Y-33852858D01*
X37809529Y-33704899D01*
X37898499Y-33571745D01*
X38011745Y-33458499D01*
X38144899Y-33369529D01*
X38292858Y-33308242D01*
X38449925Y-33277000D01*
X38610075Y-33277000D01*
X38767142Y-33308242D01*
X38767142Y-33308242D01*
G37*
G36*
X69247142Y-33308242D02*
G01*
X69395101Y-33369529D01*
X69528255Y-33458499D01*
X69641501Y-33571745D01*
X69730471Y-33704899D01*
X69791758Y-33852858D01*
X69823000Y-34009925D01*
X69823000Y-34170075D01*
X69791758Y-34327142D01*
X69730471Y-34475101D01*
X69641501Y-34608255D01*
X69528255Y-34721501D01*
X69395101Y-34810471D01*
X69247142Y-34871758D01*
X69090075Y-34903000D01*
X68929925Y-34903000D01*
X68772858Y-34871758D01*
X68624899Y-34810471D01*
X68491745Y-34721501D01*
X68378499Y-34608255D01*
X68289529Y-34475101D01*
X68228242Y-34327142D01*
X68197000Y-34170075D01*
X68197000Y-34009925D01*
X68228242Y-33852858D01*
X68289529Y-33704899D01*
X68378499Y-33571745D01*
X68491745Y-33458499D01*
X68624899Y-33369529D01*
X68772858Y-33308242D01*
X68929925Y-33277000D01*
X69090075Y-33277000D01*
X69247142Y-33308242D01*
X69247142Y-33308242D01*
G37*
G36*
X36227142Y-33308242D02*
G01*
X36375101Y-33369529D01*
X36508255Y-33458499D01*
X36621501Y-33571745D01*
X36710471Y-33704899D01*
X36771758Y-33852858D01*
X36803000Y-34009925D01*
X36803000Y-34170075D01*
X36771758Y-34327142D01*
X36710471Y-34475101D01*
X36621501Y-34608255D01*
X36508255Y-34721501D01*
X36375101Y-34810471D01*
X36227142Y-34871758D01*
X36070075Y-34903000D01*
X35909925Y-34903000D01*
X35752858Y-34871758D01*
X35604899Y-34810471D01*
X35471745Y-34721501D01*
X35358499Y-34608255D01*
X35269529Y-34475101D01*
X35208242Y-34327142D01*
X35177000Y-34170075D01*
X35177000Y-34009925D01*
X35208242Y-33852858D01*
X35269529Y-33704899D01*
X35358499Y-33571745D01*
X35471745Y-33458499D01*
X35604899Y-33369529D01*
X35752858Y-33308242D01*
X35909925Y-33277000D01*
X36070075Y-33277000D01*
X36227142Y-33308242D01*
X36227142Y-33308242D01*
G37*
G36*
X28607142Y-33308242D02*
G01*
X28755101Y-33369529D01*
X28888255Y-33458499D01*
X29001501Y-33571745D01*
X29090471Y-33704899D01*
X29151758Y-33852858D01*
X29183000Y-34009925D01*
X29183000Y-34170075D01*
X29151758Y-34327142D01*
X29090471Y-34475101D01*
X29001501Y-34608255D01*
X28888255Y-34721501D01*
X28755101Y-34810471D01*
X28607142Y-34871758D01*
X28450075Y-34903000D01*
X28289925Y-34903000D01*
X28132858Y-34871758D01*
X27984899Y-34810471D01*
X27851745Y-34721501D01*
X27738499Y-34608255D01*
X27649529Y-34475101D01*
X27588242Y-34327142D01*
X27557000Y-34170075D01*
X27557000Y-34009925D01*
X27588242Y-33852858D01*
X27649529Y-33704899D01*
X27738499Y-33571745D01*
X27851745Y-33458499D01*
X27984899Y-33369529D01*
X28132858Y-33308242D01*
X28289925Y-33277000D01*
X28450075Y-33277000D01*
X28607142Y-33308242D01*
X28607142Y-33308242D01*
G37*
G36*
X31147142Y-33308242D02*
G01*
X31295101Y-33369529D01*
X31428255Y-33458499D01*
X31541501Y-33571745D01*
X31630471Y-33704899D01*
X31691758Y-33852858D01*
X31723000Y-34009925D01*
X31723000Y-34170075D01*
X31691758Y-34327142D01*
X31630471Y-34475101D01*
X31541501Y-34608255D01*
X31428255Y-34721501D01*
X31295101Y-34810471D01*
X31147142Y-34871758D01*
X30990075Y-34903000D01*
X30829925Y-34903000D01*
X30672858Y-34871758D01*
X30524899Y-34810471D01*
X30391745Y-34721501D01*
X30278499Y-34608255D01*
X30189529Y-34475101D01*
X30128242Y-34327142D01*
X30097000Y-34170075D01*
X30097000Y-34009925D01*
X30128242Y-33852858D01*
X30189529Y-33704899D01*
X30278499Y-33571745D01*
X30391745Y-33458499D01*
X30524899Y-33369529D01*
X30672858Y-33308242D01*
X30829925Y-33277000D01*
X30990075Y-33277000D01*
X31147142Y-33308242D01*
X31147142Y-33308242D01*
G37*
G36*
X66707142Y-33308242D02*
G01*
X66855101Y-33369529D01*
X66988255Y-33458499D01*
X67101501Y-33571745D01*
X67190471Y-33704899D01*
X67251758Y-33852858D01*
X67283000Y-34009925D01*
X67283000Y-34170075D01*
X67251758Y-34327142D01*
X67190471Y-34475101D01*
X67101501Y-34608255D01*
X66988255Y-34721501D01*
X66855101Y-34810471D01*
X66707142Y-34871758D01*
X66550075Y-34903000D01*
X66389925Y-34903000D01*
X66232858Y-34871758D01*
X66084899Y-34810471D01*
X65951745Y-34721501D01*
X65838499Y-34608255D01*
X65749529Y-34475101D01*
X65688242Y-34327142D01*
X65657000Y-34170075D01*
X65657000Y-34009925D01*
X65688242Y-33852858D01*
X65749529Y-33704899D01*
X65838499Y-33571745D01*
X65951745Y-33458499D01*
X66084899Y-33369529D01*
X66232858Y-33308242D01*
X66389925Y-33277000D01*
X66550075Y-33277000D01*
X66707142Y-33308242D01*
X66707142Y-33308242D01*
G37*
G36*
X33687142Y-33308242D02*
G01*
X33835101Y-33369529D01*
X33968255Y-33458499D01*
X34081501Y-33571745D01*
X34170471Y-33704899D01*
X34231758Y-33852858D01*
X34263000Y-34009925D01*
X34263000Y-34170075D01*
X34231758Y-34327142D01*
X34170471Y-34475101D01*
X34081501Y-34608255D01*
X33968255Y-34721501D01*
X33835101Y-34810471D01*
X33687142Y-34871758D01*
X33530075Y-34903000D01*
X33369925Y-34903000D01*
X33212858Y-34871758D01*
X33064899Y-34810471D01*
X32931745Y-34721501D01*
X32818499Y-34608255D01*
X32729529Y-34475101D01*
X32668242Y-34327142D01*
X32637000Y-34170075D01*
X32637000Y-34009925D01*
X32668242Y-33852858D01*
X32729529Y-33704899D01*
X32818499Y-33571745D01*
X32931745Y-33458499D01*
X33064899Y-33369529D01*
X33212858Y-33308242D01*
X33369925Y-33277000D01*
X33530075Y-33277000D01*
X33687142Y-33308242D01*
X33687142Y-33308242D01*
G37*
G36*
X64167142Y-33308242D02*
G01*
X64315101Y-33369529D01*
X64448255Y-33458499D01*
X64561501Y-33571745D01*
X64650471Y-33704899D01*
X64711758Y-33852858D01*
X64743000Y-34009925D01*
X64743000Y-34170075D01*
X64711758Y-34327142D01*
X64650471Y-34475101D01*
X64561501Y-34608255D01*
X64448255Y-34721501D01*
X64315101Y-34810471D01*
X64167142Y-34871758D01*
X64010075Y-34903000D01*
X63849925Y-34903000D01*
X63692858Y-34871758D01*
X63544899Y-34810471D01*
X63411745Y-34721501D01*
X63298499Y-34608255D01*
X63209529Y-34475101D01*
X63148242Y-34327142D01*
X63117000Y-34170075D01*
X63117000Y-34009925D01*
X63148242Y-33852858D01*
X63209529Y-33704899D01*
X63298499Y-33571745D01*
X63411745Y-33458499D01*
X63544899Y-33369529D01*
X63692858Y-33308242D01*
X63849925Y-33277000D01*
X64010075Y-33277000D01*
X64167142Y-33308242D01*
X64167142Y-33308242D01*
G37*
G36*
X61627142Y-33308242D02*
G01*
X61775101Y-33369529D01*
X61908255Y-33458499D01*
X62021501Y-33571745D01*
X62110471Y-33704899D01*
X62171758Y-33852858D01*
X62203000Y-34009925D01*
X62203000Y-34170075D01*
X62171758Y-34327142D01*
X62110471Y-34475101D01*
X62021501Y-34608255D01*
X61908255Y-34721501D01*
X61775101Y-34810471D01*
X61627142Y-34871758D01*
X61470075Y-34903000D01*
X61309925Y-34903000D01*
X61152858Y-34871758D01*
X61004899Y-34810471D01*
X60871745Y-34721501D01*
X60758499Y-34608255D01*
X60669529Y-34475101D01*
X60608242Y-34327142D01*
X60577000Y-34170075D01*
X60577000Y-34009925D01*
X60608242Y-33852858D01*
X60669529Y-33704899D01*
X60758499Y-33571745D01*
X60871745Y-33458499D01*
X61004899Y-33369529D01*
X61152858Y-33308242D01*
X61309925Y-33277000D01*
X61470075Y-33277000D01*
X61627142Y-33308242D01*
X61627142Y-33308242D01*
G37*
G36*
X59087142Y-33308242D02*
G01*
X59235101Y-33369529D01*
X59368255Y-33458499D01*
X59481501Y-33571745D01*
X59570471Y-33704899D01*
X59631758Y-33852858D01*
X59663000Y-34009925D01*
X59663000Y-34170075D01*
X59631758Y-34327142D01*
X59570471Y-34475101D01*
X59481501Y-34608255D01*
X59368255Y-34721501D01*
X59235101Y-34810471D01*
X59087142Y-34871758D01*
X58930075Y-34903000D01*
X58769925Y-34903000D01*
X58612858Y-34871758D01*
X58464899Y-34810471D01*
X58331745Y-34721501D01*
X58218499Y-34608255D01*
X58129529Y-34475101D01*
X58068242Y-34327142D01*
X58037000Y-34170075D01*
X58037000Y-34009925D01*
X58068242Y-33852858D01*
X58129529Y-33704899D01*
X58218499Y-33571745D01*
X58331745Y-33458499D01*
X58464899Y-33369529D01*
X58612858Y-33308242D01*
X58769925Y-33277000D01*
X58930075Y-33277000D01*
X59087142Y-33308242D01*
X59087142Y-33308242D01*
G37*
G36*
X56547142Y-33308242D02*
G01*
X56695101Y-33369529D01*
X56828255Y-33458499D01*
X56941501Y-33571745D01*
X57030471Y-33704899D01*
X57091758Y-33852858D01*
X57123000Y-34009925D01*
X57123000Y-34170075D01*
X57091758Y-34327142D01*
X57030471Y-34475101D01*
X56941501Y-34608255D01*
X56828255Y-34721501D01*
X56695101Y-34810471D01*
X56547142Y-34871758D01*
X56390075Y-34903000D01*
X56229925Y-34903000D01*
X56072858Y-34871758D01*
X55924899Y-34810471D01*
X55791745Y-34721501D01*
X55678499Y-34608255D01*
X55589529Y-34475101D01*
X55528242Y-34327142D01*
X55497000Y-34170075D01*
X55497000Y-34009925D01*
X55528242Y-33852858D01*
X55589529Y-33704899D01*
X55678499Y-33571745D01*
X55791745Y-33458499D01*
X55924899Y-33369529D01*
X56072858Y-33308242D01*
X56229925Y-33277000D01*
X56390075Y-33277000D01*
X56547142Y-33308242D01*
X56547142Y-33308242D01*
G37*
G36*
X54007142Y-33308242D02*
G01*
X54155101Y-33369529D01*
X54288255Y-33458499D01*
X54401501Y-33571745D01*
X54490471Y-33704899D01*
X54551758Y-33852858D01*
X54583000Y-34009925D01*
X54583000Y-34170075D01*
X54551758Y-34327142D01*
X54490471Y-34475101D01*
X54401501Y-34608255D01*
X54288255Y-34721501D01*
X54155101Y-34810471D01*
X54007142Y-34871758D01*
X53850075Y-34903000D01*
X53689925Y-34903000D01*
X53532858Y-34871758D01*
X53384899Y-34810471D01*
X53251745Y-34721501D01*
X53138499Y-34608255D01*
X53049529Y-34475101D01*
X52988242Y-34327142D01*
X52957000Y-34170075D01*
X52957000Y-34009925D01*
X52988242Y-33852858D01*
X53049529Y-33704899D01*
X53138499Y-33571745D01*
X53251745Y-33458499D01*
X53384899Y-33369529D01*
X53532858Y-33308242D01*
X53689925Y-33277000D01*
X53850075Y-33277000D01*
X54007142Y-33308242D01*
X54007142Y-33308242D01*
G37*
G36*
X51467142Y-33308242D02*
G01*
X51615101Y-33369529D01*
X51748255Y-33458499D01*
X51861501Y-33571745D01*
X51950471Y-33704899D01*
X52011758Y-33852858D01*
X52043000Y-34009925D01*
X52043000Y-34170075D01*
X52011758Y-34327142D01*
X51950471Y-34475101D01*
X51861501Y-34608255D01*
X51748255Y-34721501D01*
X51615101Y-34810471D01*
X51467142Y-34871758D01*
X51310075Y-34903000D01*
X51149925Y-34903000D01*
X50992858Y-34871758D01*
X50844899Y-34810471D01*
X50711745Y-34721501D01*
X50598499Y-34608255D01*
X50509529Y-34475101D01*
X50448242Y-34327142D01*
X50417000Y-34170075D01*
X50417000Y-34009925D01*
X50448242Y-33852858D01*
X50509529Y-33704899D01*
X50598499Y-33571745D01*
X50711745Y-33458499D01*
X50844899Y-33369529D01*
X50992858Y-33308242D01*
X51149925Y-33277000D01*
X51310075Y-33277000D01*
X51467142Y-33308242D01*
X51467142Y-33308242D01*
G37*
G36*
X48927142Y-33308242D02*
G01*
X49075101Y-33369529D01*
X49208255Y-33458499D01*
X49321501Y-33571745D01*
X49410471Y-33704899D01*
X49471758Y-33852858D01*
X49503000Y-34009925D01*
X49503000Y-34170075D01*
X49471758Y-34327142D01*
X49410471Y-34475101D01*
X49321501Y-34608255D01*
X49208255Y-34721501D01*
X49075101Y-34810471D01*
X48927142Y-34871758D01*
X48770075Y-34903000D01*
X48609925Y-34903000D01*
X48452858Y-34871758D01*
X48304899Y-34810471D01*
X48171745Y-34721501D01*
X48058499Y-34608255D01*
X47969529Y-34475101D01*
X47908242Y-34327142D01*
X47877000Y-34170075D01*
X47877000Y-34009925D01*
X47908242Y-33852858D01*
X47969529Y-33704899D01*
X48058499Y-33571745D01*
X48171745Y-33458499D01*
X48304899Y-33369529D01*
X48452858Y-33308242D01*
X48609925Y-33277000D01*
X48770075Y-33277000D01*
X48927142Y-33308242D01*
X48927142Y-33308242D01*
G37*
G36*
X25190443Y-28115519D02*
G01*
X25256627Y-28122037D01*
X25426466Y-28173557D01*
X25582991Y-28257222D01*
X25618729Y-28286552D01*
X25720186Y-28369814D01*
X25803448Y-28471271D01*
X25832778Y-28507009D01*
X25916443Y-28663534D01*
X25967963Y-28833373D01*
X25985359Y-29010000D01*
X25967963Y-29186627D01*
X25916443Y-29356466D01*
X25832778Y-29512991D01*
X25803448Y-29548729D01*
X25720186Y-29650186D01*
X25618729Y-29733448D01*
X25582991Y-29762778D01*
X25426466Y-29846443D01*
X25256627Y-29897963D01*
X25190443Y-29904481D01*
X25124260Y-29911000D01*
X25035740Y-29911000D01*
X24969557Y-29904481D01*
X24903373Y-29897963D01*
X24733534Y-29846443D01*
X24577009Y-29762778D01*
X24541271Y-29733448D01*
X24439814Y-29650186D01*
X24356552Y-29548729D01*
X24327222Y-29512991D01*
X24243557Y-29356466D01*
X24192037Y-29186627D01*
X24174641Y-29010000D01*
X24192037Y-28833373D01*
X24243557Y-28663534D01*
X24327222Y-28507009D01*
X24356552Y-28471271D01*
X24439814Y-28369814D01*
X24541271Y-28286552D01*
X24577009Y-28257222D01*
X24733534Y-28173557D01*
X24903373Y-28122037D01*
X24969557Y-28115519D01*
X25035740Y-28109000D01*
X25124260Y-28109000D01*
X25190443Y-28115519D01*
X25190443Y-28115519D01*
G37*
G36*
X32810443Y-28115519D02*
G01*
X32876627Y-28122037D01*
X33046466Y-28173557D01*
X33202991Y-28257222D01*
X33238729Y-28286552D01*
X33340186Y-28369814D01*
X33423448Y-28471271D01*
X33452778Y-28507009D01*
X33536443Y-28663534D01*
X33587963Y-28833373D01*
X33605359Y-29010000D01*
X33587963Y-29186627D01*
X33536443Y-29356466D01*
X33452778Y-29512991D01*
X33423448Y-29548729D01*
X33340186Y-29650186D01*
X33238729Y-29733448D01*
X33202991Y-29762778D01*
X33046466Y-29846443D01*
X32876627Y-29897963D01*
X32810443Y-29904481D01*
X32744260Y-29911000D01*
X32655740Y-29911000D01*
X32589557Y-29904481D01*
X32523373Y-29897963D01*
X32353534Y-29846443D01*
X32197009Y-29762778D01*
X32161271Y-29733448D01*
X32059814Y-29650186D01*
X31976552Y-29548729D01*
X31947222Y-29512991D01*
X31863557Y-29356466D01*
X31812037Y-29186627D01*
X31794641Y-29010000D01*
X31812037Y-28833373D01*
X31863557Y-28663534D01*
X31947222Y-28507009D01*
X31976552Y-28471271D01*
X32059814Y-28369814D01*
X32161271Y-28286552D01*
X32197009Y-28257222D01*
X32353534Y-28173557D01*
X32523373Y-28122037D01*
X32589557Y-28115519D01*
X32655740Y-28109000D01*
X32744260Y-28109000D01*
X32810443Y-28115519D01*
X32810443Y-28115519D01*
G37*
G36*
X30270443Y-28115519D02*
G01*
X30336627Y-28122037D01*
X30506466Y-28173557D01*
X30662991Y-28257222D01*
X30698729Y-28286552D01*
X30800186Y-28369814D01*
X30883448Y-28471271D01*
X30912778Y-28507009D01*
X30996443Y-28663534D01*
X31047963Y-28833373D01*
X31065359Y-29010000D01*
X31047963Y-29186627D01*
X30996443Y-29356466D01*
X30912778Y-29512991D01*
X30883448Y-29548729D01*
X30800186Y-29650186D01*
X30698729Y-29733448D01*
X30662991Y-29762778D01*
X30506466Y-29846443D01*
X30336627Y-29897963D01*
X30270443Y-29904481D01*
X30204260Y-29911000D01*
X30115740Y-29911000D01*
X30049557Y-29904481D01*
X29983373Y-29897963D01*
X29813534Y-29846443D01*
X29657009Y-29762778D01*
X29621271Y-29733448D01*
X29519814Y-29650186D01*
X29436552Y-29548729D01*
X29407222Y-29512991D01*
X29323557Y-29356466D01*
X29272037Y-29186627D01*
X29254641Y-29010000D01*
X29272037Y-28833373D01*
X29323557Y-28663534D01*
X29407222Y-28507009D01*
X29436552Y-28471271D01*
X29519814Y-28369814D01*
X29621271Y-28286552D01*
X29657009Y-28257222D01*
X29813534Y-28173557D01*
X29983373Y-28122037D01*
X30049557Y-28115519D01*
X30115740Y-28109000D01*
X30204260Y-28109000D01*
X30270443Y-28115519D01*
X30270443Y-28115519D01*
G37*
G36*
X27730443Y-28115519D02*
G01*
X27796627Y-28122037D01*
X27966466Y-28173557D01*
X28122991Y-28257222D01*
X28158729Y-28286552D01*
X28260186Y-28369814D01*
X28343448Y-28471271D01*
X28372778Y-28507009D01*
X28456443Y-28663534D01*
X28507963Y-28833373D01*
X28525359Y-29010000D01*
X28507963Y-29186627D01*
X28456443Y-29356466D01*
X28372778Y-29512991D01*
X28343448Y-29548729D01*
X28260186Y-29650186D01*
X28158729Y-29733448D01*
X28122991Y-29762778D01*
X27966466Y-29846443D01*
X27796627Y-29897963D01*
X27730443Y-29904481D01*
X27664260Y-29911000D01*
X27575740Y-29911000D01*
X27509557Y-29904481D01*
X27443373Y-29897963D01*
X27273534Y-29846443D01*
X27117009Y-29762778D01*
X27081271Y-29733448D01*
X26979814Y-29650186D01*
X26896552Y-29548729D01*
X26867222Y-29512991D01*
X26783557Y-29356466D01*
X26732037Y-29186627D01*
X26714641Y-29010000D01*
X26732037Y-28833373D01*
X26783557Y-28663534D01*
X26867222Y-28507009D01*
X26896552Y-28471271D01*
X26979814Y-28369814D01*
X27081271Y-28286552D01*
X27117009Y-28257222D01*
X27273534Y-28173557D01*
X27443373Y-28122037D01*
X27509557Y-28115519D01*
X27575740Y-28109000D01*
X27664260Y-28109000D01*
X27730443Y-28115519D01*
X27730443Y-28115519D01*
G37*
G36*
X22650443Y-28115519D02*
G01*
X22716627Y-28122037D01*
X22886466Y-28173557D01*
X23042991Y-28257222D01*
X23078729Y-28286552D01*
X23180186Y-28369814D01*
X23263448Y-28471271D01*
X23292778Y-28507009D01*
X23376443Y-28663534D01*
X23427963Y-28833373D01*
X23445359Y-29010000D01*
X23427963Y-29186627D01*
X23376443Y-29356466D01*
X23292778Y-29512991D01*
X23263448Y-29548729D01*
X23180186Y-29650186D01*
X23078729Y-29733448D01*
X23042991Y-29762778D01*
X22886466Y-29846443D01*
X22716627Y-29897963D01*
X22650443Y-29904481D01*
X22584260Y-29911000D01*
X22495740Y-29911000D01*
X22429557Y-29904481D01*
X22363373Y-29897963D01*
X22193534Y-29846443D01*
X22037009Y-29762778D01*
X22001271Y-29733448D01*
X21899814Y-29650186D01*
X21816552Y-29548729D01*
X21787222Y-29512991D01*
X21703557Y-29356466D01*
X21652037Y-29186627D01*
X21634641Y-29010000D01*
X21652037Y-28833373D01*
X21703557Y-28663534D01*
X21787222Y-28507009D01*
X21816552Y-28471271D01*
X21899814Y-28369814D01*
X22001271Y-28286552D01*
X22037009Y-28257222D01*
X22193534Y-28173557D01*
X22363373Y-28122037D01*
X22429557Y-28115519D01*
X22495740Y-28109000D01*
X22584260Y-28109000D01*
X22650443Y-28115519D01*
X22650443Y-28115519D01*
G37*
G36*
X38737142Y-26218242D02*
G01*
X38885101Y-26279529D01*
X39018255Y-26368499D01*
X39131501Y-26481745D01*
X39220471Y-26614899D01*
X39281758Y-26762858D01*
X39313000Y-26919925D01*
X39313000Y-27080075D01*
X39281758Y-27237142D01*
X39220471Y-27385101D01*
X39131501Y-27518255D01*
X39018255Y-27631501D01*
X38885101Y-27720471D01*
X38737142Y-27781758D01*
X38580075Y-27813000D01*
X38419925Y-27813000D01*
X38262858Y-27781758D01*
X38114899Y-27720471D01*
X37981745Y-27631501D01*
X37868499Y-27518255D01*
X37779529Y-27385101D01*
X37718242Y-27237142D01*
X37687000Y-27080075D01*
X37687000Y-26919925D01*
X37718242Y-26762858D01*
X37779529Y-26614899D01*
X37868499Y-26481745D01*
X37981745Y-26368499D01*
X38114899Y-26279529D01*
X38262858Y-26218242D01*
X38419925Y-26187000D01*
X38580075Y-26187000D01*
X38737142Y-26218242D01*
X38737142Y-26218242D01*
G37*
G36*
X40737142Y-26218242D02*
G01*
X40885101Y-26279529D01*
X41018255Y-26368499D01*
X41131501Y-26481745D01*
X41220471Y-26614899D01*
X41281758Y-26762858D01*
X41313000Y-26919925D01*
X41313000Y-27080075D01*
X41281758Y-27237142D01*
X41220471Y-27385101D01*
X41131501Y-27518255D01*
X41018255Y-27631501D01*
X40885101Y-27720471D01*
X40737142Y-27781758D01*
X40580075Y-27813000D01*
X40419925Y-27813000D01*
X40262858Y-27781758D01*
X40114899Y-27720471D01*
X39981745Y-27631501D01*
X39868499Y-27518255D01*
X39779529Y-27385101D01*
X39718242Y-27237142D01*
X39687000Y-27080075D01*
X39687000Y-26919925D01*
X39718242Y-26762858D01*
X39779529Y-26614899D01*
X39868499Y-26481745D01*
X39981745Y-26368499D01*
X40114899Y-26279529D01*
X40262858Y-26218242D01*
X40419925Y-26187000D01*
X40580075Y-26187000D01*
X40737142Y-26218242D01*
X40737142Y-26218242D01*
G37*
G36*
X42737142Y-26218242D02*
G01*
X42885101Y-26279529D01*
X43018255Y-26368499D01*
X43131501Y-26481745D01*
X43220471Y-26614899D01*
X43281758Y-26762858D01*
X43313000Y-26919925D01*
X43313000Y-27080075D01*
X43281758Y-27237142D01*
X43220471Y-27385101D01*
X43131501Y-27518255D01*
X43018255Y-27631501D01*
X42885101Y-27720471D01*
X42737142Y-27781758D01*
X42580075Y-27813000D01*
X42419925Y-27813000D01*
X42262858Y-27781758D01*
X42114899Y-27720471D01*
X41981745Y-27631501D01*
X41868499Y-27518255D01*
X41779529Y-27385101D01*
X41718242Y-27237142D01*
X41687000Y-27080075D01*
X41687000Y-26919925D01*
X41718242Y-26762858D01*
X41779529Y-26614899D01*
X41868499Y-26481745D01*
X41981745Y-26368499D01*
X42114899Y-26279529D01*
X42262858Y-26218242D01*
X42419925Y-26187000D01*
X42580075Y-26187000D01*
X42737142Y-26218242D01*
X42737142Y-26218242D01*
G37*
G36*
X44737142Y-26218242D02*
G01*
X44885101Y-26279529D01*
X45018255Y-26368499D01*
X45131501Y-26481745D01*
X45220471Y-26614899D01*
X45281758Y-26762858D01*
X45313000Y-26919925D01*
X45313000Y-27080075D01*
X45281758Y-27237142D01*
X45220471Y-27385101D01*
X45131501Y-27518255D01*
X45018255Y-27631501D01*
X44885101Y-27720471D01*
X44737142Y-27781758D01*
X44580075Y-27813000D01*
X44419925Y-27813000D01*
X44262858Y-27781758D01*
X44114899Y-27720471D01*
X43981745Y-27631501D01*
X43868499Y-27518255D01*
X43779529Y-27385101D01*
X43718242Y-27237142D01*
X43687000Y-27080075D01*
X43687000Y-26919925D01*
X43718242Y-26762858D01*
X43779529Y-26614899D01*
X43868499Y-26481745D01*
X43981745Y-26368499D01*
X44114899Y-26279529D01*
X44262858Y-26218242D01*
X44419925Y-26187000D01*
X44580075Y-26187000D01*
X44737142Y-26218242D01*
X44737142Y-26218242D01*
G37*
G36*
X51237142Y-26218242D02*
G01*
X51385101Y-26279529D01*
X51518255Y-26368499D01*
X51631501Y-26481745D01*
X51720471Y-26614899D01*
X51781758Y-26762858D01*
X51813000Y-26919925D01*
X51813000Y-27080075D01*
X51781758Y-27237142D01*
X51720471Y-27385101D01*
X51631501Y-27518255D01*
X51518255Y-27631501D01*
X51385101Y-27720471D01*
X51237142Y-27781758D01*
X51080075Y-27813000D01*
X50919925Y-27813000D01*
X50762858Y-27781758D01*
X50614899Y-27720471D01*
X50481745Y-27631501D01*
X50368499Y-27518255D01*
X50279529Y-27385101D01*
X50218242Y-27237142D01*
X50187000Y-27080075D01*
X50187000Y-26919925D01*
X50218242Y-26762858D01*
X50279529Y-26614899D01*
X50368499Y-26481745D01*
X50481745Y-26368499D01*
X50614899Y-26279529D01*
X50762858Y-26218242D01*
X50919925Y-26187000D01*
X51080075Y-26187000D01*
X51237142Y-26218242D01*
X51237142Y-26218242D01*
G37*
G36*
X53237142Y-26218242D02*
G01*
X53385101Y-26279529D01*
X53518255Y-26368499D01*
X53631501Y-26481745D01*
X53720471Y-26614899D01*
X53781758Y-26762858D01*
X53813000Y-26919925D01*
X53813000Y-27080075D01*
X53781758Y-27237142D01*
X53720471Y-27385101D01*
X53631501Y-27518255D01*
X53518255Y-27631501D01*
X53385101Y-27720471D01*
X53237142Y-27781758D01*
X53080075Y-27813000D01*
X52919925Y-27813000D01*
X52762858Y-27781758D01*
X52614899Y-27720471D01*
X52481745Y-27631501D01*
X52368499Y-27518255D01*
X52279529Y-27385101D01*
X52218242Y-27237142D01*
X52187000Y-27080075D01*
X52187000Y-26919925D01*
X52218242Y-26762858D01*
X52279529Y-26614899D01*
X52368499Y-26481745D01*
X52481745Y-26368499D01*
X52614899Y-26279529D01*
X52762858Y-26218242D01*
X52919925Y-26187000D01*
X53080075Y-26187000D01*
X53237142Y-26218242D01*
X53237142Y-26218242D01*
G37*
G36*
X55237142Y-26218242D02*
G01*
X55385101Y-26279529D01*
X55518255Y-26368499D01*
X55631501Y-26481745D01*
X55720471Y-26614899D01*
X55781758Y-26762858D01*
X55813000Y-26919925D01*
X55813000Y-27080075D01*
X55781758Y-27237142D01*
X55720471Y-27385101D01*
X55631501Y-27518255D01*
X55518255Y-27631501D01*
X55385101Y-27720471D01*
X55237142Y-27781758D01*
X55080075Y-27813000D01*
X54919925Y-27813000D01*
X54762858Y-27781758D01*
X54614899Y-27720471D01*
X54481745Y-27631501D01*
X54368499Y-27518255D01*
X54279529Y-27385101D01*
X54218242Y-27237142D01*
X54187000Y-27080075D01*
X54187000Y-26919925D01*
X54218242Y-26762858D01*
X54279529Y-26614899D01*
X54368499Y-26481745D01*
X54481745Y-26368499D01*
X54614899Y-26279529D01*
X54762858Y-26218242D01*
X54919925Y-26187000D01*
X55080075Y-26187000D01*
X55237142Y-26218242D01*
X55237142Y-26218242D01*
G37*
G36*
X57237142Y-26218242D02*
G01*
X57385101Y-26279529D01*
X57518255Y-26368499D01*
X57631501Y-26481745D01*
X57720471Y-26614899D01*
X57781758Y-26762858D01*
X57813000Y-26919925D01*
X57813000Y-27080075D01*
X57781758Y-27237142D01*
X57720471Y-27385101D01*
X57631501Y-27518255D01*
X57518255Y-27631501D01*
X57385101Y-27720471D01*
X57237142Y-27781758D01*
X57080075Y-27813000D01*
X56919925Y-27813000D01*
X56762858Y-27781758D01*
X56614899Y-27720471D01*
X56481745Y-27631501D01*
X56368499Y-27518255D01*
X56279529Y-27385101D01*
X56218242Y-27237142D01*
X56187000Y-27080075D01*
X56187000Y-26919925D01*
X56218242Y-26762858D01*
X56279529Y-26614899D01*
X56368499Y-26481745D01*
X56481745Y-26368499D01*
X56614899Y-26279529D01*
X56762858Y-26218242D01*
X56919925Y-26187000D01*
X57080075Y-26187000D01*
X57237142Y-26218242D01*
X57237142Y-26218242D01*
G37*
G36*
X82237142Y-26218242D02*
G01*
X82385101Y-26279529D01*
X82518255Y-26368499D01*
X82631501Y-26481745D01*
X82720471Y-26614899D01*
X82781758Y-26762858D01*
X82813000Y-26919925D01*
X82813000Y-27080075D01*
X82781758Y-27237142D01*
X82720471Y-27385101D01*
X82631501Y-27518255D01*
X82518255Y-27631501D01*
X82385101Y-27720471D01*
X82237142Y-27781758D01*
X82080075Y-27813000D01*
X81919925Y-27813000D01*
X81762858Y-27781758D01*
X81614899Y-27720471D01*
X81481745Y-27631501D01*
X81368499Y-27518255D01*
X81279529Y-27385101D01*
X81218242Y-27237142D01*
X81187000Y-27080075D01*
X81187000Y-26919925D01*
X81218242Y-26762858D01*
X81279529Y-26614899D01*
X81368499Y-26481745D01*
X81481745Y-26368499D01*
X81614899Y-26279529D01*
X81762858Y-26218242D01*
X81919925Y-26187000D01*
X82080075Y-26187000D01*
X82237142Y-26218242D01*
X82237142Y-26218242D01*
G37*
G36*
X80237142Y-26218242D02*
G01*
X80385101Y-26279529D01*
X80518255Y-26368499D01*
X80631501Y-26481745D01*
X80720471Y-26614899D01*
X80781758Y-26762858D01*
X80813000Y-26919925D01*
X80813000Y-27080075D01*
X80781758Y-27237142D01*
X80720471Y-27385101D01*
X80631501Y-27518255D01*
X80518255Y-27631501D01*
X80385101Y-27720471D01*
X80237142Y-27781758D01*
X80080075Y-27813000D01*
X79919925Y-27813000D01*
X79762858Y-27781758D01*
X79614899Y-27720471D01*
X79481745Y-27631501D01*
X79368499Y-27518255D01*
X79279529Y-27385101D01*
X79218242Y-27237142D01*
X79187000Y-27080075D01*
X79187000Y-26919925D01*
X79218242Y-26762858D01*
X79279529Y-26614899D01*
X79368499Y-26481745D01*
X79481745Y-26368499D01*
X79614899Y-26279529D01*
X79762858Y-26218242D01*
X79919925Y-26187000D01*
X80080075Y-26187000D01*
X80237142Y-26218242D01*
X80237142Y-26218242D01*
G37*
G36*
X78237142Y-26218242D02*
G01*
X78385101Y-26279529D01*
X78518255Y-26368499D01*
X78631501Y-26481745D01*
X78720471Y-26614899D01*
X78781758Y-26762858D01*
X78813000Y-26919925D01*
X78813000Y-27080075D01*
X78781758Y-27237142D01*
X78720471Y-27385101D01*
X78631501Y-27518255D01*
X78518255Y-27631501D01*
X78385101Y-27720471D01*
X78237142Y-27781758D01*
X78080075Y-27813000D01*
X77919925Y-27813000D01*
X77762858Y-27781758D01*
X77614899Y-27720471D01*
X77481745Y-27631501D01*
X77368499Y-27518255D01*
X77279529Y-27385101D01*
X77218242Y-27237142D01*
X77187000Y-27080075D01*
X77187000Y-26919925D01*
X77218242Y-26762858D01*
X77279529Y-26614899D01*
X77368499Y-26481745D01*
X77481745Y-26368499D01*
X77614899Y-26279529D01*
X77762858Y-26218242D01*
X77919925Y-26187000D01*
X78080075Y-26187000D01*
X78237142Y-26218242D01*
X78237142Y-26218242D01*
G37*
G36*
X76237142Y-26218242D02*
G01*
X76385101Y-26279529D01*
X76518255Y-26368499D01*
X76631501Y-26481745D01*
X76720471Y-26614899D01*
X76781758Y-26762858D01*
X76813000Y-26919925D01*
X76813000Y-27080075D01*
X76781758Y-27237142D01*
X76720471Y-27385101D01*
X76631501Y-27518255D01*
X76518255Y-27631501D01*
X76385101Y-27720471D01*
X76237142Y-27781758D01*
X76080075Y-27813000D01*
X75919925Y-27813000D01*
X75762858Y-27781758D01*
X75614899Y-27720471D01*
X75481745Y-27631501D01*
X75368499Y-27518255D01*
X75279529Y-27385101D01*
X75218242Y-27237142D01*
X75187000Y-27080075D01*
X75187000Y-26919925D01*
X75218242Y-26762858D01*
X75279529Y-26614899D01*
X75368499Y-26481745D01*
X75481745Y-26368499D01*
X75614899Y-26279529D01*
X75762858Y-26218242D01*
X75919925Y-26187000D01*
X76080075Y-26187000D01*
X76237142Y-26218242D01*
X76237142Y-26218242D01*
G37*
G36*
X63737142Y-26218242D02*
G01*
X63885101Y-26279529D01*
X64018255Y-26368499D01*
X64131501Y-26481745D01*
X64220471Y-26614899D01*
X64281758Y-26762858D01*
X64313000Y-26919925D01*
X64313000Y-27080075D01*
X64281758Y-27237142D01*
X64220471Y-27385101D01*
X64131501Y-27518255D01*
X64018255Y-27631501D01*
X63885101Y-27720471D01*
X63737142Y-27781758D01*
X63580075Y-27813000D01*
X63419925Y-27813000D01*
X63262858Y-27781758D01*
X63114899Y-27720471D01*
X62981745Y-27631501D01*
X62868499Y-27518255D01*
X62779529Y-27385101D01*
X62718242Y-27237142D01*
X62687000Y-27080075D01*
X62687000Y-26919925D01*
X62718242Y-26762858D01*
X62779529Y-26614899D01*
X62868499Y-26481745D01*
X62981745Y-26368499D01*
X63114899Y-26279529D01*
X63262858Y-26218242D01*
X63419925Y-26187000D01*
X63580075Y-26187000D01*
X63737142Y-26218242D01*
X63737142Y-26218242D01*
G37*
G36*
X65737142Y-26218242D02*
G01*
X65885101Y-26279529D01*
X66018255Y-26368499D01*
X66131501Y-26481745D01*
X66220471Y-26614899D01*
X66281758Y-26762858D01*
X66313000Y-26919925D01*
X66313000Y-27080075D01*
X66281758Y-27237142D01*
X66220471Y-27385101D01*
X66131501Y-27518255D01*
X66018255Y-27631501D01*
X65885101Y-27720471D01*
X65737142Y-27781758D01*
X65580075Y-27813000D01*
X65419925Y-27813000D01*
X65262858Y-27781758D01*
X65114899Y-27720471D01*
X64981745Y-27631501D01*
X64868499Y-27518255D01*
X64779529Y-27385101D01*
X64718242Y-27237142D01*
X64687000Y-27080075D01*
X64687000Y-26919925D01*
X64718242Y-26762858D01*
X64779529Y-26614899D01*
X64868499Y-26481745D01*
X64981745Y-26368499D01*
X65114899Y-26279529D01*
X65262858Y-26218242D01*
X65419925Y-26187000D01*
X65580075Y-26187000D01*
X65737142Y-26218242D01*
X65737142Y-26218242D01*
G37*
G36*
X67737142Y-26218242D02*
G01*
X67885101Y-26279529D01*
X68018255Y-26368499D01*
X68131501Y-26481745D01*
X68220471Y-26614899D01*
X68281758Y-26762858D01*
X68313000Y-26919925D01*
X68313000Y-27080075D01*
X68281758Y-27237142D01*
X68220471Y-27385101D01*
X68131501Y-27518255D01*
X68018255Y-27631501D01*
X67885101Y-27720471D01*
X67737142Y-27781758D01*
X67580075Y-27813000D01*
X67419925Y-27813000D01*
X67262858Y-27781758D01*
X67114899Y-27720471D01*
X66981745Y-27631501D01*
X66868499Y-27518255D01*
X66779529Y-27385101D01*
X66718242Y-27237142D01*
X66687000Y-27080075D01*
X66687000Y-26919925D01*
X66718242Y-26762858D01*
X66779529Y-26614899D01*
X66868499Y-26481745D01*
X66981745Y-26368499D01*
X67114899Y-26279529D01*
X67262858Y-26218242D01*
X67419925Y-26187000D01*
X67580075Y-26187000D01*
X67737142Y-26218242D01*
X67737142Y-26218242D01*
G37*
G36*
X69737142Y-26218242D02*
G01*
X69885101Y-26279529D01*
X70018255Y-26368499D01*
X70131501Y-26481745D01*
X70220471Y-26614899D01*
X70281758Y-26762858D01*
X70313000Y-26919925D01*
X70313000Y-27080075D01*
X70281758Y-27237142D01*
X70220471Y-27385101D01*
X70131501Y-27518255D01*
X70018255Y-27631501D01*
X69885101Y-27720471D01*
X69737142Y-27781758D01*
X69580075Y-27813000D01*
X69419925Y-27813000D01*
X69262858Y-27781758D01*
X69114899Y-27720471D01*
X68981745Y-27631501D01*
X68868499Y-27518255D01*
X68779529Y-27385101D01*
X68718242Y-27237142D01*
X68687000Y-27080075D01*
X68687000Y-26919925D01*
X68718242Y-26762858D01*
X68779529Y-26614899D01*
X68868499Y-26481745D01*
X68981745Y-26368499D01*
X69114899Y-26279529D01*
X69262858Y-26218242D01*
X69419925Y-26187000D01*
X69580075Y-26187000D01*
X69737142Y-26218242D01*
X69737142Y-26218242D01*
G37*
G36*
X30270442Y-25575518D02*
G01*
X30336627Y-25582037D01*
X30506466Y-25633557D01*
X30662991Y-25717222D01*
X30698729Y-25746552D01*
X30800186Y-25829814D01*
X30883448Y-25931271D01*
X30912778Y-25967009D01*
X30996443Y-26123534D01*
X31047963Y-26293373D01*
X31065359Y-26470000D01*
X31047963Y-26646627D01*
X30996443Y-26816466D01*
X30912778Y-26972991D01*
X30883448Y-27008729D01*
X30800186Y-27110186D01*
X30698729Y-27193448D01*
X30662991Y-27222778D01*
X30506466Y-27306443D01*
X30336627Y-27357963D01*
X30270442Y-27364482D01*
X30204260Y-27371000D01*
X30115740Y-27371000D01*
X30049558Y-27364482D01*
X29983373Y-27357963D01*
X29813534Y-27306443D01*
X29657009Y-27222778D01*
X29621271Y-27193448D01*
X29519814Y-27110186D01*
X29436552Y-27008729D01*
X29407222Y-26972991D01*
X29323557Y-26816466D01*
X29272037Y-26646627D01*
X29254641Y-26470000D01*
X29272037Y-26293373D01*
X29323557Y-26123534D01*
X29407222Y-25967009D01*
X29436552Y-25931271D01*
X29519814Y-25829814D01*
X29621271Y-25746552D01*
X29657009Y-25717222D01*
X29813534Y-25633557D01*
X29983373Y-25582037D01*
X30049558Y-25575518D01*
X30115740Y-25569000D01*
X30204260Y-25569000D01*
X30270442Y-25575518D01*
X30270442Y-25575518D01*
G37*
G36*
X27730442Y-25575518D02*
G01*
X27796627Y-25582037D01*
X27966466Y-25633557D01*
X28122991Y-25717222D01*
X28158729Y-25746552D01*
X28260186Y-25829814D01*
X28343448Y-25931271D01*
X28372778Y-25967009D01*
X28456443Y-26123534D01*
X28507963Y-26293373D01*
X28525359Y-26470000D01*
X28507963Y-26646627D01*
X28456443Y-26816466D01*
X28372778Y-26972991D01*
X28343448Y-27008729D01*
X28260186Y-27110186D01*
X28158729Y-27193448D01*
X28122991Y-27222778D01*
X27966466Y-27306443D01*
X27796627Y-27357963D01*
X27730442Y-27364482D01*
X27664260Y-27371000D01*
X27575740Y-27371000D01*
X27509558Y-27364482D01*
X27443373Y-27357963D01*
X27273534Y-27306443D01*
X27117009Y-27222778D01*
X27081271Y-27193448D01*
X26979814Y-27110186D01*
X26896552Y-27008729D01*
X26867222Y-26972991D01*
X26783557Y-26816466D01*
X26732037Y-26646627D01*
X26714641Y-26470000D01*
X26732037Y-26293373D01*
X26783557Y-26123534D01*
X26867222Y-25967009D01*
X26896552Y-25931271D01*
X26979814Y-25829814D01*
X27081271Y-25746552D01*
X27117009Y-25717222D01*
X27273534Y-25633557D01*
X27443373Y-25582037D01*
X27509558Y-25575518D01*
X27575740Y-25569000D01*
X27664260Y-25569000D01*
X27730442Y-25575518D01*
X27730442Y-25575518D01*
G37*
G36*
X32810442Y-25575518D02*
G01*
X32876627Y-25582037D01*
X33046466Y-25633557D01*
X33202991Y-25717222D01*
X33238729Y-25746552D01*
X33340186Y-25829814D01*
X33423448Y-25931271D01*
X33452778Y-25967009D01*
X33536443Y-26123534D01*
X33587963Y-26293373D01*
X33605359Y-26470000D01*
X33587963Y-26646627D01*
X33536443Y-26816466D01*
X33452778Y-26972991D01*
X33423448Y-27008729D01*
X33340186Y-27110186D01*
X33238729Y-27193448D01*
X33202991Y-27222778D01*
X33046466Y-27306443D01*
X32876627Y-27357963D01*
X32810442Y-27364482D01*
X32744260Y-27371000D01*
X32655740Y-27371000D01*
X32589558Y-27364482D01*
X32523373Y-27357963D01*
X32353534Y-27306443D01*
X32197009Y-27222778D01*
X32161271Y-27193448D01*
X32059814Y-27110186D01*
X31976552Y-27008729D01*
X31947222Y-26972991D01*
X31863557Y-26816466D01*
X31812037Y-26646627D01*
X31794641Y-26470000D01*
X31812037Y-26293373D01*
X31863557Y-26123534D01*
X31947222Y-25967009D01*
X31976552Y-25931271D01*
X32059814Y-25829814D01*
X32161271Y-25746552D01*
X32197009Y-25717222D01*
X32353534Y-25633557D01*
X32523373Y-25582037D01*
X32589558Y-25575518D01*
X32655740Y-25569000D01*
X32744260Y-25569000D01*
X32810442Y-25575518D01*
X32810442Y-25575518D01*
G37*
G36*
X25190442Y-25575518D02*
G01*
X25256627Y-25582037D01*
X25426466Y-25633557D01*
X25582991Y-25717222D01*
X25618729Y-25746552D01*
X25720186Y-25829814D01*
X25803448Y-25931271D01*
X25832778Y-25967009D01*
X25916443Y-26123534D01*
X25967963Y-26293373D01*
X25985359Y-26470000D01*
X25967963Y-26646627D01*
X25916443Y-26816466D01*
X25832778Y-26972991D01*
X25803448Y-27008729D01*
X25720186Y-27110186D01*
X25618729Y-27193448D01*
X25582991Y-27222778D01*
X25426466Y-27306443D01*
X25256627Y-27357963D01*
X25190442Y-27364482D01*
X25124260Y-27371000D01*
X25035740Y-27371000D01*
X24969558Y-27364482D01*
X24903373Y-27357963D01*
X24733534Y-27306443D01*
X24577009Y-27222778D01*
X24541271Y-27193448D01*
X24439814Y-27110186D01*
X24356552Y-27008729D01*
X24327222Y-26972991D01*
X24243557Y-26816466D01*
X24192037Y-26646627D01*
X24174641Y-26470000D01*
X24192037Y-26293373D01*
X24243557Y-26123534D01*
X24327222Y-25967009D01*
X24356552Y-25931271D01*
X24439814Y-25829814D01*
X24541271Y-25746552D01*
X24577009Y-25717222D01*
X24733534Y-25633557D01*
X24903373Y-25582037D01*
X24969558Y-25575518D01*
X25035740Y-25569000D01*
X25124260Y-25569000D01*
X25190442Y-25575518D01*
X25190442Y-25575518D01*
G37*
G36*
X23441000Y-27371000D02*
G01*
X21639000Y-27371000D01*
X21639000Y-25569000D01*
X23441000Y-25569000D01*
X23441000Y-27371000D01*
X23441000Y-27371000D01*
G37*
M02*
